<?xml version="1.0" encoding="utf-8"?>
<!-- Generator: Adobe Illustrator 26.5.0, SVG Export Plug-In . SVG Version: 6.00 Build 0)  -->
<svg version="1.1" id="Layer_1" xmlns="http://www.w3.org/2000/svg" xmlns:xlink="http://www.w3.org/1999/xlink" x="0px" y="0px"
	 viewBox="0 0 60 39" style="enable-background:new 0 0 60 39;" xml:space="preserve">
<style type="text/css">
	.st0{fill:#70B544;}
	.st1{fill:#2986CC;}
</style>
<path class="st0" d="M56.1,39H4.3C1.9,39,0,36.9,0,34.3V4.8c0-2.6,1.9-4.7,4.3-4.7h39.3C51.4,0.1,60,28.2,60,34.3v0.5
	C60,37.4,58.5,39,56.1,39z"/>
<path class="st1" d="M56.1,39H4.3C1.9,39,0,36.9,0,34.3V4.8c0-2.6,1.9-4.7,4.3-4.7h39.3C51.4,0.1,60,28.2,60,34.3v0.5
	C60,37.4,58.5,39,56.1,39z"/>
<path id="Buss" d="M39,13.5h-0.5l-0.3-3.7c-0.1-0.7-0.4-2.4-2.3-3.6c-1.1-0.7-3.7-1.1-5.8-1.2h-4.5c-2.1,0.1-3.9,0.5-4.9,1.2
	c-1.9,1.3-2.3,2.9-2.4,3.6l-0.2,3.7h-0.5c-0.7,0-1.3,0.6-1.3,1.3v3.8c0,0.6,0.7,1.7,1.3,2.1c-0.1,2.2-0.3,4.4-0.4,6.6
	c0,0.7-0.6,3.1,1.5,4.6v2.4c0,0.4,0.3,0.7,0.6,0.7h1.8c0.4,0,0.6-0.3,0.6-0.7v-1.5c0.4,0,0.8,0,1.3,0.1h10.3c0.5,0,0.8,0,1.2-0.1
	v1.5c0,0.4,0.3,0.7,0.6,0.7H37c0.3,0,0.6-0.3,0.6-0.7v-2.5c2-1.5,1.6-3.9,1.6-4.6c0-0.5,0-1.8-0.3-6.6c0.6-0.4,1.3-1.5,1.3-2.1v-3.8
	C40.3,14.1,39.7,13.5,39,13.5L39,13.5z M24.1,8.1c0-0.4,0.3-0.7,0.6-0.7h7.1c0.3,0,0.6,0.3,0.6,0.7v0.6c0,0.4-0.3,0.7-0.6,0.7h-7.1
	c-0.4,0-0.6-0.3-0.6-0.7L24.1,8.1C24.1,8.1,24.1,8.1,24.1,8.1z M21,29.7c-1,0-1.8-0.9-1.8-1.9s0.8-1.9,1.8-1.9s1.9,0.9,1.9,1.9
	S22,29.7,21,29.7z M32.2,23.4c-0.7,0.4-1.9,0.6-3.2,0.7h-1.8c-1.3,0-2.5-0.2-3.2-0.7c-1.2-0.8-1.3-1.7-1.3-2.1c0,0-0.7-5.1-0.7-5.5
	c0-0.4-0.4-2,1.1-2.9c0.7-0.4,1.3-0.5,2.6-0.5h5c1.3,0.1,1.9,0.1,2.6,0.5c1.4,0.9,1.1,2.5,1.1,2.9c0,0.4-0.7,5.5-0.7,5.5
	C33.5,21.8,33.5,22.6,32.2,23.4L32.2,23.4z M33.6,27.7c0-1.1,0.8-1.9,1.8-1.9s1.8,0.9,1.8,1.9s-0.8,1.9-1.8,1.9S33.6,28.8,33.6,27.7
	z"/>
</svg>
