<?xml version="1.0" encoding="UTF-8"?>
<svg id="Layer_1" data-name="Layer 1" xmlns="http://www.w3.org/2000/svg" viewBox="0 0 60 39">
  <defs>
    <style>
      .cls-1 {
        fill: #8782bd;
      }

      .cls-2 {
        fill: rgba(4, 5, 5, .7);
      }
    </style>
  </defs>
  <path class="cls-1" d="M56.09,39H4.29c-2.38,0-4.31-2.11-4.31-4.7V4.7C-.02,2.11,1.91,0,4.29,0H43.58C51.35,0,59.98,28.2,59.98,34.3v.47c0,2.6-1.5,4.23-3.89,4.23Z"/>
  <path id="Tåg" class="cls-2" d="M34.57,31.85h-.25c-.54,.06-1.1,.11-1.65,.13h-8.7c-.55-.02-1.11-.07-1.65-.13h-.27l.02-.03c-1.27-.16-2.44-.44-3.29-.81-.09,.08-.18,.16-.25,.25l-2.05,2.61c-.29,.38-.21,.68,.19,.68h2.78c.4,0,.71-.3,1-.68l.15-.18h15.4l.15,.18c.29,.38,.6,.68,1,.68h2.78c.4,0,.48-.31,.19-.68l-2.05-2.61c-.07-.09-.15-.17-.24-.24-.86,.38-2.03,.65-3.29,.81l.02,.03h0Zm3.51-19.58c-.03-.64-.15-3.21-2.14-4.51-1.03-.68-2.01-.71-4.02-.79h-.25c-.52-1.41-1.84-2.42-3.39-2.42s-2.87,1.01-3.39,2.42h-.18c-2.01,.08-2.99,.12-4.02,.79-1.99,1.3-2.11,3.88-2.14,4.52-.03,.65-1.21,14.08-1.21,14.08,.08,.69,.23,2.24,2.08,3.44,1.04,.67,3.07,1.05,5.08,1.13h7.63c2-.08,4.04-.46,5.08-1.13,1.85-1.19,2-2.74,2.08-3.44,0,0-1.18-13.44-1.21-14.08h0Zm-9.8-5.89c1.01,0,1.83,.84,1.83,1.89s-.82,1.89-1.83,1.89-1.83-.84-1.83-1.89,.82-1.89,1.83-1.89Zm-7.37,21.51c-1.01,0-1.83-.84-1.83-1.89s.82-1.89,1.83-1.89,1.83,.84,1.83,1.89-.82,1.89-1.83,1.89Zm12.84-12.44c0,.37-.64,4.84-.64,4.84-.05,.4-.12,1.18-1.19,1.86-.6,.39-1.71,.53-2.86,.58h-1.57c-1.15-.05-2.26-.2-2.86-.58-1.07-.69-1.15-1.46-1.2-1.86,0,0-.64-4.47-.64-4.84,0-.37-.33-1.77,.94-2.6,.6-.38,1.16-.41,2.32-.45h4.44c1.16,.05,1.71,.08,2.32,.45,1.27,.83,.95,2.23,.94,2.6Zm1.84,12.44c-1.01,0-1.83-.84-1.83-1.89s.82-1.89,1.83-1.89,1.83,.84,1.83,1.89-.82,1.89-1.83,1.89Z"/>
</svg>