<?xml version="1.0" encoding="utf-8"?>
<!-- Generator: Adobe Illustrator 26.5.0, SVG Export Plug-In . SVG Version: 6.00 Build 0)  -->
<svg version="1.1" id="Layer_1" xmlns="http://www.w3.org/2000/svg" xmlns:xlink="http://www.w3.org/1999/xlink" x="0px" y="0px"
	 viewBox="0 0 60 39" style="enable-background:new 0 0 60 39;" xml:space="preserve">
<style type="text/css">
	.st0{fill:#2986CC;}
</style>
<path class="st0" d="M56.1,39H4.3C1.9,39,0,36.9,0,34.3V4.7C0,2.1,1.9,0,4.3,0h39.3C51.4,0,60,28.2,60,34.3v0.5
	C60,37.4,58.5,39,56.1,39z"/>
<path id="Tåg" d="M34.6,31.9h-0.2c-0.5,0.1-1.1,0.1-1.7,0.1H24c-0.5,0-1.1-0.1-1.6-0.1H22l0,0c-1.3-0.2-2.4-0.4-3.3-0.8
	c-0.1,0.1-0.2,0.2-0.2,0.2l-2,2.6c-0.3,0.4-0.2,0.7,0.2,0.7h2.8c0.4,0,0.7-0.3,1-0.7l0.1-0.2H36l0.2,0.2c0.3,0.4,0.6,0.7,1,0.7h2.8
	c0.4,0,0.5-0.3,0.2-0.7l-2-2.6c-0.1-0.1-0.2-0.2-0.2-0.2C37,31.4,35.8,31.7,34.6,31.9L34.6,31.9L34.6,31.9L34.6,31.9z M38.1,12.3
	c0-0.6-0.2-3.2-2.1-4.5c-1-0.7-2-0.7-4-0.8h-0.2c-0.5-1.4-1.8-2.4-3.4-2.4s-2.9,1-3.4,2.4h-0.2c-2,0.1-3,0.1-4,0.8
	c-2,1.3-2.1,3.9-2.1,4.5c0,0.6-1.2,14.1-1.2,14.1c0.1,0.7,0.2,2.2,2.1,3.4c1,0.7,3.1,1,5.1,1.1h7.6c2-0.1,4-0.5,5.1-1.1
	c1.8-1.2,2-2.7,2.1-3.4C39.3,26.4,38.1,12.9,38.1,12.3L38.1,12.3L38.1,12.3z M28.3,6.4c1,0,1.8,0.8,1.8,1.9s-0.8,1.9-1.8,1.9
	s-1.8-0.8-1.8-1.9S27.3,6.4,28.3,6.4z M20.9,27.9c-1,0-1.8-0.8-1.8-1.9s0.8-1.9,1.8-1.9s1.8,0.8,1.8,1.9S21.9,27.9,20.9,27.9z
	 M33.8,15.5c0,0.4-0.6,4.8-0.6,4.8c0,0.4-0.1,1.2-1.2,1.9c-0.6,0.4-1.7,0.5-2.9,0.6h-1.6c-1.1,0-2.3-0.2-2.9-0.6
	c-1.1-0.7-1.1-1.5-1.2-1.9c0,0-0.6-4.5-0.6-4.8c0-0.4-0.3-1.8,0.9-2.6c0.6-0.4,1.2-0.4,2.3-0.4h4.4c1.2,0.1,1.7,0.1,2.3,0.4
	C34.1,13.7,33.8,15.1,33.8,15.5z M35.6,27.9c-1,0-1.8-0.8-1.8-1.9s0.8-1.9,1.8-1.9s1.8,0.8,1.8,1.9S36.6,27.9,35.6,27.9z"/>
</svg>
