<?xml version="1.0" encoding="utf-8"?>
<!-- Generator: Adobe Illustrator 25.2.0, SVG Export Plug-In . SVG Version: 6.00 Build 0)  -->
<svg version="1.1" id="Lager_1" xmlns="http://www.w3.org/2000/svg" xmlns:xlink="http://www.w3.org/1999/xlink" x="0px" y="0px"
	 viewBox="0 0 1080 1920" style="enable-background:new 0 0 1080 1920;" xml:space="preserve">
<style type="text/css">
	.st0{fill:#05053A;}
	.st1{fill:url(#SVGID_1_);}
	.st2{fill:url(#SVGID_2_);}
	.st3{fill:url(#SVGID_3_);}
	.st4{fill:none;stroke:url(#SVGID_4_);stroke-width:4;stroke-miterlimit:10;}
	.st5{fill:url(#SVGID_5_);stroke:url(#SVGID_6_);stroke-width:4;stroke-miterlimit:10;}
	.st6{fill:url(#SVGID_7_);}
	.st7{fill:url(#SVGID_8_);}
	.st8{fill:url(#SVGID_9_);}
	.st9{fill:url(#SVGID_10_);}
	.st10{fill:url(#SVGID_11_);}
	.st11{fill:#C0068D;}
	.st12{fill:url(#SVGID_12_);}
	.st13{fill:url(#SVGID_13_);}
	.st14{fill:url(#SVGID_14_);}
	.st15{fill:url(#SVGID_15_);}
	.st16{fill:url(#SVGID_16_);}
	.st17{fill:url(#SVGID_17_);}
	.st18{fill:url(#SVGID_18_);}
	.st19{fill:url(#SVGID_19_);}
	.st20{fill:url(#SVGID_20_);}
	.st21{fill:url(#SVGID_21_);}
	.st22{fill:url(#SVGID_22_);}
	.st23{fill:url(#SVGID_23_);}
	.st24{fill:url(#SVGID_24_);}
	.st25{fill:url(#SVGID_25_);}
	.st26{opacity:0.37;stroke:#000000;stroke-width:3;stroke-miterlimit:10;}
	.st27{fill-rule:evenodd;clip-rule:evenodd;fill:#FFFFFF;}
	.st28{fill:#FFFFFF;}
	.st29{fill:none;}
	.st30{opacity:0.37;}
</style>
<g id="Lager_1_00000119116452516590321230000005118327476739384204_">
	<g id="Lager_20">
		<rect x="0" class="st0" width="1080" height="1920"/>
	</g>
	<g>
		<g id="Lager_19">
			
				<linearGradient id="SVGID_1_" gradientUnits="userSpaceOnUse" x1="677.561" y1="2339.9119" x2="705.8536" y2="2339.9119" gradientTransform="matrix(1 0 0 -1 0 3550)">
				<stop  offset="0.11" style="stop-color:#C0068D"/>
				<stop  offset="0.81" style="stop-color:#1A002F"/>
				<stop  offset="0.91" style="stop-color:#1C0031"/>
				<stop  offset="1" style="stop-color:#1C0030"/>
			</linearGradient>
			<ellipse class="st1" cx="691.7" cy="1210.1" rx="14.1" ry="14.4"/>
		</g>
		<g id="Lager_18">
			
				<linearGradient id="SVGID_2_" gradientUnits="userSpaceOnUse" x1="481.4634" y1="2212.3767" x2="535.1219" y2="2212.3767" gradientTransform="matrix(1 0 0 -1 0 3550)">
				<stop  offset="0.11" style="stop-color:#C0068D"/>
				<stop  offset="0.81" style="stop-color:#1A002F"/>
				<stop  offset="0.91" style="stop-color:#1C0031"/>
				<stop  offset="1" style="stop-color:#1C0030"/>
			</linearGradient>
			<ellipse class="st2" cx="508.3" cy="1337.6" rx="26.8" ry="27.4"/>
		</g>
		<g id="Lager_17">
			
				<linearGradient id="SVGID_3_" gradientUnits="userSpaceOnUse" x1="386.2344" y1="2361.1084" x2="457.19" y2="2361.1084" gradientTransform="matrix(1 0 0 -1 0 3550)">
				<stop  offset="0.11" style="stop-color:#C0068D"/>
				<stop  offset="0.81" style="stop-color:#1A002F"/>
				<stop  offset="0.91" style="stop-color:#1C0031"/>
				<stop  offset="1" style="stop-color:#1C0030"/>
			</linearGradient>
			<path class="st3" d="M394.6,1140.8c-8.7,7.2-10.6,23.6-5.9,34.9c3.3,7.9,9.9,13.2,14.6,16.9c9.7,7.8,13.1,5.8,16.6,11
				c7.3,10.8-4.4,23.6,2,31.9c6,7.8,25,7.9,32.2-2c6.9-9.6,0-24.7-1-26.9c-3.4-7.4-6.4-7.3-7.8-13c-2.7-11,7.2-16.9,6.8-25.9
				C451.5,1150.1,411.4,1127.1,394.6,1140.8z"/>
		</g>
		<g id="Lager_15">
			
				<linearGradient id="SVGID_4_" gradientUnits="userSpaceOnUse" x1="435.561" y1="2219.8496" x2="541.0244" y2="2219.8496" gradientTransform="matrix(1 0 0 -1 0 3550)">
				<stop  offset="0.11" style="stop-color:#C0068D"/>
				<stop  offset="0.81" style="stop-color:#1A002F"/>
				<stop  offset="0.91" style="stop-color:#1C0031"/>
				<stop  offset="1" style="stop-color:#1C0030"/>
			</linearGradient>
			<ellipse class="st4" cx="488.3" cy="1330.2" rx="50.7" ry="51.8"/>
		</g>
		<g id="Lager_16">
			
				<linearGradient id="SVGID_5_" gradientUnits="userSpaceOnUse" x1="551.5725" y1="2171.9529" x2="630.3368" y2="2171.9529" gradientTransform="matrix(1 0 0 -1 0 3550)">
				<stop  offset="0.11" style="stop-color:#C0068D"/>
				<stop  offset="0.81" style="stop-color:#1A002F"/>
				<stop  offset="0.91" style="stop-color:#1C0031"/>
				<stop  offset="1" style="stop-color:#1C0030"/>
			</linearGradient>
			
				<linearGradient id="SVGID_6_" gradientUnits="userSpaceOnUse" x1="549.5725" y1="2171.9529" x2="632.3368" y2="2171.9529" gradientTransform="matrix(1 0 0 -1 0 3550)">
				<stop  offset="0.11" style="stop-color:#C0068D"/>
				<stop  offset="0.81" style="stop-color:#1A002F"/>
				<stop  offset="0.91" style="stop-color:#1C0031"/>
				<stop  offset="1" style="stop-color:#1C0030"/>
			</linearGradient>
			<path class="st5" d="M562.4,1322.2c-5.3,10,1.5,23.9,2.9,26.9c4,8.2,7.8,9,9.8,16.9c0.5,1.9,2.9,11.6-2,18.9
				c-4.4,6.8-10.5,4.8-15.6,10c-8.9,9.1-8.4,33.1,4.9,43.8c9.2,7.4,25,9,34.1,3c2.7-1.8,6-5,9.8-4c3.8,1,3.9,5.3,7.8,7
				c4.8,2.1,13.3-0.5,15.6-7s-2.8-13.6-7.8-15.9c-5.6-2.7-10,0.9-12.7-2c-3.1-3.5,2.6-9.9,0-15.9c-2.9-7-12.7-3.8-17.6-10
				c-6-7.7,3-19.7,7.8-47.8c2.8-16.6,4.2-25.6-1-30.9C590.4,1306.9,568.8,1310.3,562.4,1322.2z"/>
		</g>
		<g id="Lager_13">
			
				<linearGradient id="SVGID_7_" gradientUnits="userSpaceOnUse" x1="659.5024" y1="2165.28" x2="703.0049" y2="2165.28" gradientTransform="matrix(1 0 0 -1 0 3550)">
				<stop  offset="0" style="stop-color:#C0068D"/>
				<stop  offset="1" style="stop-color:#1A002D"/>
			</linearGradient>
			<path class="st6" d="M672.2,1290.9c10,9.7,20.3,19.8,25.6,33c2.5,6.3,3.8,13.1,3.1,19.8c-0.7,6.8-3.3,13.6-6.6,19.6
				c-6.7,12.3-16.5,22.5-23.2,34.8c-6.3,11.6-10,24.4-11.6,37.5c-1.8,14.7-0.7,29.8,2.3,44.4c0.4,1.9,3.2,1.1,2.8-0.8
				c-5.4-25.9-4.3-54.4,8.2-78.1c6.6-12.6,16.4-22.8,23.4-35.1c3.4-6,6.1-12.5,7.3-19.3c1.2-6.9,0.5-13.7-1.7-20.3
				c-5-15.2-16.4-26.7-27.5-37.6C672.9,1287.4,670.8,1289.6,672.2,1290.9L672.2,1290.9L672.2,1290.9z"/>
			
				<linearGradient id="SVGID_8_" gradientUnits="userSpaceOnUse" x1="608.1561" y1="2315.8364" x2="651.6878" y2="2315.8364" gradientTransform="matrix(1 0 0 -1 0 3550)">
				<stop  offset="0" style="stop-color:#C0068D"/>
				<stop  offset="1" style="stop-color:#1A002D"/>
			</linearGradient>
			<path class="st7" d="M651.2,1208.8c-7.5,2-13.7,7.2-18.7,13.1c-5.7,6.7-10.4,14.1-15.3,21.3c-3.2,4.8-6.5,9.6-9.8,14.2
				c-1.1,1.6,1.5,3.1,2.5,1.5c5.6-8.1,11-16.1,16.6-24.2c4.3-6.3,8.8-12.6,14.7-17.4c3.2-2.6,6.8-4.6,10.8-5.7
				C653.8,1211.2,653,1208.3,651.2,1208.8L651.2,1208.8L651.2,1208.8z"/>
			
				<linearGradient id="SVGID_9_" gradientUnits="userSpaceOnUse" x1="575.1122" y1="2843.1526" x2="720.361" y2="2843.1526" gradientTransform="matrix(1 0 0 -1 0 3550)">
				<stop  offset="0" style="stop-color:#C0068D"/>
				<stop  offset="1" style="stop-color:#1A002D"/>
			</linearGradient>
			<path class="st8" d="M589.6,663.1c-7.9-8.7-12.4-20.2-12.5-32.1c-0.1-11.9,4.2-22.6,11.5-31.2c3.6-4.2,7.8-7.6,12.6-10.3
				c4.8-2.7,9.7-4.7,14.3-7.2c4.7-2.5,9-5.3,12.3-9.3c3-3.6,5-8,6.2-12.6c2.5-9.4,2.3-19.4,5.8-28.6c1.6-4.2,4.3-8.3,8.1-10.7
				c3.8-2.4,8.3-2.8,12.5-2s8.1,2.9,10.9,6.1c3.7,4.2,4.7,10.2,3.9,15.7c-1.9,12.8-10.9,22.6-15.1,34.6c-7.6,21.4,8.4,39.4,13.8,59
				c1.3,4.8,2,9.8,1.2,14.6c-0.9,5.3-3.2,10.1-5.9,14.6c-5.3,9.1-11.9,18.2-11.2,29.3c0.7,12,8.4,21.9,15.6,30.7
				c7.5,9.1,16.5,19.6,16.3,32.2c-0.2,11.3-8.7,19.9-11.7,30.4c-3.4,11.7,2.6,22.2,10.9,29.9c4.8,4.4,10.1,8.1,14.9,12.6
				c4,3.7,7.4,8.1,10,13c5,9.5,6.6,21.5-0.8,30.2c-7.4,8.7-19.4,11.3-29.9,13.7c-13.6,3.2-27.2,5.7-41.1,7.2
				c-6.6,0.7-13.4,1.3-20.1,1.6c-1.9,0.1-1.9,3.1,0,3c14.1-0.7,28.2-2.3,42.1-4.8c7.1-1.3,14.1-2.7,21.2-4.4
				c5.7-1.4,11.3-2.8,16.7-5.1c9.8-4.2,18-11.8,18.9-23.1c1-11-4.6-21.8-11.6-29.8c-8.4-9.5-20.9-15.1-26.9-26.8
				c-2.8-5.5-3.2-11.5-1.3-17.3c1.8-5.4,4.9-10.2,7.3-15.1c2.4-5,4.4-10.5,4.2-16.2c-0.2-6.1-2.4-12-5.4-17.1
				c-6.2-11-15.9-19.3-22-30.3c-3-5.5-5.1-11.5-4.5-17.8c0.5-5.7,2.9-10.9,5.7-15.6c5.3-9.3,11.7-18.1,11.7-29.4
				c0-10.6-4.8-20.3-9.1-29.7c-4.3-9.5-9-19.5-8.1-30.2c1.2-13.2,10.8-23.4,15.1-35.4c3.7-10.4,3.2-22.5-6.4-29.3
				c-7-4.9-17.4-5.7-24.5-0.5c-8,5.9-10,16.1-11.3,25.5c-1.5,10.1-2.6,20.9-10.3,28.2c-7.7,7.3-19.4,10.2-28.3,16.4
				s-15.9,16-19.2,26.9c-3.3,10.9-2.4,23.4,2,34.2c2.2,5.3,5.4,10.2,9.3,14.3C588.8,666.7,590.8,664.5,589.6,663.1L589.6,663.1
				L589.6,663.1z"/>
		</g>
		<g id="Lager_14">
			
				<linearGradient id="SVGID_10_" gradientUnits="userSpaceOnUse" x1="670.0287" y1="2533.9136" x2="755.8865" y2="2533.9136" gradientTransform="matrix(1 0 0 -1 0 3550)">
				<stop  offset="0.11" style="stop-color:#C0068D"/>
				<stop  offset="0.99" style="stop-color:#05053A"/>
			</linearGradient>
			<path class="st9" d="M736.1,971.5c-11.2-1.1-23.4,6-23.4,6l0,0c0,0-9.2-2.7-14.6-3c-6.8-0.4-17.4,2.3-23.4,11
				c-7,10.1-5.5,24.4,1,31.9c5,5.8,9,3,15.6,9c9.8,8.8,5,18.2,13.7,26.9c6.5,6.5,18,10,28.3,6c9.3-3.6,16.5-13.1,16.6-21.9
				c0.1-6.8-3.9-7.5-3.9-14.9c0-8,4.6-9.3,7.8-20.9c1.9-6.7,3.4-12.4,1-17.9C751.4,975.9,742.6,972.2,736.1,971.5z"/>
			
				<linearGradient id="SVGID_11_" gradientUnits="userSpaceOnUse" x1="712.4878" y1="2615.9055" x2="769.9512" y2="2615.9055" gradientTransform="matrix(1 0 0 -1 0 3550)">
				<stop  offset="0.33" style="stop-color:#A2057C"/>
				<stop  offset="1" style="stop-color:#7C056C"/>
			</linearGradient>
			<ellipse class="st10" cx="741.3" cy="934.1" rx="28.8" ry="29.4"/>
		</g>
		<g id="Lager_12">
			<path class="st11" d="M338.1,1103.3c-9.2,19.9-13.7,42.6-9.3,64.4c3.7,18.2,14.4,35.1,29.9,45c7.8,5.1,16.5,7.9,25.7,8.8
				c10.7,0.9,21.8-0.4,32.2,2.7c15.9,4.8,23.7,20.5,32,33.8c4,6.5,8.4,13,14.2,17.8c6.6,5.6,14.4,8.1,22.9,8.9
				c9.1,0.9,18.6,0.2,27.3,3.3c4.2,1.5,8,4.1,10.7,7.8c2.7,3.7,4.5,8.2,5.4,12.7c2.3,11,0.2,22.1-0.5,33.2
				c-0.6,10.3,0.7,20.1,5.5,29.3c8.3,15.8,24.9,27,42.6,26.9c17.6-0.1,35-10.5,43.3-26.4s6.7-36.3-3-51.2c-2.4-3.7-5.3-7-8.5-9.9
				c-1.5-1.2-3.5,0.9-2,2.1c13.2,11.5,18.9,30.7,14.7,47.8c-4.2,17.1-19.3,30.3-36.3,33.7c-17.4,3.4-34.9-4.8-45.1-19.3
				c-5.3-7.6-8.2-16.4-8.5-25.7c-0.3-11.4,2.3-22.6,1.6-33.9c-0.6-9-3.2-18.4-10-24.5c-6.8-6.1-15.8-7.4-24.5-8s-18.1-0.2-26.3-4.1
				c-6.5-3.1-11.7-8.4-16-14.2c-8.9-12.2-14.8-27.1-26.8-36.6c-7.4-5.9-16.4-7.9-25.7-8.4c-10.1-0.6-20.5,0.2-30.3-2.8
				c-16.9-5.2-30.2-19-37.3-35.2c-8.5-19.3-7.4-41.7-1.3-61.6c1.6-5.1,3.5-10.1,5.8-14.8C341.5,1103,338.9,1101.5,338.1,1103.3
				L338.1,1103.3L338.1,1103.3z"/>
			
				<linearGradient id="SVGID_12_" gradientUnits="userSpaceOnUse" x1="449.7268" y1="2763.0498" x2="474.1268" y2="2763.0498" gradientTransform="matrix(1 0 0 -1 0 3550)">
				<stop  offset="0.11" style="stop-color:#C0068D"/>
				<stop  offset="0.81" style="stop-color:#1A002F"/>
				<stop  offset="0.91" style="stop-color:#1C0031"/>
				<stop  offset="1" style="stop-color:#1C0030"/>
			</linearGradient>
			<path class="st12" d="M473.2,772c-5.9,3.3-13.1,2.6-18.4,7.1c-6.1,5.3-6.1,14.1-5.9,21.6c0.1,1.9,3,1.9,2.9,0
				c-0.3-6.8-0.6-15.5,5.6-19.9c5.1-3.6,11.8-3.2,17.3-6.2C476.3,773.7,474.8,771.1,473.2,772L473.2,772L473.2,772z"/>
			
				<linearGradient id="SVGID_13_" gradientUnits="userSpaceOnUse" x1="418.6049" y1="2658.896" x2="438.8098" y2="2658.896" gradientTransform="matrix(1 0 0 -1 0 3550)">
				<stop  offset="0.11" style="stop-color:#C0068D"/>
				<stop  offset="0.81" style="stop-color:#1A002F"/>
				<stop  offset="0.91" style="stop-color:#1C0031"/>
				<stop  offset="1" style="stop-color:#1C0030"/>
			</linearGradient>
			<path class="st13" d="M437.8,862.7c-12.8,9.8-20.5,25.3-20.1,41.6c0.1,5,0.9,9.9,2.3,14.5c0.6,1.8,3.4,1,2.8-0.8
				c-4.7-15-1.9-31.9,7.8-44.2c2.5-3.2,5.4-6.1,8.6-8.6C440.8,864,439.3,861.5,437.8,862.7L437.8,862.7L437.8,862.7z"/>
		</g>
		<g id="Lager_11">
			
				<linearGradient id="SVGID_14_" gradientUnits="userSpaceOnUse" x1="346.2863" y1="2536.7043" x2="510.5817" y2="2536.7043" gradientTransform="matrix(1 0 0 -1 0 3550)">
				<stop  offset="0.11" style="stop-color:#C0068D"/>
				<stop  offset="0.81" style="stop-color:#1A002F"/>
				<stop  offset="0.91" style="stop-color:#1C0031"/>
				<stop  offset="1" style="stop-color:#1C0030"/>
			</linearGradient>
			<path class="st14" d="M464.9,928.6c9.3,13.4,7.7,29,6.8,37.9c-1.8,17.6-7.9,18.4-7.8,28.9c0.3,23.7,32,28,42.9,56.8
				c7.7,20.2,3.4,48.1-11.7,60.8c-27.6,23.1-89.5-5.7-95.6-35.9c-3.7-18.3,15-28,8.8-50.8c-4-14.4-18-34.4-20.5-37.9
				c-3.5-5.1-6.4-8.5-8.8-14.9c-4.2-11.5-1.1-17-5.9-21.9c-5.4-5.5-11.6-0.7-18.5-6c-7.5-5.7-11.1-19.4-5.9-25.9
				c5.4-6.7,19.8-5.4,27.3,1c4.6,3.9,6,9.4,13.7,13c1.4,0.6,5.3,2.5,6.8,1c1.6-1.5-0.8-4.9-1-9c-0.4-7.9,7.3-15.9,14.6-18.9
				c7.4-3.1,14-0.8,24.4,3C447.2,914.3,457.6,918,464.9,928.6z"/>
		</g>
		<g id="Lager_10">
			
				<radialGradient id="SVGID_15_" cx="676.6111" cy="2015.7778" r="63" gradientTransform="matrix(0.9756 0 0 -0.9964 -0.5962 3536.3848)" gradientUnits="userSpaceOnUse">
				<stop  offset="0.77" style="stop-color:#A2057C"/>
				<stop  offset="1" style="stop-color:#05053A"/>
			</radialGradient>
			<ellipse class="st15" cx="659.5" cy="1527.9" rx="61.5" ry="62.8"/>
			
				<linearGradient id="SVGID_16_" gradientUnits="userSpaceOnUse" x1="680.4878" y1="1979.725" x2="887.3171" y2="1979.725" gradientTransform="matrix(1 0 0 -1 0 3550)">
				<stop  offset="0.33" style="stop-color:#A2057C"/>
				<stop  offset="1" style="stop-color:#7C056C"/>
			</linearGradient>
			<ellipse class="st16" cx="783.9" cy="1570.3" rx="103.4" ry="105.6"/>
			
				<linearGradient id="SVGID_17_" gradientUnits="userSpaceOnUse" x1="192.6829" y1="2275.1479" x2="318.5366" y2="2275.1479" gradientTransform="matrix(1 0 0 -1 0 3550)">
				<stop  offset="0.33" style="stop-color:#A2057C"/>
				<stop  offset="1" style="stop-color:#7C056C"/>
			</linearGradient>
			<ellipse class="st17" cx="255.6" cy="1274.9" rx="62.9" ry="64.3"/>
		</g>
		<g id="Lager_9">
			
				<linearGradient id="SVGID_18_" gradientUnits="userSpaceOnUse" x1="602.8998" y1="2337.8201" x2="691.4659" y2="2337.8201" gradientTransform="matrix(1 0 0 -1 0 3550)">
				<stop  offset="0.11" style="stop-color:#C0068D"/>
				<stop  offset="0.81" style="stop-color:#1A002F"/>
				<stop  offset="0.91" style="stop-color:#1C0031"/>
				<stop  offset="1" style="stop-color:#1C0030"/>
			</linearGradient>
			<path class="st18" d="M672.7,1194.6c-4.4,11.1-6.5,13.6-4.9,20.9c0.9,3.8,0.4,7,4.9,12c17.6,19.7,12.7,15.7,15.6,19.9
				c8,11.4-0.2,34.3-12.7,41.1c-10.5,5.8-21.5,8.8-43.9-5c-15-9.2-25.8,4.2-28.3,0c-2.2-3.8,2.5-10.3,20.5-35
				c15.8-21.6,23.7-32.7,23.4-39c-0.7-15.6-17.4-17.6-21.5-37c-3.3-15.7,3-36.8,15.6-41c14.9-4.9,39.2,18,40,34.9
				C681.7,1172,678.7,1179.6,672.7,1194.6L672.7,1194.6z"/>
		</g>
		<g id="Lager_2_00000093892029034813970130000001682777900008906173_">
			
				<linearGradient id="SVGID_19_" gradientUnits="userSpaceOnUse" x1="614.1464" y1="2924.7795" x2="658.0488" y2="2924.7795" gradientTransform="matrix(1 0 0 -1 0 3550)">
				<stop  offset="0.11" style="stop-color:#C0068D"/>
				<stop  offset="0.81" style="stop-color:#1A002F"/>
				<stop  offset="0.91" style="stop-color:#1C0031"/>
				<stop  offset="1" style="stop-color:#1C0030"/>
			</linearGradient>
			<ellipse class="st19" cx="636.1" cy="625.2" rx="22" ry="22.4"/>
			
				<linearGradient id="SVGID_20_" gradientUnits="userSpaceOnUse" x1="521.4634" y1="3083.2019" x2="647.3171" y2="3083.2019" gradientTransform="matrix(1 0 0 -1 0 3550)">
				<stop  offset="0.33" style="stop-color:#A2057C"/>
				<stop  offset="1" style="stop-color:#7C056C"/>
			</linearGradient>
			<ellipse class="st20" cx="584.4" cy="466.8" rx="62.9" ry="64.3"/>
			
				<linearGradient id="SVGID_21_" gradientUnits="userSpaceOnUse" x1="283.4146" y1="3104.6238" x2="490.2439" y2="3104.6238" gradientTransform="matrix(1 0 0 -1 0 3550)">
				<stop  offset="0.33" style="stop-color:#A2057C"/>
				<stop  offset="1" style="stop-color:#7C056C"/>
			</linearGradient>
			<ellipse class="st21" cx="386.8" cy="445.4" rx="103.4" ry="105.6"/>
			
				<linearGradient id="SVGID_22_" gradientUnits="userSpaceOnUse" x1="691.2195" y1="2868.9829" x2="801.4634" y2="2868.9829" gradientTransform="matrix(1 0 0 -1 0 3550)">
				<stop  offset="0.33" style="stop-color:#A2057C"/>
				<stop  offset="1" style="stop-color:#7C056C"/>
			</linearGradient>
			<ellipse class="st22" cx="746.3" cy="681" rx="55.1" ry="56.3"/>
		</g>
		<g id="Lager_4">
			
				<linearGradient id="SVGID_23_" gradientUnits="userSpaceOnUse" x1="436.8839" y1="2669.5488" x2="675.871" y2="2669.5488" gradientTransform="matrix(1 0 0 -1 0 3550)">
				<stop  offset="0" style="stop-color:#C0068D"/>
				<stop  offset="1" style="stop-color:#05053A"/>
			</linearGradient>
			<path class="st23" d="M585.9,659.6c-17.3,7-21.6,26-22.4,29.9c-1.1,4.8-0.4,5.5-1,13c-0.4,5.5-2.2,29.4-12.7,43.8
				c-8.4,11.7-16.7,9.4-32.2,18.9c-22.3,13.8-37.4,38.9-42,59.8c-5.3,24,6.8,26.4,11.7,74.7c3.1,30.8,5.4,53.1-6.8,73.7
				c-10.8,18.3-20.9,14.8-32.2,34.9c-3,5.3-20,35.2-5.9,63.8c11.4,23,35,29.2,38,29.9c16.9,4.1,38.1,1.1,50.7-12
				c10.3-10.8,6.8-20,19.5-30.9c2.6-2.2,16-13.7,28.3-10c10.4,3.2,8.9,14.1,24.4,29.9c6.6,6.7,14.4,14.6,26.3,16.9
				c11.2,2.2,27.8-0.4,38-13.9c9.6-12.7,10.7-31.3,2.9-41.8c-6.1-8.3-13.8-6.1-43.9-20.9c-10.3-5.1-12.4-6.8-13.7-8
				c-10.7-9.9-15.4-26.6-13.7-40.9c1.4-11.5,12.3-25.4,34.1-52.8c13.8-17.3,16.6-19.5,20.5-27.9c8.7-18.6,8.1-36.1,7.8-43.8
				c-0.3-7.6-2.8-48.7-30.2-71.7c-6-5.1-10.2-6.8-12.7-13c-4.9-12.5,3.2-29.3,9.8-42.8c3.4-7.1,3.8-6.6,4.9-10
				c3.3-10.8,3-28.7-9.8-40.9C614,658.2,599,654.3,585.9,659.6z"/>
		</g>
		<g id="Lager_6">
			
				<linearGradient id="SVGID_24_" gradientUnits="userSpaceOnUse" x1="334.4489" y1="2529.1387" x2="674.5402" y2="2529.1387" gradientTransform="matrix(1 0 0 -1 0 3550)">
				<stop  offset="6.000000e-02" style="stop-color:#C0068D"/>
				<stop  offset="0.32" style="stop-color:#C0068D"/>
				<stop  offset="0.99" style="stop-color:#1C0030"/>
			</linearGradient>
			<path class="st24" d="M486.3,708.4c-14.4,0.8-24.3,18.2-22.4,29.9c1,6,4.2,5.9,6.8,13c5.1,13.7-1.2,31-10.7,40.9
				c-7.1,7.4-10.3,4.6-17.6,11c-13.7,12.1-19.4,37.6-11.7,55.8c6.9,16.5,18.9,13.1,34.1,33.9c4.1,5.6,15.7,21.5,16.6,43.8
				c1,25.2-12.4,50.1-31.2,62.8c-12.5,8.4-27.4,11.4-40,13.9c-12.1,2.5-14.4,1.5-21.5,3c-19,4.2-40.8,20-49.8,42.8
				c-14.9,38,9.3,84.4,35.1,92.7c11.4,3.6,20-1.2,42,6c9,2.9,16.7,5.4,24.4,12c15.7,13.3,9.7,24.7,23.4,35.9
				c14.6,11.9,36.4,11.2,41,11c11.6-0.4,13.6-3.4,19.5-1c13.1,5.3,18.8,26.1,18.5,41.8c-0.3,15.3-6.1,16.2-5.9,28.9
				c0.4,14.9,9.3,35.8,29.3,43.8c17.7,7.1,38.3,1.9,49.8-11c10-11.2,10.3-25.2,10.7-38.9c0.8-25.1-7.3-27.3-7.8-46.8
				c-0.8-36.1,25.9-74.7,42.9-92.7c3.3-3.5,8.1-8.1,10.7-15.9c4.1-12.1,1.7-26.8-9.8-46.8c-25.9-45.6-53.3-40.2-61.5-68.7
				c-7.8-27.5,15.5-39.9,4.9-76.7c-1.2-4.1-8.1-28.3-22.4-30.9c-6.5-1.2-8.8,3.2-17.6,3c-11.7-0.2-24.9-8.3-29.3-18.9
				c-6-14.2,8.5-21.2,7.8-40.9c-0.8-22.2-19.7-22.2-34.1-59.8c-6.6-17.2-12-31.3-6.8-45.8c2.1-6.1,5.6-10.8,3.9-16.9
				C505.6,714.2,495.6,707.9,486.3,708.4z"/>
		</g>
		<g id="Lager_3">
			
				<linearGradient id="SVGID_25_" gradientUnits="userSpaceOnUse" x1="501.1187" y1="2332.2766" x2="603.8131" y2="2332.2766" gradientTransform="matrix(1 0 0 -1 0 3550)">
				<stop  offset="0.11" style="stop-color:#C0068D"/>
				<stop  offset="1" style="stop-color:#05053A"/>
			</linearGradient>
			<path class="st25" d="M571.2,1154.8c-11.2,1.2-16.6,5.4-19.5,9c-5.4,6.7-2.7,12.4-8.8,18.9c-3.3,3.7-5.3,3.1-17.6,9
				c-10.1,4.9-15.2,7.3-17.6,10c-7.7,8.7-9.3,25.9-2,34.9c6.8,8.4,16.2,3,26.3,13c6.6,6.6,4.2,10.4,10.7,17.9
				c1.5,1.7,15,16.8,33.2,13c13.5-2.9,24.5-15.1,25.4-26.9c0.8-10.8-7.6-13.6-7.8-29.9c-0.1-8.4,2-15.9,2.9-18.9
				c3.1-9.9,5.7-9.9,6.8-15.9c2-10.6-3.3-24.6-14.6-30.9C581.8,1153.9,574.7,1154.3,571.2,1154.8z"/>
		</g>
	</g>
</g>
<rect x="0" class="st26" width="1080" height="277"/>
<g>
	<rect x="2" y="1713.5" class="st26" width="1078" height="206.5"/>
	<g id="LOGO">
		<polyline id="Fill-1" class="st27" points="153.7,157 153.7,123.8 143.3,123.8 143.3,115.7 172.2,115.7 172.2,123.8 161.9,123.8 
			161.9,157 153.7,157 		"/>
		<polyline id="Fill-2" class="st27" points="112.3,154 104.1,154 104.1,113.6 106.3,113.6 126.8,136.8 126.8,114.5 135.1,114.5 
			135.1,154.9 132.9,154.9 112.3,132.5 112.3,154 		"/>
		<polygon id="Fill-3" class="st27" points="180.5,157 188.7,157 188.7,115.7 180.5,115.7 		"/>
		<path id="Fill-13" class="st27" d="M116.5,96.9v-8.1H73.1v45.4c0,30.9,15.5,40.8,40.9,54.4l2.5,1.3v-9.2l-0.3-0.2
			c-23-12.4-35-20.1-35-46.4V96.9H116.5"/>
		<g>
			<path class="st28" d="M153.8,162.1l-0.5,4H147v23.5h-3.9v-23.5h-6.8l0.4-4H153.8z"/>
			<path class="st28" d="M171.1,162.1l-0.5,3.9h-9.9v7.6h9.3l-0.5,3.9h-8.9v8.2h10.3l-0.5,3.9H157v-27.5H171.1L171.1,162.1z"/>
			<path class="st28" d="M177.8,180.6h5.6v-6.9l3.6-0.8v7.7h2.4l-0.5,3.7h-2v5.3h-3.6v-5.3h-9.5V181l8.1-17.9h3.7L177.8,180.6
				L177.8,180.6z"/>
		</g>
	</g>
	<rect x="566.4" y="825.9" class="st29" width="459.1" height="372"/>
</g>
<g>
	<g>
	</g>
</g>
<g>
	<g>
	</g>
</g>
<g>
</g>
<g>
	<g>
	</g>
</g>
<rect x="0" y="277" class="st30" width="22" height="1435"/>
<rect x="1058" y="277" class="st30" width="22" height="1437"/>
</svg>
