<?xml version="1.0" encoding="utf-8"?>
<!-- Generator: Adobe Illustrator 26.5.0, SVG Export Plug-In . SVG Version: 6.00 Build 0)  -->
<svg version="1.1" id="Lager_1" xmlns="http://www.w3.org/2000/svg" xmlns:xlink="http://www.w3.org/1999/xlink" x="0px" y="0px"
	 viewBox="0 0 1080 1920" style="enable-background:new 0 0 1080 1920;" xml:space="preserve">
<style type="text/css">
	.st0{fill:#05053A;}
	.st1{fill:url(#SVGID_1_);}
	.st2{fill:url(#SVGID_00000134233978724479853820000007707812848857784456_);}
	.st3{fill:url(#SVGID_00000108987575990516553740000000964665844599867815_);}
	.st4{fill:none;stroke:url(#SVGID_00000029758848380330943340000014698450353201671311_);stroke-width:4;stroke-miterlimit:10;}
	
		.st5{fill:url(#SVGID_00000054246975894003200520000001351571609681357480_);stroke:url(#SVGID_00000013151865500603619220000000809630520689785770_);stroke-width:4;stroke-miterlimit:10;}
	.st6{fill:url(#SVGID_00000108286635448111216300000004561620724565895843_);}
	.st7{fill:url(#SVGID_00000064354742042650307970000012059847265115543487_);}
	.st8{fill:url(#SVGID_00000178912568936604203260000016133903480015726005_);}
	.st9{fill:url(#SVGID_00000098934296949570794750000006294629744943086976_);}
	.st10{fill:url(#SVGID_00000130605972478041134150000004212709251149991315_);}
	.st11{fill:#C0068D;}
	.st12{fill:url(#SVGID_00000009592519059394405010000012769541768237006997_);}
	.st13{fill:url(#SVGID_00000067955798636312311700000008802089440923793546_);}
	.st14{fill:url(#SVGID_00000034808859218258902350000006060708943008050347_);}
	.st15{fill:url(#SVGID_00000162310184874434079210000005571107133569090228_);}
	.st16{fill:url(#SVGID_00000083806342271868899220000004862536279093300406_);}
	.st17{fill:url(#SVGID_00000106108824758326067740000008862656582092493474_);}
	.st18{fill:url(#SVGID_00000028287519763401240940000009410094002311615874_);}
	.st19{fill:url(#SVGID_00000007388639020171808520000016016630560245752740_);}
	.st20{fill:url(#SVGID_00000160185054118521117330000002327819821862567339_);}
	.st21{fill:url(#SVGID_00000149373946363786151660000012902970663548174268_);}
	.st22{fill:url(#SVGID_00000019667531968612049050000015538064249434724755_);}
	.st23{fill:url(#SVGID_00000124139259918829287850000009114410874218413224_);}
	.st24{fill:url(#SVGID_00000002382405914631839950000016653637756791221907_);}
	.st25{fill:url(#SVGID_00000150802241781368135420000017094402233921991318_);}
	.st26{opacity:0.37;stroke:#000000;stroke-width:3;stroke-miterlimit:10;enable-background:new    ;}
	.st27{fill-rule:evenodd;clip-rule:evenodd;fill:#FFFFFF;}
	.st28{fill:#FFFFFF;}
	.st29{fill:#FCFCFC;}
	.st30{fill:#F7F5F5;}
	.st31{fill:none;stroke:#FFFFFF;stroke-width:3;stroke-miterlimit:10;}
	.st32{font-family:'ArialMT';}
	.st33{font-size:53px;}
	.st34{opacity:0.37;fill:url(#SVGID_00000121273861698348362580000018255580971666397371_);enable-background:new    ;}
	.st35{opacity:0.37;fill:url(#SVGID_00000068673895770606588770000001860846684276856450_);enable-background:new    ;}
	.st36{opacity:0.37;fill:url(#SVGID_00000167355057449394836070000003771938662359582595_);enable-background:new    ;}
	.st37{opacity:0.37;fill:url(#SVGID_00000157297470099062365140000008884862586033331612_);enable-background:new    ;}
	.st38{opacity:0.37;fill:url(#SVGID_00000106866600380893212460000000637743024527101349_);enable-background:new    ;}
	.st39{opacity:0.37;fill:url(#SVGID_00000070838123390814280990000014442723232195322811_);enable-background:new    ;}
	.st40{opacity:0.37;fill:url(#SVGID_00000137103746320260399210000005301673851778426515_);enable-background:new    ;}
	.st41{opacity:0.37;fill:url(#SVGID_00000109709132449285484880000001032293621956801961_);enable-background:new    ;}
	.st42{opacity:0.37;fill:url(#SVGID_00000175313600828530894300000000925638890231063483_);enable-background:new    ;}
	.st43{opacity:0.37;fill:url(#SVGID_00000044141117254404063340000004627848115822476966_);enable-background:new    ;}
	.st44{letter-spacing:-1;}
	.st45{font-size:46px;}
	.st46{opacity:0.37;enable-background:new    ;}
	.st47{fill:#030303;fill-opacity:0.7;}
</style>
<g id="Lager_1-2">
	<g id="Lager_20">
		<rect class="st0" width="1080" height="1920"/>
	</g>
	<g>
		<g id="Lager_19">
			
				<linearGradient id="SVGID_1_" gradientUnits="userSpaceOnUse" x1="677.56" y1="-1259.91" x2="705.86" y2="-1259.91" gradientTransform="matrix(1 0 0 1 0 2470)">
				<stop  offset="0.11" style="stop-color:#C0068D"/>
				<stop  offset="0.81" style="stop-color:#1A002F"/>
				<stop  offset="0.91" style="stop-color:#1C0031"/>
				<stop  offset="1" style="stop-color:#1C0030"/>
			</linearGradient>
			<ellipse class="st1" cx="691.7" cy="1210.1" rx="14.2" ry="14.4"/>
		</g>
		<g id="Lager_18">
			
				<linearGradient id="SVGID_00000040537265470414064030000013423905565666021823_" gradientUnits="userSpaceOnUse" x1="481.46" y1="-1132.38" x2="535.12" y2="-1132.38" gradientTransform="matrix(1 0 0 1 0 2470)">
				<stop  offset="0.11" style="stop-color:#C0068D"/>
				<stop  offset="0.81" style="stop-color:#1A002F"/>
				<stop  offset="0.91" style="stop-color:#1C0031"/>
				<stop  offset="1" style="stop-color:#1C0030"/>
			</linearGradient>
			
				<ellipse style="fill:url(#SVGID_00000040537265470414064030000013423905565666021823_);" cx="508.3" cy="1337.6" rx="26.8" ry="27.4"/>
		</g>
		<g id="Lager_17">
			
				<linearGradient id="SVGID_00000088823177392435755200000003851395642447764669_" gradientUnits="userSpaceOnUse" x1="386.2337" y1="-1281.1125" x2="457.1949" y2="-1281.1125" gradientTransform="matrix(1 0 0 1 0 2470)">
				<stop  offset="0.11" style="stop-color:#C0068D"/>
				<stop  offset="0.81" style="stop-color:#1A002F"/>
				<stop  offset="0.91" style="stop-color:#1C0031"/>
				<stop  offset="1" style="stop-color:#1C0030"/>
			</linearGradient>
			<path style="fill:url(#SVGID_00000088823177392435755200000003851395642447764669_);" d="M394.6,1140.8
				c-8.7,7.2-10.6,23.6-5.9,34.9c3.3,7.9,9.9,13.2,14.6,16.9c9.7,7.8,13.1,5.8,16.6,11c7.3,10.8-4.4,23.6,2,31.9
				c6,7.8,25,7.9,32.2-2c6.9-9.6,0-24.7-1-26.9c-3.4-7.4-6.4-7.3-7.8-12.9c-2.7-11,7.2-16.9,6.8-25.9
				C451.5,1150.1,411.4,1127.1,394.6,1140.8L394.6,1140.8z"/>
		</g>
		<g id="Lager_15">
			
				<linearGradient id="SVGID_00000065786306867441837730000017801161033112704684_" gradientUnits="userSpaceOnUse" x1="435.56" y1="-1139.85" x2="541.02" y2="-1139.85" gradientTransform="matrix(1 0 0 1 0 2470)">
				<stop  offset="0.11" style="stop-color:#C0068D"/>
				<stop  offset="0.81" style="stop-color:#1A002F"/>
				<stop  offset="0.91" style="stop-color:#1C0031"/>
				<stop  offset="1" style="stop-color:#1C0030"/>
			</linearGradient>
			
				<ellipse style="fill:none;stroke:url(#SVGID_00000065786306867441837730000017801161033112704684_);stroke-width:4;stroke-miterlimit:10;" cx="488.3" cy="1330.2" rx="50.7" ry="51.8"/>
		</g>
		<g id="Lager_16">
			
				<linearGradient id="SVGID_00000114772922121628511310000002654908554748012706_" gradientUnits="userSpaceOnUse" x1="551.5809" y1="-1091.962" x2="630.3502" y2="-1091.962" gradientTransform="matrix(1 0 0 1 0 2470)">
				<stop  offset="0.11" style="stop-color:#C0068D"/>
				<stop  offset="0.81" style="stop-color:#1A002F"/>
				<stop  offset="0.91" style="stop-color:#1C0031"/>
				<stop  offset="1" style="stop-color:#1C0030"/>
			</linearGradient>
			
				<linearGradient id="SVGID_00000093898101375204406460000012543495910355323825_" gradientUnits="userSpaceOnUse" x1="549.5809" y1="-1091.962" x2="632.3502" y2="-1091.962" gradientTransform="matrix(1 0 0 1 0 2470)">
				<stop  offset="0.11" style="stop-color:#C0068D"/>
				<stop  offset="0.81" style="stop-color:#1A002F"/>
				<stop  offset="0.91" style="stop-color:#1C0031"/>
				<stop  offset="1" style="stop-color:#1C0030"/>
			</linearGradient>
			
				<path style="fill:url(#SVGID_00000114772922121628511310000002654908554748012706_);stroke:url(#SVGID_00000093898101375204406460000012543495910355323825_);stroke-width:4;stroke-miterlimit:10;" d="
				M562.4,1322.2c-5.3,10,1.5,23.9,2.9,26.9c4,8.2,7.8,9,9.8,16.9c0.5,1.9,2.9,11.6-2,18.9c-4.4,6.8-10.5,4.8-15.6,10
				c-8.9,9.1-8.4,33.1,4.9,43.8c9.2,7.4,25,9,34.2,3c2.7-1.8,6-5,9.8-4c3.8,1,3.9,5.3,7.8,7c4.8,2.1,13.3-0.5,15.6-7
				s-2.8-13.6-7.8-15.9c-5.6-2.7-10,0.9-12.7-2c-3.1-3.5,2.6-9.9,0-15.9c-2.9-7-12.7-3.8-17.6-10c-6-7.7,3-19.7,7.8-47.8
				c2.8-16.6,4.2-25.6-1-30.9C590.5,1306.9,568.8,1310.3,562.4,1322.2L562.4,1322.2z"/>
		</g>
		<g id="Lager_13">
			
				<linearGradient id="SVGID_00000105425379761950662500000014418473383678513069_" gradientUnits="userSpaceOnUse" x1="659.5" y1="-1085.2869" x2="703" y2="-1085.2869" gradientTransform="matrix(1 0 0 1 0 2470)">
				<stop  offset="0" style="stop-color:#C0068D"/>
				<stop  offset="1" style="stop-color:#1A002D"/>
			</linearGradient>
			<path style="fill:url(#SVGID_00000105425379761950662500000014418473383678513069_);" d="M672.2,1290.9c10,9.7,20.3,19.8,25.6,33
				c2.5,6.3,3.8,13.1,3.1,19.8c-0.7,6.8-3.3,13.6-6.6,19.6c-6.7,12.3-16.5,22.5-23.2,34.8c-6.3,11.6-10,24.4-11.6,37.5
				c-1.8,14.8-0.7,29.8,2.3,44.4c0.4,1.9,3.2,1.1,2.8-0.8c-5.4-25.9-4.3-54.4,8.2-78.1c6.6-12.6,16.4-22.8,23.4-35.1
				c3.4-6,6.2-12.4,7.3-19.3c1.2-6.9,0.5-13.8-1.7-20.3c-5-15.2-16.4-26.7-27.5-37.6C672.9,1287.4,670.8,1289.6,672.2,1290.9
				L672.2,1290.9L672.2,1290.9z"/>
			
				<linearGradient id="SVGID_00000160873568321074878810000002161327300353733823_" gradientUnits="userSpaceOnUse" x1="608.16" y1="-1235.8468" x2="651.69" y2="-1235.8468" gradientTransform="matrix(1 0 0 1 0 2470)">
				<stop  offset="0" style="stop-color:#C0068D"/>
				<stop  offset="1" style="stop-color:#1A002D"/>
			</linearGradient>
			<path style="fill:url(#SVGID_00000160873568321074878810000002161327300353733823_);" d="M651.2,1208.8
				c-7.5,2-13.7,7.2-18.7,13.1c-5.7,6.7-10.4,14.2-15.3,21.3c-3.2,4.8-6.5,9.6-9.8,14.2c-1.1,1.6,1.5,3.1,2.5,1.5
				c5.6-8.1,11-16.1,16.6-24.2c4.3-6.3,8.8-12.6,14.7-17.4c3.2-2.6,6.8-4.6,10.8-5.7C653.8,1211.2,653,1208.3,651.2,1208.8
				L651.2,1208.8L651.2,1208.8z"/>
			
				<linearGradient id="SVGID_00000114787041026811073970000008378573995930351506_" gradientUnits="userSpaceOnUse" x1="575.11" y1="-1763.1628" x2="720.36" y2="-1763.1628" gradientTransform="matrix(1 0 0 1 0 2470)">
				<stop  offset="0" style="stop-color:#C0068D"/>
				<stop  offset="1" style="stop-color:#1A002D"/>
			</linearGradient>
			<path style="fill:url(#SVGID_00000114787041026811073970000008378573995930351506_);" d="M589.6,663.1
				c-7.9-8.7-12.4-20.2-12.5-32.1c-0.1-11.9,4.2-22.6,11.5-31.2c3.6-4.2,7.8-7.6,12.6-10.3s9.7-4.7,14.3-7.2s9-5.3,12.3-9.3
				c3-3.6,5-8,6.2-12.5c2.5-9.4,2.3-19.4,5.8-28.6c1.6-4.2,4.3-8.3,8.1-10.7s8.3-2.8,12.5-2s8.1,2.9,10.9,6.1
				c3.7,4.2,4.7,10.2,3.9,15.7c-1.8,12.8-10.9,22.6-15.1,34.6c-7.6,21.4,8.4,39.4,13.8,59c1.3,4.8,2,9.8,1.2,14.7
				c-0.9,5.3-3.2,10.1-5.8,14.7c-5.3,9.1-11.9,18.2-11.2,29.3c0.7,12,8.4,21.9,15.6,30.7c7.5,9.1,16.5,19.6,16.3,32.2
				c-0.2,11.3-8.7,19.9-11.7,30.4c-3.4,11.7,2.6,22.2,10.9,29.9c4.8,4.4,10.2,8.1,14.9,12.5c4,3.7,7.4,8.1,10,13
				c5,9.5,6.6,21.5-0.8,30.2c-7.4,8.7-19.4,11.3-29.8,13.8c-13.6,3.2-27.2,5.7-41.1,7.2c-6.6,0.7-13.4,1.3-20.1,1.6
				c-1.8,0.1-1.8,3.1,0,3c14.2-0.7,28.2-2.3,42.2-4.8c7.1-1.3,14.2-2.7,21.2-4.4c5.7-1.4,11.3-2.8,16.7-5.1
				c9.8-4.2,18-11.8,18.9-23.1c1-11-4.6-21.8-11.6-29.8c-8.4-9.5-20.9-15.1-26.9-26.8c-2.8-5.5-3.2-11.5-1.3-17.3
				c1.8-5.4,4.9-10.2,7.3-15.1c2.4-5,4.4-10.5,4.2-16.2c-0.2-6.1-2.4-12-5.4-17.1c-6.2-11-15.9-19.3-22-30.3
				c-3-5.5-5.1-11.5-4.5-17.8c0.5-5.7,2.9-10.9,5.7-15.6c5.3-9.3,11.7-18.1,11.7-29.4c0-10.6-4.8-20.3-9.1-29.7
				c-4.3-9.5-9-19.5-8.1-30.2c1.2-13.2,10.8-23.4,15.1-35.4c3.7-10.4,3.2-22.5-6.4-29.3c-7-4.9-17.4-5.7-24.5-0.5
				c-8,5.9-10,16.1-11.3,25.5c-1.5,10.1-2.6,20.9-10.3,28.2c-7.7,7.3-19.4,10.2-28.3,16.4s-15.9,16-19.2,26.9
				c-3.3,10.9-2.4,23.4,2,34.2c2.2,5.3,5.4,10.2,9.3,14.3C588.8,666.7,590.9,664.5,589.6,663.1L589.6,663.1L589.6,663.1z"/>
		</g>
		<g id="Lager_14">
			
				<linearGradient id="SVGID_00000004524478373409128300000011169986382595348149_" gradientUnits="userSpaceOnUse" x1="670.048" y1="-1453.9133" x2="755.906" y2="-1453.9133" gradientTransform="matrix(1 0 0 1 0 2470)">
				<stop  offset="0.11" style="stop-color:#C0068D"/>
				<stop  offset="0.99" style="stop-color:#05053A"/>
			</linearGradient>
			<path style="fill:url(#SVGID_00000004524478373409128300000011169986382595348149_);" d="M736.1,971.5c-11.2-1.1-23.4,6-23.4,6
				l0,0c0,0-9.2-2.7-14.6-3c-6.8-0.4-17.4,2.3-23.4,11c-7,10.1-5.5,24.4,1,31.9c5,5.8,9,3,15.6,9c9.8,8.8,5,18.2,13.7,26.9
				c6.5,6.5,18,10,28.3,6c9.3-3.6,16.5-13.1,16.6-21.9c0.1-6.8-3.9-7.5-3.9-15c0-8,4.6-9.3,7.8-20.9c1.8-6.7,3.4-12.3,1-17.9
				C751.4,976,742.7,972.2,736.1,971.5L736.1,971.5z"/>
			
				<linearGradient id="SVGID_00000167362453458850899710000009577577585672353725_" gradientUnits="userSpaceOnUse" x1="712.49" y1="-1535.9099" x2="769.95" y2="-1535.9099" gradientTransform="matrix(1 0 0 1 0 2470)">
				<stop  offset="0.33" style="stop-color:#A2057C"/>
				<stop  offset="1" style="stop-color:#7C056C"/>
			</linearGradient>
			
				<ellipse style="fill:url(#SVGID_00000167362453458850899710000009577577585672353725_);" cx="741.3" cy="934.1" rx="28.8" ry="29.4"/>
		</g>
		<g id="Lager_12">
			<path class="st11" d="M338.1,1103.3c-9.2,19.9-13.7,42.6-9.3,64.4c3.7,18.2,14.4,35.1,29.9,45c7.8,5.1,16.5,7.9,25.7,8.8
				c10.7,0.9,21.8-0.4,32.2,2.7c15.9,4.8,23.7,20.5,32,33.8c4,6.5,8.4,12.9,14.2,17.8c6.6,5.6,14.4,8.1,22.9,8.9
				c9.1,0.9,18.6,0.2,27.3,3.3c4.2,1.5,8,4.1,10.7,7.8s4.5,8.2,5.4,12.7c2.3,11,0.2,22.1-0.5,33.2c-0.6,10.3,0.7,20.1,5.5,29.3
				c8.3,15.8,24.9,27,42.6,26.9c17.6-0.1,35-10.5,43.3-26.4c8.3-15.9,6.7-36.3-3-51.2c-2.4-3.7-5.3-7-8.5-9.9
				c-1.5-1.2-3.5,0.9-2,2.1c13.2,11.5,18.9,30.7,14.7,47.8s-19.3,30.3-36.3,33.7c-17.4,3.4-34.9-4.8-45.1-19.3
				c-5.3-7.6-8.2-16.4-8.5-25.7c-0.3-11.4,2.3-22.6,1.6-33.9c-0.6-9-3.2-18.4-10-24.5s-15.8-7.4-24.5-8s-18.1-0.2-26.3-4.1
				c-6.5-3.1-11.7-8.4-16-14.2c-8.9-12.2-14.8-27.1-26.8-36.6c-7.4-5.9-16.4-7.9-25.7-8.4c-10.1-0.6-20.5,0.2-30.3-2.8
				c-16.9-5.2-30.2-19-37.3-35.2c-8.5-19.3-7.4-41.8-1.3-61.6c1.6-5.1,3.5-10.1,5.8-14.8C341.5,1103,338.9,1101.5,338.1,1103.3
				L338.1,1103.3L338.1,1103.3z"/>
			
				<linearGradient id="SVGID_00000027576604188222939460000000570881942381844114_" gradientUnits="userSpaceOnUse" x1="449.73" y1="-1683.0548" x2="474.13" y2="-1683.0548" gradientTransform="matrix(1 0 0 1 0 2470)">
				<stop  offset="0.11" style="stop-color:#C0068D"/>
				<stop  offset="0.81" style="stop-color:#1A002F"/>
				<stop  offset="0.91" style="stop-color:#1C0031"/>
				<stop  offset="1" style="stop-color:#1C0030"/>
			</linearGradient>
			<path style="fill:url(#SVGID_00000027576604188222939460000000570881942381844114_);" d="M473.2,772c-5.9,3.3-13.1,2.6-18.4,7.1
				c-6.1,5.3-6.1,14.2-5.9,21.6c0.1,1.9,3,1.9,2.9,0c-0.3-6.8-0.6-15.5,5.6-19.9c5.1-3.6,11.8-3.2,17.3-6.2
				C476.3,773.7,474.8,771.1,473.2,772L473.2,772L473.2,772z"/>
			
				<linearGradient id="SVGID_00000064324438976976846790000002025361031926328964_" gradientUnits="userSpaceOnUse" x1="418.6" y1="-1578.8998" x2="438.81" y2="-1578.8998" gradientTransform="matrix(1 0 0 1 0 2470)">
				<stop  offset="0.11" style="stop-color:#C0068D"/>
				<stop  offset="0.81" style="stop-color:#1A002F"/>
				<stop  offset="0.91" style="stop-color:#1C0031"/>
				<stop  offset="1" style="stop-color:#1C0030"/>
			</linearGradient>
			<path style="fill:url(#SVGID_00000064324438976976846790000002025361031926328964_);" d="M437.8,862.7
				c-12.8,9.8-20.5,25.3-20.1,41.7c0.1,5,0.9,9.9,2.3,14.5c0.6,1.8,3.4,1,2.8-0.8c-4.7-15-1.9-31.9,7.8-44.2
				c2.5-3.2,5.4-6.1,8.6-8.6C440.8,864,439.3,861.5,437.8,862.7L437.8,862.7L437.8,862.7z"/>
		</g>
		<g id="Lager_11">
			
				<linearGradient id="SVGID_00000005252706097148700930000000321197785127738041_" gradientUnits="userSpaceOnUse" x1="346.2946" y1="-1456.7173" x2="510.5925" y2="-1456.7173" gradientTransform="matrix(1 0 0 1 0 2470)">
				<stop  offset="0.11" style="stop-color:#C0068D"/>
				<stop  offset="0.81" style="stop-color:#1A002F"/>
				<stop  offset="0.91" style="stop-color:#1C0031"/>
				<stop  offset="1" style="stop-color:#1C0030"/>
			</linearGradient>
			<path style="fill:url(#SVGID_00000005252706097148700930000000321197785127738041_);" d="M464.9,928.6c9.3,13.3,7.7,29,6.8,37.9
				c-1.8,17.6-7.9,18.4-7.8,28.9c0.3,23.7,32,28,42.9,56.8c7.7,20.2,3.4,48.1-11.7,60.8c-27.6,23.1-89.5-5.7-95.6-35.9
				c-3.7-18.3,15-28,8.8-50.8c-4-14.5-18-34.4-20.5-37.9c-3.5-5.1-6.4-8.5-8.8-15c-4.2-11.5-1.1-17-5.9-21.9
				c-5.4-5.5-11.6-0.7-18.5-6c-7.5-5.7-11.1-19.4-5.9-25.9c5.4-6.7,19.8-5.4,27.3,1c4.6,3.9,6,9.4,13.7,13c1.4,0.6,5.3,2.5,6.8,1
				s-0.8-4.9-1-9c-0.4-7.9,7.3-15.9,14.6-18.9c7.4-3.1,14-0.8,24.4,3C447.2,914.3,457.6,917.9,464.9,928.6L464.9,928.6z"/>
		</g>
		<g id="Lager_10">
			
				<radialGradient id="SVGID_00000178184957940555361740000014907561972318739895_" cx="685.161" cy="-935.78" r="63" gradientTransform="matrix(0.98 0 0 1 -8.98 2456.3799)" gradientUnits="userSpaceOnUse">
				<stop  offset="0.77" style="stop-color:#A2057C"/>
				<stop  offset="1" style="stop-color:#05053A"/>
			</radialGradient>
			
				<ellipse style="fill:url(#SVGID_00000178184957940555361740000014907561972318739895_);" cx="659.5" cy="1527.9" rx="61.5" ry="62.8"/>
			
				<linearGradient id="SVGID_00000085968277703537034550000011973199167457457304_" gradientUnits="userSpaceOnUse" x1="680.49" y1="-899.72" x2="887.3101" y2="-899.72" gradientTransform="matrix(1 0 0 1 0 2470)">
				<stop  offset="0.33" style="stop-color:#A2057C"/>
				<stop  offset="1" style="stop-color:#7C056C"/>
			</linearGradient>
			
				<ellipse style="fill:url(#SVGID_00000085968277703537034550000011973199167457457304_);" cx="783.9" cy="1570.3" rx="103.4" ry="105.6"/>
			
				<linearGradient id="SVGID_00000071540356950770606340000004980177189501122223_" gradientUnits="userSpaceOnUse" x1="192.68" y1="-1195.15" x2="318.54" y2="-1195.15" gradientTransform="matrix(1 0 0 1 0 2470)">
				<stop  offset="0.33" style="stop-color:#A2057C"/>
				<stop  offset="1" style="stop-color:#7C056C"/>
			</linearGradient>
			
				<ellipse style="fill:url(#SVGID_00000071540356950770606340000004980177189501122223_);" cx="255.6" cy="1274.8" rx="62.9" ry="64.3"/>
		</g>
		<g id="Lager_9">
			
				<linearGradient id="SVGID_00000034780055797198969300000000966437635313933453_" gradientUnits="userSpaceOnUse" x1="602.9066" y1="-1257.8221" x2="691.4625" y2="-1257.8221" gradientTransform="matrix(1 0 0 1 0 2470)">
				<stop  offset="0.11" style="stop-color:#C0068D"/>
				<stop  offset="0.81" style="stop-color:#1A002F"/>
				<stop  offset="0.91" style="stop-color:#1C0031"/>
				<stop  offset="1" style="stop-color:#1C0030"/>
			</linearGradient>
			<path style="fill:url(#SVGID_00000034780055797198969300000000966437635313933453_);" d="M672.7,1194.6
				c-4.4,11.1-6.5,13.6-4.9,20.9c0.9,3.8,0.4,7,4.9,12c17.6,19.7,12.7,15.7,15.6,19.9c8,11.4-0.2,34.3-12.7,41.1
				c-10.5,5.8-21.5,8.8-43.9-5c-15-9.2-25.8,4.2-28.3,0c-2.2-3.8,2.5-10.3,20.5-35c15.8-21.6,23.7-32.7,23.4-39
				c-0.7-15.6-17.4-17.6-21.5-37c-3.3-15.7,3-36.8,15.6-40.9c14.9-4.9,39.2,18,40,34.9C681.7,1172,678.7,1179.6,672.7,1194.6
				L672.7,1194.6L672.7,1194.6z"/>
		</g>
		<g id="Lager_2">
			
				<linearGradient id="SVGID_00000088843480797602582630000011366232384017241491_" gradientUnits="userSpaceOnUse" x1="614.15" y1="-1844.78" x2="658.05" y2="-1844.78" gradientTransform="matrix(1 0 0 1 0 2470)">
				<stop  offset="0.11" style="stop-color:#C0068D"/>
				<stop  offset="0.81" style="stop-color:#1A002F"/>
				<stop  offset="0.91" style="stop-color:#1C0031"/>
				<stop  offset="1" style="stop-color:#1C0030"/>
			</linearGradient>
			
				<ellipse style="fill:url(#SVGID_00000088843480797602582630000011366232384017241491_);" cx="636.1" cy="625.2" rx="22" ry="22.4"/>
			
				<linearGradient id="SVGID_00000044163677897014636700000014017952223374216327_" gradientUnits="userSpaceOnUse" x1="521.46" y1="-2003.2" x2="647.32" y2="-2003.2" gradientTransform="matrix(1 0 0 1 0 2470)">
				<stop  offset="0.33" style="stop-color:#A2057C"/>
				<stop  offset="1" style="stop-color:#7C056C"/>
			</linearGradient>
			
				<ellipse style="fill:url(#SVGID_00000044163677897014636700000014017952223374216327_);" cx="584.4" cy="466.8" rx="62.9" ry="64.3"/>
			
				<linearGradient id="SVGID_00000030485525896817773980000007400222697914112186_" gradientUnits="userSpaceOnUse" x1="283.42" y1="-2024.62" x2="490.24" y2="-2024.62" gradientTransform="matrix(1 0 0 1 0 2470)">
				<stop  offset="0.33" style="stop-color:#A2057C"/>
				<stop  offset="1" style="stop-color:#7C056C"/>
			</linearGradient>
			
				<ellipse style="fill:url(#SVGID_00000030485525896817773980000007400222697914112186_);" cx="386.8" cy="445.4" rx="103.4" ry="105.6"/>
			
				<linearGradient id="SVGID_00000130619221552181800580000005503579548564126902_" gradientUnits="userSpaceOnUse" x1="691.22" y1="-1788.98" x2="801.46" y2="-1788.98" gradientTransform="matrix(1 0 0 1 0 2470)">
				<stop  offset="0.33" style="stop-color:#A2057C"/>
				<stop  offset="1" style="stop-color:#7C056C"/>
			</linearGradient>
			
				<ellipse style="fill:url(#SVGID_00000130619221552181800580000005503579548564126902_);" cx="746.3" cy="681" rx="55.1" ry="56.3"/>
		</g>
		<g id="Lager_4">
			
				<linearGradient id="SVGID_00000159450956457937695840000002500752868251916709_" gradientUnits="userSpaceOnUse" x1="436.8733" y1="-1589.5466" x2="675.8557" y2="-1589.5466" gradientTransform="matrix(1 0 0 1 0 2470)">
				<stop  offset="0" style="stop-color:#C0068D"/>
				<stop  offset="1" style="stop-color:#05053A"/>
			</linearGradient>
			<path style="fill:url(#SVGID_00000159450956457937695840000002500752868251916709_);" d="M585.8,659.6c-17.3,7-21.6,26-22.4,29.9
				c-1.1,4.8-0.4,5.5-1,13c-0.4,5.5-2.2,29.4-12.7,43.8c-8.4,11.7-16.7,9.4-32.2,18.9c-22.3,13.8-37.4,38.9-42,59.8
				c-5.3,24,6.8,26.4,11.7,74.7c3.1,30.8,5.4,53.1-6.8,73.7c-10.8,18.3-20.9,14.8-32.2,34.9c-3,5.3-20,35.2-5.9,63.8
				c11.4,23,35,29.2,38,29.9c16.9,4.1,38.1,1.1,50.7-12c10.3-10.8,6.8-20,19.5-30.9c2.6-2.2,16-13.8,28.3-10
				c10.4,3.2,8.9,14.2,24.4,29.9c6.6,6.7,14.4,14.7,26.3,16.9c11.2,2.2,27.8-0.4,38-13.9c9.6-12.7,10.7-31.3,2.9-41.8
				c-6.2-8.3-13.8-6.1-43.9-20.9c-10.3-5.1-12.4-6.8-13.7-8c-10.7-9.9-15.4-26.6-13.7-40.8c1.4-11.5,12.3-25.4,34.2-52.8
				c13.8-17.3,16.6-19.5,20.5-27.9c8.7-18.6,8.1-36.1,7.8-43.8c-0.3-7.6-2.8-48.7-30.2-71.7c-6-5.1-10.2-6.8-12.7-13
				c-4.9-12.5,3.2-29.3,9.8-42.8c3.4-7.1,3.8-6.6,4.9-10c3.3-10.8,3-28.7-9.8-40.8C614.1,658.2,599,654.3,585.8,659.6L585.8,659.6z"
				/>
		</g>
		<g id="Lager_6">
			
				<linearGradient id="SVGID_00000038390802933941522760000016544834731003802043_" gradientUnits="userSpaceOnUse" x1="334.4533" y1="-1449.1388" x2="674.5585" y2="-1449.1388" gradientTransform="matrix(1 0 0 1 0 2470)">
				<stop  offset="6.000000e-02" style="stop-color:#C0068D"/>
				<stop  offset="0.32" style="stop-color:#C0068D"/>
				<stop  offset="0.99" style="stop-color:#1C0030"/>
			</linearGradient>
			<path style="fill:url(#SVGID_00000038390802933941522760000016544834731003802043_);" d="M486.3,708.4
				c-14.4,0.8-24.3,18.2-22.4,29.9c1,6,4.2,5.9,6.8,13c5.1,13.8-1.2,31-10.7,40.8c-7.1,7.4-10.3,4.6-17.6,11
				c-13.7,12.1-19.4,37.6-11.7,55.8c6.9,16.5,18.9,13,34.1,33.9c4.1,5.6,15.7,21.5,16.6,43.8c1,25.2-12.4,50.1-31.2,62.8
				c-12.5,8.4-27.4,11.4-40,14c-12.1,2.5-14.4,1.5-21.5,3c-19,4.2-40.8,20-49.8,42.8c-14.9,38,9.3,84.4,35.1,92.7
				c11.4,3.6,20-1.2,42,6c9,2.9,16.7,5.4,24.4,12c15.7,13.2,9.7,24.7,23.4,35.9c14.6,11.9,36.4,11.2,41,11c11.6-0.4,13.6-3.4,19.5-1
				c13.1,5.3,18.8,26.1,18.5,41.8c-0.3,15.3-6.2,16.2-5.8,28.9c0.4,14.9,9.3,35.8,29.3,43.8c17.7,7.1,38.3,1.9,49.8-11
				c10-11.2,10.3-25.2,10.7-38.9c0.8-25.1-7.3-27.3-7.8-46.8c-0.8-36.1,25.8-74.7,42.9-92.7c3.3-3.5,8.1-8.1,10.7-15.9
				c4.1-12.1,1.7-26.8-9.8-46.8c-25.8-45.6-53.3-40.2-61.5-68.8c-7.8-27.5,15.5-39.8,4.9-76.7c-1.2-4.1-8.1-28.3-22.4-30.9
				c-6.5-1.2-8.8,3.2-17.6,3c-11.7-0.2-24.9-8.3-29.3-18.9c-6-14.2,8.5-21.2,7.8-40.8c-0.8-22.2-19.7-22.2-34.1-59.8
				c-6.6-17.2-12-31.3-6.8-45.8c2.1-6.1,5.6-10.8,3.9-16.9C505.6,714.2,495.6,707.9,486.3,708.4L486.3,708.4z"/>
		</g>
		<g id="Lager_3">
			
				<linearGradient id="SVGID_00000029034567178261913840000010797352281476254095_" gradientUnits="userSpaceOnUse" x1="501.1224" y1="-1252.288" x2="603.8279" y2="-1252.288" gradientTransform="matrix(1 0 0 1 0 2470)">
				<stop  offset="0.11" style="stop-color:#C0068D"/>
				<stop  offset="1" style="stop-color:#05053A"/>
			</linearGradient>
			<path style="fill:url(#SVGID_00000029034567178261913840000010797352281476254095_);" d="M571.2,1154.8
				c-11.2,1.2-16.6,5.4-19.5,9c-5.4,6.7-2.7,12.3-8.8,18.9c-3.3,3.7-5.3,3.1-17.6,9c-10.2,4.9-15.2,7.3-17.6,10
				c-7.7,8.7-9.3,25.9-2,34.9c6.8,8.4,16.2,3,26.3,12.9c6.6,6.6,4.2,10.4,10.7,17.9c1.5,1.7,15,16.8,33.2,12.9
				c13.5-2.9,24.5-15.1,25.4-26.9c0.8-10.8-7.6-13.6-7.8-29.9c-0.1-8.4,2-15.9,2.9-18.9c3.1-9.9,5.7-9.9,6.8-15.9
				c2-10.6-3.3-24.6-14.6-30.9C581.8,1153.9,574.7,1154.3,571.2,1154.8L571.2,1154.8z"/>
		</g>
	</g>
</g>
<rect class="st26" width="1080" height="277"/>
<g>
	<rect x="2" y="1713.5" class="st26" width="1078" height="206.5"/>
	<g id="LOGO">
		<polyline id="Fill-1" class="st27" points="197.9,165.3 197.9,116.4 182.6,116.4 182.6,104.4 225.3,104.4 225.3,116.4 210,116.4 
			210,165.3 197.9,165.3 		"/>
		<polyline id="Fill-2" class="st27" points="136.8,160.9 124.8,160.9 124.8,101.3 128.1,101.3 158.3,135.6 158.3,102.7 
			170.5,102.7 170.5,162.2 167.3,162.2 136.8,129.2 136.8,160.9 		"/>
		<polygon id="Fill-3" class="st27" points="237.4,165.3 249.6,165.3 249.6,104.4 237.4,104.4 		"/>
		<path id="Fill-13" class="st27" d="M143.1,76.7V64.8H79.2v66.9c0,45.6,22.9,60.2,60.3,80.3l3.7,2v-13.5l-0.4-0.3
			c-33.9-18.3-51.6-29.6-51.6-68.5v-55L143.1,76.7"/>
		<g>
			<path class="st28" d="M198.1,172.8l-0.7,5.9h-9.4v34.7h-5.7v-34.7h-10l0.6-5.9H198.1L198.1,172.8z"/>
			<path class="st28" d="M223.6,172.8l-0.7,5.7h-14.5v11.2h13.8l-0.7,5.7h-13.1v12.2h15.2l-0.7,5.7h-20.2v-40.5L223.6,172.8
				L223.6,172.8z"/>
			<path class="st28" d="M233.4,200.1h8.2v-10.2l5.3-1.2V200h3.6l-0.7,5.4h-2.9v7.8h-5.3v-7.8h-14v-4.8l12-26.4h5.5L233.4,200.1
				L233.4,200.1L233.4,200.1z"/>
		</g>
	</g>
	<g>
		<path class="st29" d="M423,156.5V79.2c-4.3,3.8-14.2,8.8-19.2,10.1v-6.1c5.5-1.9,13.9-7.1,20.5-12.8h5.5v86.2L423,156.5L423,156.5
			z"/>
		<path class="st29" d="M453.1,90.2c1.4-10.6,9-20.8,25.1-20.8s23.9,10.6,23.9,21.5s-6.4,16.1-12,17.9v0.2c9,2.8,15.8,9.7,15.8,22.2
			c0,14.4-9,26.7-28.1,26.7c-17.3,0-26.2-11.3-27.7-22.7h6.8c2.1,8.7,9,16.5,21.5,16.5c14.7,0,20.5-9.9,20.5-20.3
			c0-13.7-9-19.1-21.5-19.1h-5v-6.1h4c13,0,18.9-5.4,18.9-15.6c0-9-6.2-15.3-17.2-15.3s-16.3,5.9-18.4,14.6h-6.6L453.1,90.2
			L453.1,90.2z"/>
		<path class="st29" d="M525.1,108.3V91.5h6.2v16.8H525.1z M525.1,156.5v-16.8h6.2v16.8H525.1z"/>
		<path class="st29" d="M552.7,90.2c1.4-10.6,9-20.8,25.1-20.8s23.9,10.6,23.9,21.5s-6.4,16.1-12,17.9v0.2c9,2.8,15.8,9.7,15.8,22.2
			c0,14.4-9,26.7-28.1,26.7c-17.3,0-26.2-11.3-27.7-22.7h6.8c2.1,8.7,9,16.5,21.5,16.5c14.7,0,20.5-9.9,20.5-20.3
			c0-13.7-9-19.1-21.5-19.1h-5v-6.1h4c13,0,18.9-5.4,18.9-15.6c0-9-6.2-15.3-17.2-15.3s-16.3,5.9-18.4,14.6h-6.6L552.7,90.2
			L552.7,90.2z"/>
		<path class="st29" d="M676.3,113.1c0,19.6-5,44.9-27.9,44.9s-27.7-23.2-27.7-44.4s5.9-44.4,28.3-44.4
			C671.1,69.4,676.3,92.9,676.3,113.1L676.3,113.1z M627.7,113.8c0,16.6,3.5,38,20.5,38s20.8-20.5,20.8-38.7
			c0-16.3-3.5-37.4-20.3-37.4C631,75.7,627.7,94.9,627.7,113.8z"/>
	</g>
	<g>
		<path class="st30" d="M370.9,176.2h-13.1v-2.7h29.2v2.7H374v36h-3.1L370.9,176.2L370.9,176.2z"/>
		<path class="st30" d="M414.4,198.3c0,7.8-4.3,14.6-12.6,14.6c-7.5,0-12.2-6.2-12.2-14.6c0-7.9,4.4-14.6,12.5-14.6
			C409.5,183.8,414.4,189.6,414.4,198.3z M392.6,198.4c0,6.7,3.6,12,9.4,12s9.4-4.9,9.4-12c0-6.5-3.3-12-9.5-12
			S392.6,191.7,392.6,198.4L392.6,198.4z"/>
		<path class="st30" d="M421.2,192v-7.5h2.7c0,0.9,0.1,2.7,0.1,6.2c1.6-4.2,5.2-6.7,9.6-6.9v3c-5.8,0.4-9.6,4.4-9.6,11v14.4h-2.7
			V192L421.2,192L421.2,192z"/>
		<path class="st30" d="M439.2,204.6c1,3.6,3.5,5.8,7.9,5.8c4.9,0,6.9-2.2,6.9-5.4s-1.4-4.7-7.5-6.2c-7.1-1.7-8.9-3.8-8.9-7.5
			s2.8-7.4,9.1-7.4s9.2,3.8,9.7,7.8h-2.7c-0.5-2.3-2.3-5.2-7-5.2s-6.2,2.3-6.2,4.6c0,2.6,1.4,3.8,6.8,5.2c7.8,1.9,9.7,4.4,9.7,8.6
			c0,5.1-4.1,8.1-10,8.1c-6.3,0-9.9-3.3-10.6-8.4L439.2,204.6L439.2,204.6z"/>
		<path class="st30" d="M485.4,171.4v40.9h-2.7c-0.1-0.6-0.1-3.3-0.1-4.7c-1.4,3.3-4.4,5.3-9.4,5.3c-7.1,0-11.6-5.9-11.6-14.2
			s4.7-14.9,12.2-14.9c5.5,0,7.8,2.3,8.6,4.2v-16.6L485.4,171.4L485.4,171.4z M464.6,198.6c0,7.6,4,11.7,8.8,11.7
			c7.3,0,9.4-5.1,9.4-12.6s-1.7-11.2-8.9-11.2C468.3,186.4,464.6,190.9,464.6,198.6L464.6,198.6z"/>
		<path class="st30" d="M513.5,206.9c0,2.5,0.2,4.4,0.4,5.3h-2.7c-0.2-0.6-0.4-1.9-0.5-4.3c-1,2.1-3.3,4.9-9.1,4.9
			c-6.4,0-9.2-4.2-9.2-8.4c0-6,4.7-8.9,13.1-8.9h5.3v-2.7c0-2.7-0.9-6.5-7.1-6.5c-5.5,0-6.4,3-7,5.2h-2.7c0.4-3.1,2.2-7.8,9.9-7.8
			c6.3,0,9.9,2.7,9.9,8.8L513.5,206.9L513.5,206.9L513.5,206.9z M510.8,198h-5.4c-6.2,0-10,1.6-10,6.4c0,3.4,2.5,5.9,6.4,5.9
			c7.9,0,9-5.3,9-11.2L510.8,198L510.8,198z"/>
		<path class="st30" d="M543.8,210.4c0,8.9-4,13.6-12,13.6c-7.2,0-10.2-4.1-10.8-8.3h2.8c1,3.8,4.2,5.7,8.1,5.7
			c7.2,0,9.2-4.7,9.2-11.7v-2.8c-1.5,3.6-4.2,5.6-9.2,5.6c-6.5,0-11.5-5.3-11.5-13.8c0-9.4,5.3-14.6,11.8-14.6
			c5.7,0,8.1,2.7,8.9,4.9c0-1.6,0.1-3.6,0.1-4.2h2.6c0,1-0.1,5.4-0.1,8L543.8,210.4L543.8,210.4L543.8,210.4z M523.4,198.3
			c0,6.7,3.5,11.4,8.9,11.4c6.9,0,9-4.6,9-11.8s-2.2-11.4-8.9-11.4C525.9,186.4,523.4,192,523.4,198.3z"/>
		<path class="st30" d="M565.4,212.2v-0.1c0-4.6,3.8-10.2,11.1-15.9c6.3-4.9,7.9-6.4,7.9-11.1c0-3.9-2.2-7.4-7.5-7.4
			c-4.9,0-7.7,2.3-8.5,7.8h-2.8c0.7-6.2,4.6-10.4,11.3-10.4c7.4,0,10.5,5.1,10.5,10c0,5.7-2.3,7.5-9.1,13.1
			c-5.4,4.4-8.6,7.9-9.7,11.5H589l-0.5,2.7h-23.1L565.4,212.2L565.4,212.2z"/>
		<path class="st30" d="M593.5,212.2v-0.1c0-4.6,3.8-10.2,11.1-15.9c6.3-4.9,7.9-6.4,7.9-11.1c0-3.9-2.2-7.4-7.5-7.4
			c-4.9,0-7.7,2.3-8.5,7.8h-2.8c0.7-6.2,4.6-10.4,11.3-10.4c7.4,0,10.5,5.1,10.5,10c0,5.7-2.3,7.5-9.1,13.1
			c-5.4,4.4-8.6,7.9-9.7,11.5h20.5l-0.5,2.7h-23.1L593.5,212.2L593.5,212.2z"/>
		<path class="st30" d="M639.2,201.8c1.1,5.2,4.6,8.3,11,8.3c7.2,0,9.9-3.6,9.9-7.8c0-4.4-2-7.1-10.5-9.2
			c-8.3-2.1-11.7-4.7-11.7-10.4c0-5.1,3.7-9.9,12.1-9.9s12.2,5.2,12.7,10h-3.1c-0.9-4.2-3.6-7.1-9.7-7.1c-5.5,0-8.6,2.6-8.6,6.9
			s2.6,5.9,9.7,7.8c11,2.7,12.6,7.1,12.6,11.7c0,5.7-4.2,10.6-13.2,10.6c-9.7,0-13.3-5.7-13.9-10.9L639.2,201.8L639.2,201.8z"/>
		<path class="st30" d="M671.1,198.6c0,7.1,3.7,11.6,9,11.6s7-3,8-5.2h2.8c-1.1,3.7-4.1,7.8-11,7.8c-8.4,0-11.7-7.3-11.7-14.3
			c0-7.9,4-14.8,12.1-14.8s11.2,7.4,11.2,12.6v2.2h-20.5L671.1,198.6L671.1,198.6z M688.8,196.3c0-5.6-3.1-9.9-8.5-9.9
			s-8.4,3.9-8.9,9.9H688.8z"/>
		<path class="st30" d="M701.2,208.1v15.2h-2.7v-38.8h2.7c0.1,1.1,0.1,2.7,0.1,4.9c1.7-3.3,4.8-5.7,9.7-5.7
			c6.5,0,11.1,5.6,11.1,13.8c0,10-5.3,15.3-12.1,15.3C705.1,212.9,702.6,210.7,701.2,208.1L701.2,208.1z M719.1,197.8
			c0-6.4-3.1-11.2-8.6-11.2c-6.7,0-9.5,4.2-9.5,11.7s2.2,12.1,9.1,12.1C715.9,210.2,719.1,205.4,719.1,197.8L719.1,197.8z"/>
	</g>
	<g>
		<path class="st29" d="M414.6,1805.3c1.3,5.6,5,8.9,11.9,8.9c7.7,0,10.6-3.8,10.6-8.4s-2.1-7.7-11.3-10
			c-8.9-2.2-12.7-5.1-12.7-11.2c0-5.5,4-10.7,13-10.7s13.1,5.6,13.7,10.7h-3.4c-1-4.5-3.9-7.7-10.5-7.7c-6.1,0-9.4,2.8-9.4,7.5
			s2.8,6.4,10.5,8.3c11.8,2.9,13.6,7.7,13.6,12.7c0,6.2-4.5,11.5-14.2,11.5c-10.5,0-14.3-6.1-15.1-11.8h3.3V1805.3z"/>
		<path class="st29" d="M444.1,1786.6h5.6v-9.4h3v9.4h7.1v2.8h-7.1v19.5c0,3.4,0.7,5.3,3.6,5.3c0.9,0,2.2-0.1,3.1-0.4v2.6
			c-1,0.4-2.5,0.5-3.7,0.5c-3.8,0-6-1.9-6-6.7v-20.9h-5.6V1786.6L444.1,1786.6z"/>
		<path class="st29" d="M488.5,1807.8c0,2.9,0.1,7.6,0.1,8.8h-2.9c-0.1-0.8-0.2-2.8-0.2-5.2c-1.3,3.5-4.3,5.9-9.7,5.9
			c-4.3,0-9.8-1.7-9.8-10.9v-19.9h2.9v19.1c0,4.4,1.4,8.6,7.3,8.6c6.7,0,9.2-3.8,9.2-12.4v-15.4h3v21.4H488.5z"/>
		<path class="st29" d="M521.5,1772.3v35.6c0,2.9,0,5.6,0.1,8.6h-2.9c-0.1-0.7-0.2-3.5-0.2-5c-1.5,3.7-4.9,5.8-10.1,5.8
			c-7.8,0-12.5-6.4-12.5-15.4s5.1-16.1,13.3-16.1c6,0,8.4,2.6,9.3,4.5v-18H521.5L521.5,1772.3z M499.1,1801.8
			c0,8.2,4.3,12.7,9.4,12.7c7.9,0,10.1-5.5,10.1-13.6s-1.9-12.2-9.5-12.2C503,1788.7,499,1793.4,499.1,1801.8L499.1,1801.8z"/>
		<path class="st29" d="M532,1801.9c0.1,7.7,4,12.5,9.7,12.5s7.6-3.2,8.6-5.6h3.1c-1.3,4-4.4,8.5-11.8,8.5
			c-9.1,0-12.7-7.9-12.7-15.5c0-8.6,4.3-16,13-16c9.2,0,12.2,8,12.2,13.6c0,0.8,0,1.7-0.1,2.5H532z M551,1799.3
			c-0.1-5.9-3.3-10.6-9.2-10.6c-6.2,0-9,4.3-9.7,10.6H551z"/>
		<path class="st29" d="M561.3,1794.1c0-2.6,0-5.2-0.1-7.6h2.9c0.1,1,0.2,4.9,0.1,5.7c1.3-3.1,3.8-6.4,10-6.4
			c5.3,0,10.1,3,10.1,11.3v19.4h-3v-19c0-5.3-2.2-8.8-7.4-8.8c-7.1,0-9.6,5.9-9.6,12.5v15.3h-3V1794.1z"/>
		<path class="st29" d="M589.8,1786.6h5.6v-9.4h3v9.4h7.1v2.8h-7.1v19.5c0,3.4,0.7,5.3,3.6,5.3c0.9,0,2.2-0.1,3.1-0.4v2.6
			c-1,0.4-2.5,0.5-3.7,0.5c-3.8,0-6-1.9-6-6.7v-20.9h-5.6L589.8,1786.6L589.8,1786.6L589.8,1786.6z"/>
		<path class="st29" d="M612.2,1801.9c0.1,7.7,4,12.5,9.7,12.5s7.6-3.2,8.6-5.6h3.1c-1.3,4-4.4,8.5-11.8,8.5
			c-9.1,0-12.7-7.9-12.7-15.5c0-8.6,4.3-16,13-16c9.2,0,12.2,8,12.2,13.6c0,0.8,0,1.7-0.1,2.5H612.2z M631.2,1799.3
			c-0.1-5.9-3.3-10.6-9.2-10.6c-6.2,0-9,4.3-9.7,10.6H631.2z"/>
		<path class="st29" d="M641.8,1794.1c0-2.6,0-5.2-0.1-7.6h2.9c0.1,1,0.2,4.9,0.1,5.7c1.3-3.1,3.8-6.4,10-6.4
			c5.3,0,10.1,3,10.1,11.3v19.4h-3v-19c0-5.3-2.2-8.8-7.4-8.8c-7.1,0-9.6,5.9-9.6,12.5v15.3h-3V1794.1z"/>
	</g>
	<rect x="566.3" y="1279.5" class="st31" width="459.1" height="372"/>
	<rect x="566.3" y="825.9" class="st31" width="459.1" height="372"/>
	<text transform="matrix(1 0 0 1 429.86 1880.86)" class="st28 st32 st33">2</text>
	<text transform="matrix(1 0 0 1 456.78 1880.86)" class="st28 st32 st33">6</text>
	<text transform="matrix(1 0 0 1 485.67 1880.86)" class="st28 st32 st33">1</text>
	<text transform="matrix(1 0 0 1 504.22 1880.86)" class="st28 st32 st33"> </text>
	<text transform="matrix(1 0 0 1 517.84 1880.86)" class="st28 st32 st33">d</text>
	<text transform="matrix(1 0 0 1 547.09 1880.86)" class="st28 st32 st33">a</text>
	<text transform="matrix(1 0 0 1 574.5 1880.86)" class="st28 st32 st33">g</text>
	<text transform="matrix(1 0 0 1 603.43 1880.86)" class="st28 st32 st33">ar</text>
</g>
<path class="st31" d="M66.5,429.5h417c6.6,0,12,5.4,12,12v51c0,6.6-5.4,12-12,12h-417c-6.6,0-12-5.4-12-12v-51
	C54.5,434.9,59.9,429.5,66.5,429.5z"/>
<linearGradient id="SVGID_00000049222792032955575780000004019192146805741963_" gradientUnits="userSpaceOnUse" x1="566" y1="908" x2="1025" y2="908" gradientTransform="matrix(1 0 0 -1 0 1920)">
	<stop  offset="6.000000e-02" style="stop-color:#C0068D"/>
	<stop  offset="0.32" style="stop-color:#C0068D"/>
	<stop  offset="0.99" style="stop-color:#1C0030"/>
</linearGradient>
<rect x="566" y="826" style="opacity:0.37;fill:url(#SVGID_00000049222792032955575780000004019192146805741963_);enable-background:new    ;" width="459" height="372"/>
<linearGradient id="SVGID_00000132796485283389115010000000837315527866196612_" gradientUnits="userSpaceOnUse" x1="54" y1="738.5" x2="495" y2="738.5" gradientTransform="matrix(1 0 0 -1 0 1920)">
	<stop  offset="6.000000e-02" style="stop-color:#C0068D"/>
	<stop  offset="0.32" style="stop-color:#C0068D"/>
	<stop  offset="0.99" style="stop-color:#1C0030"/>
</linearGradient>
<path style="opacity:0.37;fill:url(#SVGID_00000132796485283389115010000000837315527866196612_);enable-background:new    ;" d="
	M66,1144h417c6.6,0,12,5.4,12,12v51c0,6.6-5.4,12-12,12H66c-6.6,0-12-5.4-12-12v-51C54,1149.4,59.4,1144,66,1144z"/>
<linearGradient id="SVGID_00000083787320411319147280000002427624805768455588_" gradientUnits="userSpaceOnUse" x1="54" y1="840.5" x2="495" y2="840.5" gradientTransform="matrix(1 0 0 -1 0 1920)">
	<stop  offset="6.000000e-02" style="stop-color:#C0068D"/>
	<stop  offset="0.32" style="stop-color:#C0068D"/>
	<stop  offset="0.99" style="stop-color:#1C0030"/>
</linearGradient>
<path style="opacity:0.37;fill:url(#SVGID_00000083787320411319147280000002427624805768455588_);enable-background:new    ;" d="
	M66,1042h417c6.6,0,12,5.4,12,12v51c0,6.6-5.4,12-12,12H66c-6.6,0-12-5.4-12-12v-51C54,1047.4,59.4,1042,66,1042z"/>
<linearGradient id="SVGID_00000016041292766962028360000007772182495000950178_" gradientUnits="userSpaceOnUse" x1="54" y1="942.5" x2="495" y2="942.5" gradientTransform="matrix(1 0 0 -1 0 1920)">
	<stop  offset="6.000000e-02" style="stop-color:#C0068D"/>
	<stop  offset="0.32" style="stop-color:#C0068D"/>
	<stop  offset="0.99" style="stop-color:#1C0030"/>
</linearGradient>
<path style="opacity:0.37;fill:url(#SVGID_00000016041292766962028360000007772182495000950178_);enable-background:new    ;" d="
	M66,940h417c6.6,0,12,5.4,12,12v51c0,6.6-5.4,12-12,12H66c-6.6,0-12-5.4-12-12v-51C54,945.4,59.4,940,66,940z"/>
<linearGradient id="SVGID_00000060738352442008758170000011461758174366427315_" gradientUnits="userSpaceOnUse" x1="55" y1="1044.5" x2="496" y2="1044.5" gradientTransform="matrix(1 0 0 -1 0 1920)">
	<stop  offset="6.000000e-02" style="stop-color:#C0068D"/>
	<stop  offset="0.32" style="stop-color:#C0068D"/>
	<stop  offset="0.99" style="stop-color:#1C0030"/>
</linearGradient>
<path style="opacity:0.37;fill:url(#SVGID_00000060738352442008758170000011461758174366427315_);enable-background:new    ;" d="
	M67,838h417c6.6,0,12,5.4,12,12v51c0,6.6-5.4,12-12,12H67c-6.6,0-12-5.4-12-12v-51C55,843.4,60.4,838,67,838z"/>
<linearGradient id="SVGID_00000117650012732300750050000005284619322397402784_" gradientUnits="userSpaceOnUse" x1="54" y1="1146.5" x2="495" y2="1146.5" gradientTransform="matrix(1 0 0 -1 0 1920)">
	<stop  offset="6.000000e-02" style="stop-color:#C0068D"/>
	<stop  offset="0.32" style="stop-color:#C0068D"/>
	<stop  offset="0.99" style="stop-color:#1C0030"/>
</linearGradient>
<path style="opacity:0.37;fill:url(#SVGID_00000117650012732300750050000005284619322397402784_);enable-background:new    ;" d="
	M66,736h417c6.6,0,12,5.4,12,12v51c0,6.6-5.4,12-12,12H66c-6.6,0-12-5.4-12-12v-51C54,741.4,59.4,736,66,736z"/>
<linearGradient id="SVGID_00000021823199939929334050000000987613886981679765_" gradientUnits="userSpaceOnUse" x1="54" y1="1248.5" x2="495" y2="1248.5" gradientTransform="matrix(1 0 0 -1 0 1920)">
	<stop  offset="6.000000e-02" style="stop-color:#C0068D"/>
	<stop  offset="0.32" style="stop-color:#C0068D"/>
	<stop  offset="0.99" style="stop-color:#1C0030"/>
</linearGradient>
<path style="opacity:0.37;fill:url(#SVGID_00000021823199939929334050000000987613886981679765_);enable-background:new    ;" d="
	M66,634h417c6.6,0,12,5.4,12,12v51c0,6.6-5.4,12-12,12H66c-6.6,0-12-5.4-12-12v-51C54,639.4,59.4,634,66,634z"/>
<linearGradient id="SVGID_00000031208155819938761690000002168710660759477637_" gradientUnits="userSpaceOnUse" x1="54" y1="1351.5" x2="495" y2="1351.5" gradientTransform="matrix(1 0 0 -1 0 1920)">
	<stop  offset="6.000000e-02" style="stop-color:#C0068D"/>
	<stop  offset="0.32" style="stop-color:#C0068D"/>
	<stop  offset="0.99" style="stop-color:#1C0030"/>
</linearGradient>
<path style="opacity:0.37;fill:url(#SVGID_00000031208155819938761690000002168710660759477637_);enable-background:new    ;" d="
	M66,531h417c6.6,0,12,5.4,12,12v51c0,6.6-5.4,12-12,12H66c-6.6,0-12-5.4-12-12v-51C54,536.4,59.4,531,66,531z"/>
<linearGradient id="SVGID_00000096049193992109540020000001525000793534697898_" gradientUnits="userSpaceOnUse" x1="55" y1="1452.5" x2="496" y2="1452.5" gradientTransform="matrix(1 0 0 -1 0 1920)">
	<stop  offset="6.000000e-02" style="stop-color:#C0068D"/>
	<stop  offset="0.32" style="stop-color:#C0068D"/>
	<stop  offset="0.99" style="stop-color:#1C0030"/>
</linearGradient>
<path style="opacity:0.37;fill:url(#SVGID_00000096049193992109540020000001525000793534697898_);enable-background:new    ;" d="
	M67,430h417c6.6,0,12,5.4,12,12v51c0,6.6-5.4,12-12,12H67c-6.6,0-12-5.4-12-12v-51C55,435.4,60.4,430,67,430z"/>
<linearGradient id="SVGID_00000084516595083922089910000014672809880424496314_" gradientUnits="userSpaceOnUse" x1="566" y1="455" x2="1025" y2="455" gradientTransform="matrix(1 0 0 -1 0 1920)">
	<stop  offset="6.000000e-02" style="stop-color:#C0068D"/>
	<stop  offset="0.32" style="stop-color:#C0068D"/>
	<stop  offset="0.99" style="stop-color:#1C0030"/>
</linearGradient>
<rect x="566" y="1279" style="opacity:0.37;fill:url(#SVGID_00000084516595083922089910000014672809880424496314_);enable-background:new    ;" width="459" height="372"/>
<image style="overflow:visible;enable-background:new    ;" width="436" height="303" xlink:href="FD702431.png"  transform="matrix(1.1426 0 0 1.1426 35 1288.1738)">
</image>
<path class="st31" d="M66.5,531.5h417c6.6,0,12,5.4,12,12v51c0,6.6-5.4,12-12,12h-417c-6.6,0-12-5.4-12-12v-51
	C54.5,536.9,59.9,531.5,66.5,531.5z"/>
<path class="st31" d="M66.5,633.5h417c6.6,0,12,5.4,12,12v51c0,6.6-5.4,12-12,12h-417c-6.6,0-12-5.4-12-12v-51
	C54.5,638.9,59.9,633.5,66.5,633.5z"/>
<path class="st31" d="M66.5,735.5h417c6.6,0,12,5.4,12,12v51c0,6.6-5.4,12-12,12h-417c-6.6,0-12-5.4-12-12v-51
	C54.5,740.9,59.9,735.5,66.5,735.5z"/>
<path class="st31" d="M66.5,837.5h417c6.6,0,12,5.4,12,12v51c0,6.6-5.4,12-12,12h-417c-6.6,0-12-5.4-12-12v-51
	C54.5,842.9,59.9,837.5,66.5,837.5z"/>
<text transform="matrix(1 0 0 1 54.48 402.89)" class="st28 st32 st33">S</text>
<text transform="matrix(1 0 0 1 86.01 402.89)" class="st28 st32 st33">k</text>
<text transform="matrix(1 0 0 1 112.46 402.89)" class="st28 st32 st33">ån</text>
<text transform="matrix(1 0 0 1 169.33 402.89)" class="st28 st32 st33">e</text>
<text transform="matrix(1 0 0 1 196.84 402.89)" class="st28 st32 st33">t</text>
<text transform="matrix(1 0 0 1 212.42 402.89)" class="st28 st32 st33 st44">r</text>
<text transform="matrix(1 0 0 1 229.38 402.89)" class="st28 st32 st33">a</text>
<text transform="matrix(1 0 0 1 256.51 402.89)" class="st28 st32 st33">f</text>
<text transform="matrix(1 0 0 1 271.09 402.89)" class="st28 st32 st33">i</text>
<text transform="matrix(1 0 0 1 283.01 402.89)" class="st28 st32 st33">k</text>
<text transform="matrix(1 0 0 1 308.29 402.89)" class="st28 st32 st33">en</text>
<path class="st31" d="M66.5,939.5h417c6.6,0,12,5.4,12,12v51c0,6.6-5.4,12-12,12h-417c-6.6,0-12-5.4-12-12v-51
	C54.5,944.9,59.9,939.5,66.5,939.5z"/>
<path class="st31" d="M66.5,1041.5h417c6.6,0,12,5.4,12,12v51c0,6.6-5.4,12-12,12h-417c-6.6,0-12-5.4-12-12v-51
	C54.5,1046.9,59.9,1041.5,66.5,1041.5z"/>
<path class="st31" d="M66.5,1143.5h417c6.6,0,12,5.4,12,12v51c0,6.6-5.4,12-12,12h-417c-6.6,0-12-5.4-12-12v-51
	C54.5,1148.9,59.9,1143.5,66.5,1143.5z"/>
<text transform="matrix(1 0 0 1 203.72 482.04)" class="st28 st32 st45 st44">A</text>
<text transform="matrix(1 0 0 1 231.73 482.04)" class="st28 st32 st45">v</text>
<text transform="matrix(1 0 0 1 253.08 482.04)" class="st28 st32 st45">g</text>
<text transform="matrix(1 0 0 1 278.19 482.04)" class="st28 st32 st45">ång </text>
<text transform="matrix(1 0 0 1 364.9 482.04)" class="st28 st32 st45">1</text>
<text transform="matrix(1 0 0 1 381.23 482.04)" class="st28 st32 st45">4</text>
<text transform="matrix(1 0 0 1 405.7 482.04)" class="st28 st32 st45">:</text>
<text transform="matrix(1 0 0 1 416.6 482.04)" class="st28 st32 st45">3</text>
<text transform="matrix(1 0 0 1 442.13 482.04)" class="st28 st32 st45">4</text>
<text transform="matrix(1 0 0 1 123.55 481.97)" class="st28 st32 st45">5</text>
<text transform="matrix(1 0 0 1 203.72 583.04)" class="st28 st32 st45 st44">A</text>
<text transform="matrix(1 0 0 1 231.73 583.04)" class="st28 st32 st45">v</text>
<text transform="matrix(1 0 0 1 253.08 583.04)" class="st28 st32 st45">g</text>
<text transform="matrix(1 0 0 1 278.19 583.04)" class="st28 st32 st45">ång </text>
<text transform="matrix(1 0 0 1 364.9 583.04)" class="st28 st32 st45">0</text>
<text transform="matrix(1 0 0 1 390.2 583.04)" class="st28 st32 st45">9</text>
<text transform="matrix(1 0 0 1 414.95 583.04)" class="st28 st32 st45">:</text>
<text transform="matrix(1 0 0 1 425.35 583.04)" class="st28 st32 st45">4</text>
<text transform="matrix(1 0 0 1 450.19 583.04)" class="st28 st32 st45">5</text>
<text transform="matrix(1 0 0 1 123.55 582.97)" class="st28 st32 st45">2</text>
<g transform="translate(63 541) scale(.86)">
</g>
<text transform="matrix(1 0 0 1 203.72 686.04)" class="st28 st32 st45 st44">A</text>
<text transform="matrix(1 0 0 1 231.73 686.04)" class="st28 st32 st45">v</text>
<text transform="matrix(1 0 0 1 253.08 686.04)" class="st28 st32 st45">g</text>
<text transform="matrix(1 0 0 1 278.19 686.04)" class="st28 st32 st45">ång </text>
<text transform="matrix(1 0 0 1 364.9 686.04)" class="st28 st32 st45">0</text>
<text transform="matrix(1 0 0 1 390.2 686.04)" class="st28 st32 st45">9</text>
<text transform="matrix(1 0 0 1 414.95 686.04)" class="st28 st32 st45">:</text>
<text transform="matrix(1 0 0 1 425.35 686.04)" class="st28 st32 st45">4</text>
<text transform="matrix(1 0 0 1 450.19 686.04)" class="st28 st32 st45">5</text>
<text transform="matrix(1 0 0 1 123.55 685.97)" class="st28 st32 st45">2</text>
<g transform="translate(63 644) scale(.86)">
</g>
<text transform="matrix(1 0 0 1 203.72 788.04)" class="st28 st32 st45 st44">A</text>
<text transform="matrix(1 0 0 1 231.73 788.04)" class="st28 st32 st45">v</text>
<text transform="matrix(1 0 0 1 253.08 788.04)" class="st28 st32 st45">g</text>
<text transform="matrix(1 0 0 1 278.19 788.04)" class="st28 st32 st45">ång </text>
<text transform="matrix(1 0 0 1 364.9 788.04)" class="st28 st32 st45">1</text>
<text transform="matrix(1 0 0 1 381.23 788.04)" class="st28 st32 st45">4</text>
<text transform="matrix(1 0 0 1 405.7 788.04)" class="st28 st32 st45">:</text>
<text transform="matrix(1 0 0 1 416.6 788.04)" class="st28 st32 st45">3</text>
<text transform="matrix(1 0 0 1 442.13 788.04)" class="st28 st32 st45">4</text>
<text transform="matrix(1 0 0 1 123.55 787.97)" class="st28 st32 st45">5</text>
<g transform="translate(63 746) scale(.86)">
</g>
<text transform="matrix(1 0 0 1 203.72 889.04)" class="st28 st32 st45 st44">A</text>
<text transform="matrix(1 0 0 1 231.73 889.04)" class="st28 st32 st45">v</text>
<text transform="matrix(1 0 0 1 253.08 889.04)" class="st28 st32 st45">g</text>
<text transform="matrix(1 0 0 1 278.19 889.04)" class="st28 st32 st45">ång </text>
<text transform="matrix(1 0 0 1 364.9 889.04)" class="st28 st32 st45">1</text>
<text transform="matrix(1 0 0 1 381.23 889.04)" class="st28 st32 st45">4</text>
<text transform="matrix(1 0 0 1 405.7 889.04)" class="st28 st32 st45">:</text>
<text transform="matrix(1 0 0 1 416.6 889.04)" class="st28 st32 st45">3</text>
<text transform="matrix(1 0 0 1 442.13 889.04)" class="st28 st32 st45">4</text>
<text transform="matrix(1 0 0 1 123.55 888.97)" class="st28 st32 st45">5</text>
<text transform="matrix(1 0 0 1 203.72 992.04)" class="st28 st32 st45 st44">A</text>
<text transform="matrix(1 0 0 1 231.73 992.04)" class="st28 st32 st45">v</text>
<text transform="matrix(1 0 0 1 253.08 992.04)" class="st28 st32 st45">g</text>
<text transform="matrix(1 0 0 1 278.19 992.04)" class="st28 st32 st45">ång </text>
<text transform="matrix(1 0 0 1 364.9 992.04)" class="st28 st32 st45">0</text>
<text transform="matrix(1 0 0 1 390.2 992.04)" class="st28 st32 st45">9</text>
<text transform="matrix(1 0 0 1 414.95 992.04)" class="st28 st32 st45">:</text>
<text transform="matrix(1 0 0 1 425.35 992.04)" class="st28 st32 st45">4</text>
<text transform="matrix(1 0 0 1 450.19 992.04)" class="st28 st32 st45">5</text>
<text transform="matrix(1 0 0 1 123.55 991.97)" class="st28 st32 st45">2</text>
<g transform="translate(63 950) scale(.86)">
</g>
<text transform="matrix(1 0 0 1 203.72 1093.04)" class="st28 st32 st45 st44">A</text>
<text transform="matrix(1 0 0 1 231.73 1093.04)" class="st28 st32 st45">v</text>
<text transform="matrix(1 0 0 1 253.08 1093.04)" class="st28 st32 st45">g</text>
<text transform="matrix(1 0 0 1 278.19 1093.04)" class="st28 st32 st45">ång </text>
<text transform="matrix(1 0 0 1 364.9 1093.04)" class="st28 st32 st45">1</text>
<text transform="matrix(1 0 0 1 381.23 1093.04)" class="st28 st32 st45">4</text>
<text transform="matrix(1 0 0 1 405.7 1093.04)" class="st28 st32 st45">:</text>
<text transform="matrix(1 0 0 1 416.6 1093.04)" class="st28 st32 st45">3</text>
<text transform="matrix(1 0 0 1 442.13 1093.04)" class="st28 st32 st45">4</text>
<text transform="matrix(1 0 0 1 123.55 1092.97)" class="st28 st32 st45">5</text>
<text transform="matrix(1 0 0 1 203.72 1195.04)" class="st28 st32 st45 st44">A</text>
<text transform="matrix(1 0 0 1 231.73 1195.04)" class="st28 st32 st45">v</text>
<text transform="matrix(1 0 0 1 253.08 1195.04)" class="st28 st32 st45">g</text>
<text transform="matrix(1 0 0 1 278.19 1195.04)" class="st28 st32 st45">ång </text>
<text transform="matrix(1 0 0 1 364.9 1195.04)" class="st28 st32 st45">0</text>
<text transform="matrix(1 0 0 1 390.2 1195.04)" class="st28 st32 st45">9</text>
<text transform="matrix(1 0 0 1 414.95 1195.04)" class="st28 st32 st45">:</text>
<text transform="matrix(1 0 0 1 425.35 1195.04)" class="st28 st32 st45">4</text>
<text transform="matrix(1 0 0 1 450.19 1195.04)" class="st28 st32 st45">5</text>
<text transform="matrix(1 0 0 1 123.55 1194.97)" class="st28 st32 st45">2</text>
<g transform="translate(63 1153) scale(.86)">
</g>
<g transform="translate(63 746) scale(.86)">
</g>
<g transform="translate(63 848) scale(.86)">
</g>
<g transform="translate(63 1052) scale(.86)">
</g>
<g>
</g>
<text transform="matrix(1 0 0 1 581.51 429.23)" class="st28 st32 st45 st44">L</text>
<text transform="matrix(1 0 0 1 605.66 429.23)" class="st28 st32 st45">U</text>
<text transform="matrix(1 0 0 1 638.5 429.23)" class="st28 st32 st45">N</text>
<text transform="matrix(1 0 0 1 672.54 429.23)" class="st28 st32 st45">C</text>
<text transform="matrix(1 0 0 1 703.96 429.23)" class="st28 st32 st45">H </text>
<text transform="matrix(1 0 0 1 749.22 429.23)" class="st28 st32 st45">I</text>
<text transform="matrix(1 0 0 1 761.64 429.23)" class="st28 st32 st45">D</text>
<text transform="matrix(1 0 0 1 794.16 429.23)" class="st28 st32 st45">A</text>
<text transform="matrix(1 0 0 1 823.47 429.23)" class="st28 st32 st45">G</text>
<text transform="matrix(1 0 0 1 857.74 429.23)" class="st28 st32 st45">:</text>
<rect y="277" class="st46" width="22" height="1435"/>
<rect x="1058" y="277" class="st46" width="22" height="1437"/>
<path class="st47" d="M110.2,760h-0.8l-0.4-5.9c-0.1-1.1-0.6-3.7-3.5-5.7c-1.7-1.1-5.7-1.7-8.9-1.8h-7c-3.2,0.1-6,0.7-7.6,1.8
	c-3,2-3.5,4.5-3.6,5.7L78,760h-0.9c-1.1,0-2,0.9-2,2.1v5.9c0,1,1.1,2.7,2.1,3.3c-0.2,3.4-0.5,6.9-0.6,10.3c0,1-0.9,4.9,2.4,7.3v3.8
	c0,0.6,0.4,1,1,1h2.8c0.5,0,1-0.5,1-1v-2.4c0.6,0,1.2,0.1,1.9,0.1h15.9c0.7,0,1.3-0.1,1.8-0.1v2.4c0,0.6,0.4,1,1,1h2.8
	c0.5,0,1-0.5,1-1v-3.9c3.2-2.4,2.5-6.2,2.5-7.2c0-0.7,0-2.8-0.5-10.3c1-0.6,2-2.3,2-3.3v-5.9C112.1,760.9,111.3,760,110.2,760z
	 M87.1,751.5c0-0.6,0.4-1,1-1H99c0.5,0,1,0.5,1,1v0.9c0,0.6-0.4,1-1,1H88.1c-0.5,0-1-0.5-1-1L87.1,751.5L87.1,751.5z M82.4,785.3
	c-1.6,0-2.8-1.4-2.8-3c0-1.7,1.3-3,2.8-3c1.6,0,2.8,1.4,2.8,3C85.3,784,84,785.3,82.4,785.3z M99.7,775.5c-1,0.7-2.9,1-4.9,1h-2.7
	c-2-0.1-3.9-0.4-4.9-1c-1.8-1.2-2-2.6-2.1-3.3c0,0-1.1-8-1.1-8.6c0-0.7-0.6-3.2,1.6-4.6c1-0.7,2-0.7,4-0.8h7.6c2,0.1,3,0.1,4,0.8
	c2.2,1.5,1.6,4,1.6,4.6c0,0.7-1.1,8.6-1.1,8.6C101.7,772.9,101.6,774.3,99.7,775.5z M101.9,782.3c0-1.7,1.3-3,2.8-3
	c1.6,0,2.8,1.4,2.8,3c0,1.7-1.3,3-2.8,3C103.1,785.3,101.9,784,101.9,782.3z"/>
</svg>
