<?xml version="1.0" encoding="utf-8"?>
<!-- Generator: Adobe Illustrator 26.5.0, SVG Export Plug-In . SVG Version: 6.00 Build 0)  -->
<svg version="1.1" id="Lager_2_00000063591398362197401360000010800340541210461629_"
	 xmlns="http://www.w3.org/2000/svg" xmlns:xlink="http://www.w3.org/1999/xlink" x="0px" y="0px" viewBox="0 0 208 206"
	 style="enable-background:new 0 0 208 206;" xml:space="preserve">
<style type="text/css">
	.st0{fill:none;stroke:#FFFFFF;stroke-width:3;stroke-miterlimit:10;}
</style>
<g id="Cloud">
	<path class="st0" d="M27,135.6c-4.6-4.7-7.4-10.7-7.4-17.2c0-15.4,15.5-27.9,34.6-27.9c5,0,9.7,0.9,14,2.4c0-1.3,0.2-2.6,0.4-3.9
		C71.3,71.7,86,59.7,101.5,62c12,1.8,20.9,11.7,23.2,24.1c6.4-3.1,13.6-3.7,20.4-1.4c6.8,2.4,12,7.2,15.1,13.5c0,0,23.1,3.2,24.1,24
		c0,13.2-10.7,24-24,24H56.6c-0.8,0-1.6,0.1-2.4,0.1C43.2,146.2,33.3,142.1,27,135.6z"/>
</g>
</svg>
