<?xml version="1.0" encoding="UTF-8"?>
<svg id="Lager_2" data-name="Lager 2" xmlns="http://www.w3.org/2000/svg" viewBox="0 0 208 206">
  <defs>
    <style>
      .cls-1 {
        fill: none;
        stroke: #fff;
        stroke-miterlimit: 10;
        stroke-width: 3px;
      }
    </style>
  </defs>
  <g id="Cloud">
    <path class="cls-1" d="M160.42,85.21h-.19c-3.16-6.22-8.34-11.11-15.12-13.47-6.83-2.35-14.03-1.7-20.44,1.37-2.26-12.34-11.21-22.28-23.17-24.07-15.54-2.35-30.24,9.65-32.92,26.94-.19,1.32-.33,2.59-.38,3.91-4.29-1.51-9-2.4-13.99-2.4-19.07,0-34.57,12.48-34.57,27.88s15.45,27.88,34.57,27.88c.8,0,1.6-.05,2.4-.09h103.75c13.23,0,23.97-10.74,23.97-23.97,.05-13.28-10.69-23.97-23.93-23.97Z"/>
  </g>
  <line class="cls-1" x1="52.5" y1="143.5" x2="40.5" y2="164.5"/>
  <line class="cls-1" x1="79.39" y1="143.58" x2="67.39" y2="164.58"/>
  <line class="cls-1" x1="131.39" y1="143.58" x2="119.39" y2="164.58"/>
  <line class="cls-1" x1="157.39" y1="143.58" x2="145.39" y2="164.58"/>
  <line class="cls-1" x1="105.39" y1="143.58" x2="93.39" y2="164.58"/>
</svg>