<?xml version="1.0" encoding="UTF-8"?>
<svg id="Lager_2" data-name="Lager 2" xmlns="http://www.w3.org/2000/svg" viewBox="0 0 208 206">
  <defs>
    <style>
      .cls-1 {
        fill: none;
        stroke: #fff;
        stroke-miterlimit: 10;
        stroke-width: 3px;
      }
    </style>
  </defs>
  <g id="Cloud">
    <path class="cls-1" d="M160.42,98.21h-.19c-3.16-6.22-8.34-11.11-15.12-13.47-6.83-2.35-14.03-1.7-20.44,1.37-2.26-12.34-11.21-22.28-23.17-24.07-15.54-2.35-30.24,9.65-32.92,26.94-.19,1.32-.33,2.59-.38,3.91-4.29-1.51-9-2.4-13.99-2.4-19.07,0-34.57,12.48-34.57,27.88s15.45,27.88,34.57,27.88c.8,0,1.6-.05,2.4-.09h103.75c13.23,0,23.97-10.74,23.97-23.97,.05-13.28-10.69-23.97-23.93-23.97Z"/>
  </g>
  <path class="cls-1" d="M108.86,65.13c10.05-17.79,31.65-24.61,48.24-15.23s21.88,31.4,11.83,49.19"/>
  <line class="cls-1" x1="118.14" y1="53.56" x2="105.86" y2="44.44"/>
  <line class="cls-1" x1="165.64" y1="56.44" x2="176.46" y2="45.63"/>
  <line class="cls-1" x1="132.91" y1="47.13" x2="127.18" y2="32.94"/>
  <line class="cls-1" x1="187.13" y1="64.48" x2="172.71" y2="69.59"/>
  <line class="cls-1" x1="153.54" y1="31.51" x2="150.86" y2="46.57"/>
  <line class="cls-1" x1="188.78" y1="87.1" x2="173.63" y2="84.97"/>
</svg>