<?xml version="1.0" encoding="UTF-8"?>
<svg id="Lager_3" data-name="Lager 3" xmlns="http://www.w3.org/2000/svg" viewBox="0 0 208 206">
  <defs>
    <style>
      .cls-1 {
        fill: none;
        stroke: #fff;
        stroke-miterlimit: 10;
        stroke-width: 3px;
      }
    </style>
  </defs>
  <circle class="cls-1" cx="102" cy="104" r="58"/>
  <path class="cls-1" d="M62.29,146.94c-3.96,3.82-7.89,7.67-11.79,11.56"/>
  <path class="cls-1" d="M157.5,48.5c-4.95,4.72-9.89,9.44-14.84,14.16"/>
  <path class="cls-1" d="M146.37,142.84c4.34,4.26,8.7,8.5,13.13,12.66"/>
  <path class="cls-1" d="M48.5,47.5c4.7,4.48,9.4,8.96,14.11,13.44"/>
  <path class="cls-1" d="M28.9,75.8c5.99,2.51,11.98,5.02,17.97,7.54"/>
  <path class="cls-1" d="M174.1,73.4c-6.14,2.11-12.29,4.23-18.43,6.34"/>
  <path class="cls-1" d="M23.15,103.81c6.49-.15,12.99-.31,19.48-.47"/>
  <path class="cls-1" d="M180.63,103.34c-6.49,.15-12.99,.31-19.48,.47"/>
  <path class="cls-1" d="M101.65,26.83c.15,6.49,.31,12.99,.47,19.48"/>
  <path class="cls-1" d="M101.65,161.83c.15,6.49,.31,12.99,.47,19.48"/>
  <path class="cls-1" d="M31,136.55c5.93-2.65,11.86-5.31,17.78-7.97"/>
  <path class="cls-1" d="M155.49,126c6.26,1.72,12.53,3.43,18.8,5.15"/>
  <path class="cls-1" d="M81.59,157.56c-2.47,6.01-4.94,12.02-7.41,18.02"/>
  <path class="cls-1" d="M126.81,155.72c2.72,5.9,5.44,11.8,8.16,17.69"/>
  <path class="cls-1" d="M72.98,33.27c1.93,6.2,3.87,12.4,5.81,18.6"/>
  <path class="cls-1" d="M131.2,33.41c-2.21,6.11-4.41,12.22-6.61,18.33"/>
</svg>