<?xml version="1.0" encoding="UTF-8"?>
<svg xmlns="http://www.w3.org/2000/svg" xmlns:xlink="http://www.w3.org/1999/xlink" viewBox="0 0 1080 1920">
  <defs>
    <style>
      .cls-1 {
        fill: #7f8080;
        font-size: 20px;
      }

      .cls-1, .cls-2, .cls-3 {
        font-family: ArialMT, Arial;
      }

      .cls-4 {
        fill: url(#linear-gradient-2);
      }

      .cls-5, .cls-6, .cls-3 {
        fill: #fff;
      }

      .cls-7 {
        fill: url(#linear-gradient-17);
      }

      .cls-2 {
        fill: #bfbfbf;
        font-size: 27px;
      }

      .cls-8 {
        fill: url(#linear-gradient-15);
      }

      .cls-6 {
        fill-rule: evenodd;
      }

      .cls-9 {
        fill: url(#linear-gradient-18);
      }

      .cls-10 {
        fill: #131022;
      }

      .cls-10, .cls-11 {
        opacity: .8;
      }

      .cls-12 {
        fill: url(#linear-gradient-14);
      }

      .cls-13 {
        fill: url(#linear-gradient-20);
      }

      .cls-14 {
        fill: #21213f;
      }

      .cls-15 {
        fill: url(#linear-gradient-11);
      }

      .cls-16 {
        opacity: .37;
      }

      .cls-16, .cls-3 {
        isolation: isolate;
      }

      .cls-17 {
        fill: url(#linear-gradient-10);
      }

      .cls-18 {
        fill: url(#radial-gradient);
      }

      .cls-19 {
        fill: url(#linear-gradient-16);
      }

      .cls-20 {
        fill: url(#linear-gradient-5);
        stroke: url(#linear-gradient-6);
      }

      .cls-20, .cls-21 {
        stroke-miterlimit: 10;
        stroke-width: 4px;
      }

      .cls-22 {
        fill: url(#linear-gradient-21);
      }

      .cls-23 {
        fill: #05053a;
      }

      .cls-24 {
        fill: #c0068d;
      }

      .cls-11 {
        fill: #100c1e;
      }

      .cls-25 {
        fill: url(#linear-gradient-7);
      }

      .cls-26 {
        fill: #18182d;
      }

      .cls-27 {
        fill: url(#linear-gradient-24);
      }

      .cls-28 {
        fill: url(#linear-gradient-9);
      }

      .cls-29 {
        fill: url(#linear-gradient-22);
      }

      .cls-30 {
        fill: url(#linear-gradient-3);
      }

      .cls-31 {
        fill: url(#linear-gradient);
      }

      .cls-3 {
        font-size: 35px;
      }

      .cls-21 {
        fill: none;
        stroke: url(#linear-gradient-4);
      }

      .cls-32 {
        fill: url(#linear-gradient-23);
      }

      .cls-33 {
        fill: url(#linear-gradient-19);
      }

      .cls-34 {
        fill: url(#linear-gradient-8);
      }

      .cls-35 {
        fill: url(#linear-gradient-12);
      }

      .cls-36 {
        fill: url(#linear-gradient-13);
      }
    </style>
    <linearGradient id="linear-gradient" x1="677.56" y1="-1259.91" x2="705.86" y2="-1259.91" gradientTransform="translate(0 2470)" gradientUnits="userSpaceOnUse">
      <stop offset=".11" stop-color="#c0068d"/>
      <stop offset=".81" stop-color="#1a002f"/>
      <stop offset=".91" stop-color="#1c0031"/>
      <stop offset="1" stop-color="#1c0030"/>
    </linearGradient>
    <linearGradient id="linear-gradient-2" x1="481.46" y1="-1132.38" x2="535.12" y2="-1132.38" gradientTransform="translate(0 2470)" gradientUnits="userSpaceOnUse">
      <stop offset=".11" stop-color="#c0068d"/>
      <stop offset=".81" stop-color="#1a002f"/>
      <stop offset=".91" stop-color="#1c0031"/>
      <stop offset="1" stop-color="#1c0030"/>
    </linearGradient>
    <linearGradient id="linear-gradient-3" x1="386.23" y1="-1281.11" x2="457.19" y2="-1281.11" gradientTransform="translate(0 2470)" gradientUnits="userSpaceOnUse">
      <stop offset=".11" stop-color="#c0068d"/>
      <stop offset=".81" stop-color="#1a002f"/>
      <stop offset=".91" stop-color="#1c0031"/>
      <stop offset="1" stop-color="#1c0030"/>
    </linearGradient>
    <linearGradient id="linear-gradient-4" x1="435.56" y1="-1139.85" x2="541.02" y2="-1139.85" gradientTransform="translate(0 2470)" gradientUnits="userSpaceOnUse">
      <stop offset=".11" stop-color="#c0068d"/>
      <stop offset=".81" stop-color="#1a002f"/>
      <stop offset=".91" stop-color="#1c0031"/>
      <stop offset="1" stop-color="#1c0030"/>
    </linearGradient>
    <linearGradient id="linear-gradient-5" x1="551.58" y1="-1091.96" x2="630.35" y2="-1091.96" gradientTransform="translate(0 2470)" gradientUnits="userSpaceOnUse">
      <stop offset=".11" stop-color="#c0068d"/>
      <stop offset=".81" stop-color="#1a002f"/>
      <stop offset=".91" stop-color="#1c0031"/>
      <stop offset="1" stop-color="#1c0030"/>
    </linearGradient>
    <linearGradient id="linear-gradient-6" x1="549.58" y1="-1091.96" x2="632.35" y2="-1091.96" gradientTransform="translate(0 2470)" gradientUnits="userSpaceOnUse">
      <stop offset=".11" stop-color="#c0068d"/>
      <stop offset=".81" stop-color="#1a002f"/>
      <stop offset=".91" stop-color="#1c0031"/>
      <stop offset="1" stop-color="#1c0030"/>
    </linearGradient>
    <linearGradient id="linear-gradient-7" x1="659.5" y1="-1085.29" x2="703" y2="-1085.29" gradientTransform="translate(0 2470)" gradientUnits="userSpaceOnUse">
      <stop offset="0" stop-color="#c0068d"/>
      <stop offset="1" stop-color="#1a002d"/>
    </linearGradient>
    <linearGradient id="linear-gradient-8" x1="608.16" y1="-1235.85" x2="651.69" y2="-1235.85" gradientTransform="translate(0 2470)" gradientUnits="userSpaceOnUse">
      <stop offset="0" stop-color="#c0068d"/>
      <stop offset="1" stop-color="#1a002d"/>
    </linearGradient>
    <linearGradient id="linear-gradient-9" x1="575.11" y1="-1763.16" x2="720.36" y2="-1763.16" gradientTransform="translate(0 2470)" gradientUnits="userSpaceOnUse">
      <stop offset="0" stop-color="#c0068d"/>
      <stop offset="1" stop-color="#1a002d"/>
    </linearGradient>
    <linearGradient id="linear-gradient-10" x1="670.05" y1="-1453.91" x2="755.91" y2="-1453.91" gradientTransform="translate(0 2470)" gradientUnits="userSpaceOnUse">
      <stop offset=".11" stop-color="#c0068d"/>
      <stop offset=".99" stop-color="#05053a"/>
    </linearGradient>
    <linearGradient id="linear-gradient-11" x1="712.49" y1="-1535.91" x2="769.95" y2="-1535.91" gradientTransform="translate(0 2470)" gradientUnits="userSpaceOnUse">
      <stop offset=".33" stop-color="#a2057c"/>
      <stop offset="1" stop-color="#7c056c"/>
    </linearGradient>
    <linearGradient id="linear-gradient-12" x1="449.73" y1="-1683.05" x2="474.13" y2="-1683.05" gradientTransform="translate(0 2470)" gradientUnits="userSpaceOnUse">
      <stop offset=".11" stop-color="#c0068d"/>
      <stop offset=".81" stop-color="#1a002f"/>
      <stop offset=".91" stop-color="#1c0031"/>
      <stop offset="1" stop-color="#1c0030"/>
    </linearGradient>
    <linearGradient id="linear-gradient-13" x1="418.6" y1="-1578.9" x2="438.81" y2="-1578.9" gradientTransform="translate(0 2470)" gradientUnits="userSpaceOnUse">
      <stop offset=".11" stop-color="#c0068d"/>
      <stop offset=".81" stop-color="#1a002f"/>
      <stop offset=".91" stop-color="#1c0031"/>
      <stop offset="1" stop-color="#1c0030"/>
    </linearGradient>
    <linearGradient id="linear-gradient-14" x1="346.29" y1="-1456.72" x2="510.59" y2="-1456.72" gradientTransform="translate(0 2470)" gradientUnits="userSpaceOnUse">
      <stop offset=".11" stop-color="#c0068d"/>
      <stop offset=".81" stop-color="#1a002f"/>
      <stop offset=".91" stop-color="#1c0031"/>
      <stop offset="1" stop-color="#1c0030"/>
    </linearGradient>
    <radialGradient id="radial-gradient" cx="685.16" cy="-935.78" fx="685.16" fy="-935.78" r="63" gradientTransform="translate(-8.98 2456.38) scale(.98 1)" gradientUnits="userSpaceOnUse">
      <stop offset=".77" stop-color="#a2057c"/>
      <stop offset="1" stop-color="#05053a"/>
    </radialGradient>
    <linearGradient id="linear-gradient-15" x1="680.49" y1="-899.72" x2="887.31" y2="-899.72" gradientTransform="translate(0 2470)" gradientUnits="userSpaceOnUse">
      <stop offset=".33" stop-color="#a2057c"/>
      <stop offset="1" stop-color="#7c056c"/>
    </linearGradient>
    <linearGradient id="linear-gradient-16" x1="192.68" y1="-1195.15" x2="318.54" y2="-1195.15" gradientTransform="translate(0 2470)" gradientUnits="userSpaceOnUse">
      <stop offset=".33" stop-color="#a2057c"/>
      <stop offset="1" stop-color="#7c056c"/>
    </linearGradient>
    <linearGradient id="linear-gradient-17" x1="602.91" y1="-1257.82" x2="691.46" y2="-1257.82" gradientTransform="translate(0 2470)" gradientUnits="userSpaceOnUse">
      <stop offset=".11" stop-color="#c0068d"/>
      <stop offset=".81" stop-color="#1a002f"/>
      <stop offset=".91" stop-color="#1c0031"/>
      <stop offset="1" stop-color="#1c0030"/>
    </linearGradient>
    <linearGradient id="linear-gradient-18" x1="614.15" y1="-1844.78" x2="658.05" y2="-1844.78" gradientTransform="translate(0 2470)" gradientUnits="userSpaceOnUse">
      <stop offset=".11" stop-color="#c0068d"/>
      <stop offset=".81" stop-color="#1a002f"/>
      <stop offset=".91" stop-color="#1c0031"/>
      <stop offset="1" stop-color="#1c0030"/>
    </linearGradient>
    <linearGradient id="linear-gradient-19" x1="521.46" y1="-2003.2" x2="647.32" y2="-2003.2" gradientTransform="translate(0 2470)" gradientUnits="userSpaceOnUse">
      <stop offset=".33" stop-color="#a2057c"/>
      <stop offset="1" stop-color="#7c056c"/>
    </linearGradient>
    <linearGradient id="linear-gradient-20" x1="283.42" y1="-2024.62" x2="490.24" y2="-2024.62" gradientTransform="translate(0 2470)" gradientUnits="userSpaceOnUse">
      <stop offset=".33" stop-color="#a2057c"/>
      <stop offset="1" stop-color="#7c056c"/>
    </linearGradient>
    <linearGradient id="linear-gradient-21" x1="691.22" y1="-1788.98" x2="801.46" y2="-1788.98" gradientTransform="translate(0 2470)" gradientUnits="userSpaceOnUse">
      <stop offset=".33" stop-color="#a2057c"/>
      <stop offset="1" stop-color="#7c056c"/>
    </linearGradient>
    <linearGradient id="linear-gradient-22" x1="436.87" y1="-1589.55" x2="675.86" y2="-1589.55" gradientTransform="translate(0 2470)" gradientUnits="userSpaceOnUse">
      <stop offset="0" stop-color="#c0068d"/>
      <stop offset="1" stop-color="#05053a"/>
    </linearGradient>
    <linearGradient id="linear-gradient-23" x1="334.45" y1="-1449.14" x2="674.56" y2="-1449.14" gradientTransform="translate(0 2470)" gradientUnits="userSpaceOnUse">
      <stop offset=".06" stop-color="#c0068d"/>
      <stop offset=".32" stop-color="#c0068d"/>
      <stop offset=".99" stop-color="#1c0030"/>
    </linearGradient>
    <linearGradient id="linear-gradient-24" x1="501.12" y1="-1252.29" x2="603.83" y2="-1252.29" gradientTransform="translate(0 2470)" gradientUnits="userSpaceOnUse">
      <stop offset=".11" stop-color="#c0068d"/>
      <stop offset="1" stop-color="#05053a"/>
    </linearGradient>
  </defs>
  <g id="Bakgrund">
    <g id="Bakgrund-2" data-name="Bakgrund">
      <g id="Lager_20" data-name="Lager 20">
        <rect class="cls-23" width="1080" height="1920"/>
      </g>
      <g>
        <g id="Lager_19" data-name="Lager 19">
          <ellipse class="cls-31" cx="691.71" cy="1210.09" rx="14.15" ry="14.45"/>
        </g>
        <g id="Lager_18" data-name="Lager 18">
          <ellipse class="cls-4" cx="508.29" cy="1337.62" rx="26.83" ry="27.4"/>
        </g>
        <g id="Lager_17" data-name="Lager 17">
          <path class="cls-30" d="M394.63,1140.84c-8.68,7.17-10.63,23.61-5.85,34.87,3.32,7.87,9.85,13.15,14.63,16.94,9.66,7.77,13.07,5.78,16.59,10.96,7.32,10.76-4.39,23.61,1.95,31.88,5.95,7.77,24.98,7.87,32.2-1.99,6.93-9.57,0-24.71-.98-26.9-3.41-7.37-6.44-7.27-7.8-12.95-2.73-10.96,7.22-16.94,6.83-25.91-.68-17.64-40.78-40.65-57.56-26.9h-.01Z"/>
        </g>
        <g id="Lager_15" data-name="Lager 15">
          <ellipse class="cls-21" cx="488.29" cy="1330.15" rx="50.73" ry="51.81"/>
        </g>
        <g id="Lager_16" data-name="Lager 16">
          <path class="cls-20" d="M562.44,1322.18c-5.27,9.96,1.46,23.91,2.93,26.9,4,8.17,7.8,8.97,9.76,16.94,.49,1.89,2.93,11.56-1.95,18.93-4.39,6.78-10.54,4.78-15.61,9.96-8.88,9.07-8.39,33.08,4.88,43.84,9.17,7.37,24.98,8.97,34.15,2.99,2.73-1.79,6.05-4.98,9.76-3.99,3.8,1,3.9,5.28,7.8,6.97,4.78,2.09,13.27-.5,15.61-6.97s-2.83-13.55-7.8-15.94c-5.56-2.69-10.05,.9-12.68-1.99-3.12-3.49,2.63-9.86,0-15.94-2.93-6.97-12.68-3.79-17.56-9.96-6.05-7.67,3.02-19.73,7.8-47.83,2.83-16.64,4.2-25.61-.98-30.89-8.1-8.27-29.76-4.88-36.1,6.97h-.01Z"/>
        </g>
        <g id="Lager_13" data-name="Lager 13">
          <path class="cls-25" d="M672.2,1290.89c9.95,9.66,20.29,19.83,25.56,32.98,2.54,6.28,3.8,13.05,3.12,19.83-.68,6.78-3.32,13.55-6.63,19.63-6.73,12.26-16.49,22.52-23.22,34.77-6.34,11.56-10.05,24.41-11.61,37.46-1.76,14.75-.68,29.79,2.34,44.44,.39,1.89,3.22,1.1,2.83-.8-5.37-25.91-4.29-54.4,8.2-78.12,6.63-12.55,16.39-22.82,23.41-35.07,3.41-5.98,6.15-12.45,7.32-19.33,1.17-6.87,.49-13.75-1.66-20.33-4.98-15.24-16.39-26.7-27.51-37.56-1.46-1.39-3.51,.8-2.15,2.09h0Z"/>
          <path class="cls-34" d="M651.22,1208.79c-7.51,1.99-13.66,7.17-18.73,13.05-5.66,6.68-10.44,14.15-15.32,21.32-3.22,4.78-6.54,9.57-9.76,14.25-1.07,1.59,1.46,3.09,2.54,1.49,5.56-8.07,11.02-16.14,16.59-24.21,4.29-6.28,8.78-12.55,14.73-17.44,3.22-2.59,6.83-4.58,10.83-5.68,1.66-.4,.88-3.29-.88-2.79h0Z"/>
          <path class="cls-28" d="M589.56,663.08c-7.9-8.67-12.39-20.23-12.49-32.08-.1-11.86,4.2-22.62,11.51-31.19,3.61-4.18,7.8-7.57,12.59-10.26,4.79-2.69,9.66-4.68,14.34-7.17,4.68-2.49,8.98-5.28,12.29-9.27,3.02-3.59,4.98-7.97,6.24-12.55,2.54-9.37,2.34-19.43,5.76-28.6,1.56-4.18,4.29-8.27,8.1-10.66,3.81-2.39,8.29-2.79,12.49-1.99s8.1,2.89,10.93,6.08c3.71,4.18,4.68,10.16,3.9,15.74-1.85,12.75-10.93,22.62-15.12,34.57-7.61,21.42,8.39,39.36,13.76,58.98,1.27,4.78,1.95,9.76,1.17,14.65-.88,5.28-3.22,10.06-5.85,14.65-5.27,9.07-11.9,18.23-11.22,29.29,.68,11.96,8.39,21.92,15.61,30.69,7.51,9.07,16.49,19.63,16.29,32.18-.2,11.26-8.68,19.93-11.71,30.39-3.41,11.66,2.63,22.22,10.93,29.89,4.78,4.38,10.15,8.07,14.93,12.55,4,3.69,7.41,8.07,9.95,12.95,4.98,9.47,6.63,21.52-.78,30.19-7.41,8.67-19.41,11.26-29.85,13.75-13.56,3.19-27.22,5.68-41.07,7.17-6.63,.7-13.37,1.3-20.1,1.59-1.85,.1-1.85,3.09,0,2.99,14.15-.7,28.2-2.29,42.15-4.78,7.12-1.3,14.15-2.69,21.17-4.38,5.66-1.39,11.32-2.79,16.68-5.08,9.76-4.18,17.95-11.76,18.93-23.12,.98-10.96-4.59-21.82-11.61-29.79-8.39-9.47-20.88-15.14-26.93-26.8-2.83-5.48-3.22-11.46-1.27-17.34,1.76-5.38,4.88-10.16,7.32-15.14,2.44-4.98,4.39-10.46,4.2-16.24-.2-6.08-2.44-11.96-5.37-17.14-6.24-10.96-15.9-19.33-21.95-30.29-3.02-5.48-5.07-11.46-4.49-17.84,.49-5.68,2.93-10.86,5.66-15.64,5.27-9.27,11.71-18.13,11.71-29.39,0-10.56-4.78-20.33-9.07-29.69-4.29-9.47-8.98-19.53-8.1-30.19,1.17-13.15,10.83-23.41,15.12-35.37,3.71-10.36,3.22-22.52-6.44-29.29-7.02-4.88-17.37-5.68-24.49-.5-8,5.88-9.95,16.14-11.32,25.51-1.46,10.06-2.63,20.92-10.34,28.2-7.71,7.27-19.41,10.16-28.29,16.44-8.88,6.28-15.9,16.04-19.22,26.9-3.32,10.86-2.44,23.41,2.05,34.18,2.24,5.28,5.37,10.16,9.27,14.35,1.27,1.49,3.32-.7,2.05-2.09h-.02Z"/>
        </g>
        <g id="Lager_14" data-name="Lager 14">
          <path class="cls-17" d="M736.1,971.46c-11.22-1.1-23.41,5.98-23.41,5.98h0s-9.17-2.69-14.63-2.99c-6.83-.4-17.37,2.29-23.41,10.96-7.02,10.06-5.46,24.41,.98,31.88,4.98,5.78,8.98,2.99,15.61,8.97,9.76,8.77,4.98,18.23,13.66,26.9,6.54,6.48,18.05,9.96,28.29,5.98,9.27-3.59,16.49-13.05,16.59-21.92,.1-6.78-3.9-7.47-3.9-14.95,0-7.97,4.59-9.27,7.8-20.92,1.85-6.68,3.41-12.35,.98-17.93-3.22-7.47-12-11.26-18.54-11.96h-.02Z"/>
          <ellipse class="cls-15" cx="741.27" cy="934.09" rx="28.78" ry="29.39"/>
        </g>
        <g id="Lager_12" data-name="Lager 12">
          <path class="cls-24" d="M338.15,1103.28c-9.17,19.93-13.66,42.64-9.27,64.37,3.71,18.23,14.44,35.07,29.85,45.04,7.8,5.08,16.49,7.87,25.66,8.77,10.73,.9,21.76-.4,32.2,2.69,15.9,4.78,23.71,20.53,32,33.78,4,6.48,8.39,12.95,14.24,17.84,6.63,5.58,14.44,8.07,22.93,8.87,9.07,.9,18.63,.2,27.32,3.29,4.2,1.49,8,4.09,10.73,7.77s4.49,8.17,5.37,12.65c2.34,10.96,.2,22.12-.49,33.18-.59,10.26,.68,20.13,5.46,29.29,8.29,15.84,24.88,27,42.63,26.9,17.56-.1,35.02-10.46,43.32-26.4,8.29-15.94,6.73-36.27-3.02-51.21-2.44-3.69-5.27-6.97-8.49-9.86-1.46-1.2-3.51,.9-2.05,2.09,13.17,11.46,18.93,30.69,14.73,47.83s-19.32,30.29-36.29,33.68c-17.37,3.39-34.93-4.78-45.07-19.33-5.27-7.57-8.2-16.44-8.49-25.71-.29-11.36,2.34-22.62,1.56-33.88-.59-8.97-3.22-18.43-10.05-24.51s-15.8-7.37-24.49-7.97-18.15-.2-26.34-4.09c-6.54-3.09-11.71-8.37-16-14.25-8.88-12.16-14.83-27.1-26.83-36.57-7.41-5.88-16.39-7.87-25.66-8.37-10.15-.6-20.49,.2-30.34-2.79-16.88-5.18-30.24-19.03-37.27-35.17-8.49-19.33-7.41-41.75-1.27-61.58,1.56-5.08,3.51-10.06,5.76-14.85,.98-1.79-1.56-3.29-2.34-1.49h0Z"/>
          <path class="cls-35" d="M473.17,771.99c-5.85,3.29-13.07,2.59-18.44,7.07-6.15,5.28-6.15,14.15-5.85,21.62,.1,1.89,3.02,1.89,2.93,0-.29-6.78-.59-15.54,5.56-19.93,5.07-3.59,11.8-3.19,17.27-6.18,1.66-.9,.2-3.49-1.46-2.59h0Z"/>
          <path class="cls-36" d="M437.76,862.65c-12.78,9.76-20.49,25.31-20.1,41.65,.1,4.98,.88,9.86,2.34,14.55,.59,1.79,3.41,1,2.83-.8-4.68-15.05-1.85-31.88,7.8-44.24,2.54-3.19,5.37-6.08,8.59-8.57,1.56-1.2,.1-3.79-1.46-2.59h0Z"/>
        </g>
        <g id="Lager_11" data-name="Lager 11">
          <path class="cls-12" d="M464.88,928.61c9.27,13.35,7.71,28.99,6.83,37.86-1.76,17.64-7.9,18.43-7.8,28.89,.29,23.71,32,28,42.93,56.79,7.71,20.23,3.41,48.12-11.71,60.78-27.61,23.12-89.46-5.68-95.61-35.87-3.71-18.33,15.02-28,8.78-50.81-4-14.45-18.05-34.37-20.49-37.86-3.51-5.08-6.44-8.47-8.78-14.95-4.2-11.46-1.07-17.04-5.85-21.92-5.37-5.48-11.61-.7-18.54-5.98-7.51-5.68-11.12-19.43-5.85-25.91,5.37-6.68,19.8-5.38,27.32,1,4.59,3.89,6.05,9.37,13.66,12.95,1.37,.6,5.27,2.49,6.83,1s-.78-4.88-.98-8.97c-.39-7.87,7.32-15.94,14.63-18.93,7.41-3.09,14.05-.8,24.39,2.99,12.59,4.58,22.93,8.27,30.24,18.93h0Z"/>
        </g>
        <g id="Lager_10" data-name="Lager 10">
          <ellipse class="cls-18" cx="659.51" cy="1527.93" rx="61.46" ry="62.77"/>
          <ellipse class="cls-8" cx="783.9" cy="1570.28" rx="103.41" ry="105.61"/>
          <ellipse class="cls-19" cx="255.61" cy="1274.85" rx="62.93" ry="64.27"/>
        </g>
        <g id="Lager_9" data-name="Lager 9">
          <path class="cls-7" d="M672.68,1194.64c-4.39,11.06-6.54,13.55-4.88,20.92,.88,3.79,.39,6.97,4.88,11.96,17.56,19.73,12.68,15.74,15.61,19.93,8,11.36-.2,34.28-12.68,41.05-10.54,5.78-21.46,8.77-43.9-4.98-15.02-9.17-25.76,4.18-28.29,0-2.24-3.79,2.54-10.26,20.49-34.97,15.8-21.62,23.71-32.68,23.41-38.96-.68-15.64-17.37-17.64-21.46-36.97-3.32-15.74,3.02-36.77,15.61-40.95,14.93-4.88,39.22,18.03,40,34.87,.2,5.48-2.73,13.05-8.78,28.1h0Z"/>
        </g>
        <g id="Lager_2" data-name="Lager 2">
          <ellipse class="cls-9" cx="636.1" cy="625.22" rx="21.95" ry="22.42"/>
          <ellipse class="cls-33" cx="584.39" cy="466.8" rx="62.93" ry="64.27"/>
          <ellipse class="cls-13" cx="386.83" cy="445.38" rx="103.41" ry="105.61"/>
          <ellipse class="cls-22" cx="746.34" cy="681.02" rx="55.12" ry="56.29"/>
        </g>
        <g id="Lager_4" data-name="Lager 4">
          <path class="cls-29" d="M585.85,659.6c-17.27,6.97-21.56,26.01-22.44,29.89-1.07,4.78-.39,5.48-.98,12.95-.39,5.48-2.24,29.39-12.68,43.84-8.39,11.66-16.68,9.37-32.2,18.93-22.34,13.85-37.37,38.86-41.95,59.78-5.27,24.01,6.83,26.4,11.71,74.73,3.12,30.79,5.37,53.11-6.83,73.73-10.83,18.33-20.88,14.85-32.2,34.87-3.02,5.28-20,35.17-5.85,63.77,11.41,23.02,35.02,29.19,38.05,29.89,16.88,4.09,38.15,1.1,50.73-11.96,10.34-10.76,6.83-20.03,19.51-30.89,2.63-2.19,16-13.75,28.29-9.96,10.44,3.19,8.88,14.15,24.39,29.89,6.63,6.68,14.44,14.65,26.34,16.94,11.22,2.19,27.8-.4,38.05-13.95,9.56-12.65,10.73-31.29,2.93-41.85-6.15-8.27-13.76-6.08-43.9-20.92-10.34-5.08-12.39-6.78-13.66-7.97-10.73-9.86-15.41-26.6-13.66-40.85,1.37-11.46,12.29-25.41,34.15-52.81,13.76-17.34,16.59-19.53,20.49-27.9,8.68-18.63,8.1-36.07,7.8-43.84-.29-7.57-2.83-48.72-30.24-71.74-6.05-5.08-10.24-6.78-12.68-12.95-4.88-12.45,3.22-29.29,9.76-42.84,3.41-7.07,3.8-6.58,4.88-9.96,3.32-10.76,3.02-28.7-9.76-40.85-9.85-9.37-24.88-13.25-38.05-7.97h0Z"/>
        </g>
        <g id="Lager_6" data-name="Lager 6">
          <path class="cls-32" d="M486.34,708.42c-14.44,.8-24.29,18.23-22.44,29.89,.98,5.98,4.2,5.88,6.83,12.95,5.07,13.75-1.17,30.99-10.73,40.85-7.12,7.37-10.34,4.58-17.56,10.96-13.66,12.06-19.41,37.56-11.71,55.8,6.93,16.54,18.93,13.05,34.15,33.88,4.1,5.58,15.71,21.52,16.59,43.84,.98,25.21-12.39,50.12-31.22,62.77-12.49,8.37-27.41,11.36-40,13.95-12.1,2.49-14.44,1.49-21.46,2.99-19.02,4.18-40.78,20.03-49.76,42.84-14.93,37.96,9.27,84.39,35.12,92.66,11.41,3.59,20-1.2,41.95,5.98,8.98,2.89,16.68,5.38,24.39,11.96,15.71,13.25,9.66,24.71,23.41,35.87,14.63,11.86,36.39,11.16,40.98,10.96,11.61-.4,13.56-3.39,19.51-1,13.07,5.28,18.83,26.1,18.54,41.85-.29,15.34-6.15,16.24-5.85,28.89,.39,14.95,9.27,35.77,29.27,43.84,17.66,7.07,38.34,1.89,49.76-10.96,9.95-11.16,10.34-25.21,10.73-38.86,.78-25.11-7.32-27.3-7.8-46.83-.78-36.07,25.85-74.73,42.93-92.66,3.32-3.49,8.1-8.07,10.73-15.94,4.1-12.06,1.66-26.8-9.76-46.83-25.85-45.63-53.27-40.15-61.46-68.75-7.8-27.5,15.51-39.85,4.88-76.72-1.17-4.09-8.1-28.3-22.44-30.89-6.54-1.2-8.78,3.19-17.56,2.99-11.71-.2-24.88-8.27-29.27-18.93-5.95-14.25,8.49-21.22,7.8-40.85-.78-22.22-19.71-22.22-34.15-59.78-6.63-17.24-12-31.29-6.83-45.83,2.15-6.08,5.56-10.76,3.9-16.94-2.24-8.17-12.2-14.45-21.46-13.95h0Z"/>
        </g>
        <g id="Lager_3" data-name="Lager 3">
          <path class="cls-27" d="M571.22,1154.79c-11.22,1.2-16.59,5.38-19.51,8.97-5.37,6.68-2.73,12.35-8.78,18.93-3.32,3.69-5.27,3.09-17.56,8.97-10.15,4.88-15.22,7.27-17.56,9.96-7.71,8.67-9.27,25.91-1.95,34.87,6.83,8.37,16.2,2.99,26.34,12.95,6.63,6.58,4.2,10.36,10.73,17.93,1.46,1.69,15.02,16.84,33.17,12.95,13.46-2.89,24.49-15.14,25.37-26.9,.78-10.76-7.61-13.55-7.8-29.89-.1-8.37,1.95-15.94,2.93-18.93,3.12-9.86,5.66-9.86,6.83-15.94,1.95-10.56-3.32-24.61-14.63-30.89-7.02-3.89-14.05-3.49-17.56-2.99h-.02Z"/>
        </g>
      </g>
    </g>
  </g>
  <g id="Content">
    <g id="Skånetrafiken">
      <path class="cls-11" d="M693.26,292.84c10.09,0,18.27,11.65,18.27,26.01V922.41c0,14.37-8.18,26.01-18.27,26.01H34.64c-10.09,0-18.27-11.65-18.27-26.01V318.85c0-14.37,8.18-26.01,18.27-26.01"/>
      <g id="Tåg_och_buss" data-name="Tåg och buss">
        <g id="Tåg_kolumn" data-name="Tåg kolumn">
          <g id="Tåg_6" data-name="Tåg 6">
            <rect class="cls-26" x="365.32" y="844.94" width="333.67" height="95.57" rx="9.45" ry="9.45"/>
            <text class="cls-1" transform="translate(385.84 924.03)"><tspan x="0" y="0">Nästa går om</tspan></text>
            <rect class="cls-14" x="395.32" y="856.95" width="293" height="39" rx="9.34" ry="9.34"/>
          </g>
          <g id="Tåg_5" data-name="Tåg 5">
            <rect class="cls-26" x="365.32" y="744.94" width="333.67" height="95.57" rx="9.45" ry="9.45"/>
            <text class="cls-1" transform="translate(385.84 824.03)"><tspan x="0" y="0">Nästa går om</tspan></text>
            <rect class="cls-14" x="395.32" y="756.95" width="293" height="39" rx="9.34" ry="9.34"/>
          </g>
          <g id="Tåg_4" data-name="Tåg 4">
            <rect class="cls-26" x="365.32" y="644.94" width="333.67" height="95.57" rx="9.45" ry="9.45"/>
            <text class="cls-1" transform="translate(385.84 724.03)"><tspan x="0" y="0">Nästa går om</tspan></text>
            <rect class="cls-14" x="395.32" y="656.95" width="293" height="39" rx="9.34" ry="9.34"/>
          </g>
          <g id="Tåg_3" data-name="Tåg 3">
            <rect class="cls-26" x="365.32" y="544.94" width="333.67" height="95.57" rx="9.45" ry="9.45"/>
            <text class="cls-1" transform="translate(385.84 624.03)"><tspan x="0" y="0">Nästa går om</tspan></text>
            <rect class="cls-14" x="395.32" y="556.95" width="293" height="39" rx="9.34" ry="9.34"/>
          </g>
          <g id="Tåg2">
            <rect class="cls-26" x="365.32" y="444.94" width="333.67" height="95.57" rx="9.45" ry="9.45"/>
            <text class="cls-1" transform="translate(385.84 524.03)"><tspan x="0" y="0">Nästa går om</tspan></text>
            <rect class="cls-14" x="395.32" y="456.95" width="293" height="39" rx="9.34" ry="9.34"/>
          </g>
          <g id="Tåg1">
            <rect class="cls-26" x="365.32" y="344.94" width="333.67" height="95.57" rx="9.45" ry="9.45"/>
            <text class="cls-1" transform="translate(385.84 424.03)"><tspan x="0" y="0">Nästa går om</tspan></text>
            <rect class="cls-14" x="395.32" y="356.95" width="293" height="39" rx="9.34" ry="9.34"/>
          </g>
        </g>
        <g id="Buss_kolum" data-name="Buss kolum">
          <g id="Buss6">
            <rect class="cls-26" x="27.32" y="844.94" width="333.67" height="95.57" rx="9.45" ry="9.45"/>
            <text class="cls-1" transform="translate(47.84 924.03)"><tspan x="0" y="0">Nästa går om</tspan></text>
            <rect class="cls-14" x="57.32" y="856.95" width="293" height="39" rx="9.34" ry="9.34"/>
          </g>
          <g id="Buss5">
            <rect class="cls-26" x="27.32" y="744.94" width="333.67" height="95.57" rx="9.45" ry="9.45"/>
            <text class="cls-1" transform="translate(47.84 824.03)"><tspan x="0" y="0">Nästa går om</tspan></text>
            <rect class="cls-14" x="57.32" y="756.95" width="293" height="39" rx="9.34" ry="9.34"/>
          </g>
          <g id="Buss4">
            <rect class="cls-26" x="27.32" y="644.94" width="333.67" height="95.57" rx="9.45" ry="9.45"/>
            <text class="cls-1" transform="translate(47.84 724.03)"><tspan x="0" y="0">Nästa går om</tspan></text>
            <rect class="cls-14" x="57.32" y="656.95" width="293" height="39" rx="9.34" ry="9.34"/>
          </g>
          <g id="Buss3">
            <rect class="cls-26" x="27.32" y="544.94" width="333.67" height="95.57" rx="9.45" ry="9.45"/>
            <text class="cls-1" transform="translate(47.84 624.03)"><tspan x="0" y="0">Nästa går om</tspan></text>
            <rect class="cls-14" x="57.32" y="556.95" width="293" height="39" rx="9.34" ry="9.34"/>
          </g>
          <g id="Buss2">
            <rect class="cls-26" x="27.32" y="445.94" width="333.67" height="95.57" rx="9.45" ry="9.45"/>
            <text class="cls-1" transform="translate(47.84 525.03)"><tspan x="0" y="0">Nästa går om</tspan></text>
            <rect class="cls-14" x="57.32" y="457.95" width="293" height="39" rx="9.34" ry="9.34"/>
          </g>
          <g id="Buss1">
            <rect class="cls-26" x="25.32" y="345.94" width="333.67" height="95.57" rx="9.45" ry="9.45"/>
            <text class="cls-1" transform="translate(45.84 425.03)"><tspan x="0" y="0">Nästa går om</tspan></text>
            <rect class="cls-14" x="55.32" y="357.95" width="293" height="39" rx="9.34" ry="9.34"/>
          </g>
        </g>
      </g>
      <text class="cls-2" transform="translate(37.4 332.44)"><tspan x="0" y="0">Kollektivtrafik Helsingborg C</tspan></text>
    </g>
    <g id="Lunch">
      <rect class="cls-10" x="85.27" y="964" width="557.37" height="141.29" rx="22.02" ry="22.02"/>
      <text class="cls-3" transform="translate(316.27 1002.94)"><tspan x="0" y="0">Lunch</tspan></text>
    </g>
  </g>
  <g id="Footer_group" data-name="Footer group">
    <rect id="Footer" class="cls-16" y="1713.5" width="1080" height="206.5"/>
  </g>
  <g id="Header_group" data-name="Header group">
    <rect id="Bakgrund-3" data-name="Bakgrund" class="cls-16" y="-1.1" width="1080" height="277"/>
    <g id="LOGO">
      <polygon id="I" class="cls-6" points="211.42 165.27 223.58 165.27 223.58 104.38 211.42 104.38 211.42 165.27"/>
      <polyline id="T" class="cls-6" points="171.87 165.27 171.87 116.45 156.65 116.45 156.65 104.38 199.26 104.38 199.26 116.45 184.03 116.45 184.03 165.27 171.87 165.27"/>
      <polyline id="N" class="cls-6" points="110.81 160.93 98.82 160.93 98.82 101.32 102.05 101.32 132.33 135.59 132.33 102.68 144.49 102.68 144.49 162.21 141.26 162.21 110.81 129.21 110.81 160.93"/>
      <path id="Båge" class="cls-6" d="M117.1,76.74v-11.91H53.15v66.93c0,45.58,22.88,60.21,60.3,80.28l3.66,1.96v-13.52l-.43-.26c-33.93-18.28-51.62-29.6-51.62-68.46v-55.02h52.05"/>
      <g id="TE4_text" data-name="TE4 text">
        <path class="cls-5" d="M172.13,172.84l-.68,5.87h-9.35v34.7h-5.7v-34.7h-10.04l.6-5.87h25.17Z"/>
        <path class="cls-5" d="M197.64,172.84l-.68,5.7h-14.54v11.23h13.78l-.68,5.7h-13.1v12.16h15.22l-.68,5.7h-20.24v-40.48h20.92Z"/>
        <path class="cls-5" d="M207.42,200.14h8.25v-10.21l5.27-1.19v11.31h3.57l-.68,5.44h-2.89v7.82h-5.27v-7.82h-14.03v-4.76l11.99-26.36h5.53l-11.74,25.77h0Z"/>
      </g>
    </g>
  </g>
</svg>