<svg xmlns="http://www.w3.org/2000/svg" xmlns:xlink="http://www.w3.org/1999/xlink" viewBox="0 0 1083 1923"><defs><style>.cls-1{fill:#05053a;}.cls-2{fill:url(#linear-gradient);}.cls-3{fill:url(#linear-gradient-2);}.cls-4{fill:url(#linear-gradient-3);}.cls-31,.cls-36,.cls-5{fill:none;}.cls-31,.cls-46,.cls-5,.cls-6{stroke-miterlimit:10;}.cls-5,.cls-6{stroke-width:4px;}.cls-5{stroke:url(#linear-gradient-4);}.cls-6{fill:url(#linear-gradient-5);stroke:url(#linear-gradient-6);}.cls-7{fill:url(#linear-gradient-7);}.cls-8{fill:url(#linear-gradient-8);}.cls-9{fill:url(#linear-gradient-9);}.cls-10{fill:url(#linear-gradient-10);}.cls-11{fill:url(#linear-gradient-11);}.cls-12{fill:#c0068d;}.cls-13{fill:url(#linear-gradient-12);}.cls-14{fill:url(#linear-gradient-13);}.cls-15{fill:url(#linear-gradient-14);}.cls-16{fill:url(#radial-gradient);}.cls-17{fill:url(#linear-gradient-15);}.cls-18{fill:url(#linear-gradient-16);}.cls-19{fill:url(#linear-gradient-17);}.cls-20{fill:url(#linear-gradient-18);}.cls-21{fill:url(#linear-gradient-19);}.cls-22{fill:url(#linear-gradient-20);}.cls-23{fill:url(#linear-gradient-21);}.cls-24{fill:url(#linear-gradient-22);}.cls-25{fill:url(#linear-gradient-23);}.cls-26{fill:url(#linear-gradient-24);}.cls-27{fill:#2e1d49;opacity:0.6;}.cls-28{fill:#520b56;opacity:0.93;}.cls-29,.cls-46{isolation:isolate;}.cls-29{font-size:35px;}.cls-29,.cls-30,.cls-39,.cls-47,.cls-48{fill:#fff;}.cls-29,.cls-30{font-family:ArialMT, Arial;}.cls-30{font-size:30px;}.cls-31{stroke:#fff;}.cls-31,.cls-46{stroke-width:3px;}.cls-32{fill:#cac6c5;}.cls-33{fill:#030303;fill-opacity:0.7;}.cls-34{fill:#8782c1;}.cls-35{letter-spacing:-0.11em;}.cls-37{fill:#fdce1b;}.cls-38{fill:#6cbf0f;}.cls-39{font-size:14px;font-family:MyriadPro-Regular, Myriad Pro;}.cls-40{letter-spacing:0em;}.cls-41{letter-spacing:0.02em;}.cls-42{letter-spacing:0em;}.cls-43{letter-spacing:0em;}.cls-44{letter-spacing:0em;}.cls-45{letter-spacing:0em;}.cls-46{stroke:#000;opacity:0.37;}.cls-47{fill-rule:evenodd;}</style><linearGradient id="linear-gradient" x1="677.56" y1="-1259.91" x2="705.86" y2="-1259.91" gradientTransform="translate(1.5 2471.5)" gradientUnits="userSpaceOnUse"><stop offset="0.11" stop-color="#c0068d"/><stop offset="0.81" stop-color="#1a002f"/><stop offset="0.91" stop-color="#1c0031"/><stop offset="1" stop-color="#1c0030"/></linearGradient><linearGradient id="linear-gradient-2" x1="481.46" y1="-1132.38" x2="535.12" y2="-1132.38" xlink:href="#linear-gradient"/><linearGradient id="linear-gradient-3" x1="386.23" y1="-1281.11" x2="457.19" y2="-1281.11" gradientTransform="translate(0 2470)" xlink:href="#linear-gradient"/><linearGradient id="linear-gradient-4" x1="435.56" y1="-1139.85" x2="541.02" y2="-1139.85" xlink:href="#linear-gradient"/><linearGradient id="linear-gradient-5" x1="551.58" y1="-1091.96" x2="630.35" y2="-1091.96" gradientTransform="translate(0 2470)" xlink:href="#linear-gradient"/><linearGradient id="linear-gradient-6" x1="549.58" y1="-1091.96" x2="632.35" y2="-1091.96" gradientTransform="translate(0 2470)" xlink:href="#linear-gradient"/><linearGradient id="linear-gradient-7" x1="659.5" y1="-1085.29" x2="703" y2="-1085.29" gradientTransform="translate(0 2470)" gradientUnits="userSpaceOnUse"><stop offset="0" stop-color="#c0068d"/><stop offset="1" stop-color="#1a002d"/></linearGradient><linearGradient id="linear-gradient-8" x1="608.16" y1="-1235.85" x2="651.69" y2="-1235.85" xlink:href="#linear-gradient-7"/><linearGradient id="linear-gradient-9" x1="575.11" y1="-1763.16" x2="720.36" y2="-1763.16" xlink:href="#linear-gradient-7"/><linearGradient id="linear-gradient-10" x1="670.05" y1="-1453.91" x2="755.91" y2="-1453.91" gradientTransform="translate(0 2470)" gradientUnits="userSpaceOnUse"><stop offset="0.11" stop-color="#c0068d"/><stop offset="0.99" stop-color="#05053a"/></linearGradient><linearGradient id="linear-gradient-11" x1="712.49" y1="-1535.91" x2="769.95" y2="-1535.91" gradientTransform="translate(1.5 2471.5)" gradientUnits="userSpaceOnUse"><stop offset="0.33" stop-color="#a2057c"/><stop offset="1" stop-color="#7c056c"/></linearGradient><linearGradient id="linear-gradient-12" x1="449.73" y1="-1683.05" x2="474.13" y2="-1683.05" gradientTransform="translate(0 2470)" xlink:href="#linear-gradient"/><linearGradient id="linear-gradient-13" x1="418.6" y1="-1578.9" x2="438.81" y2="-1578.9" gradientTransform="translate(0 2470)" xlink:href="#linear-gradient"/><linearGradient id="linear-gradient-14" x1="346.29" y1="-1456.72" x2="510.59" y2="-1456.72" gradientTransform="translate(0 2470)" xlink:href="#linear-gradient"/><radialGradient id="radial-gradient" cx="685.16" cy="-935.78" r="63" gradientTransform="translate(-7.48 2457.88) scale(0.98 1)" gradientUnits="userSpaceOnUse"><stop offset="0.77" stop-color="#a2057c"/><stop offset="1" stop-color="#05053a"/></radialGradient><linearGradient id="linear-gradient-15" x1="680.49" y1="-899.72" x2="887.31" y2="-899.72" xlink:href="#linear-gradient-11"/><linearGradient id="linear-gradient-16" x1="192.68" y1="-1195.15" x2="318.54" y2="-1195.15" xlink:href="#linear-gradient-11"/><linearGradient id="linear-gradient-17" x1="602.91" y1="-1257.82" x2="691.46" y2="-1257.82" gradientTransform="translate(0 2470)" xlink:href="#linear-gradient"/><linearGradient id="linear-gradient-18" x1="614.15" y1="-1844.78" x2="658.05" y2="-1844.78" xlink:href="#linear-gradient"/><linearGradient id="linear-gradient-19" x1="521.46" y1="-2003.2" x2="647.32" y2="-2003.2" xlink:href="#linear-gradient-11"/><linearGradient id="linear-gradient-20" x1="283.42" y1="-2024.62" x2="490.24" y2="-2024.62" xlink:href="#linear-gradient-11"/><linearGradient id="linear-gradient-21" x1="691.22" y1="-1788.98" x2="801.46" y2="-1788.98" xlink:href="#linear-gradient-11"/><linearGradient id="linear-gradient-22" x1="436.87" y1="-1589.55" x2="675.86" y2="-1589.55" gradientTransform="translate(0 2470)" gradientUnits="userSpaceOnUse"><stop offset="0" stop-color="#c0068d"/><stop offset="1" stop-color="#05053a"/></linearGradient><linearGradient id="linear-gradient-23" x1="334.45" y1="-1449.14" x2="674.56" y2="-1449.14" gradientTransform="translate(0 2470)" gradientUnits="userSpaceOnUse"><stop offset="0.06" stop-color="#c0068d"/><stop offset="0.32" stop-color="#c0068d"/><stop offset="0.99" stop-color="#1c0030"/></linearGradient><linearGradient id="linear-gradient-24" x1="501.12" y1="-1252.29" x2="603.83" y2="-1252.29" gradientTransform="translate(0 2470)" gradientUnits="userSpaceOnUse"><stop offset="0.11" stop-color="#c0068d"/><stop offset="1" stop-color="#05053a"/></linearGradient></defs><g id="Bakgrund"><g id="Bakgrund-2" data-name="Bakgrund"><g id="Lager_20" data-name="Lager 20"><rect class="cls-1" x="1.5" y="1.5" width="1080" height="1920"/></g><g id="Lager_19" data-name="Lager 19"><ellipse class="cls-2" cx="693.21" cy="1211.59" rx="14.15" ry="14.45"/></g><g id="Lager_18" data-name="Lager 18"><ellipse class="cls-3" cx="509.79" cy="1339.12" rx="26.83" ry="27.4"/></g><g id="Lager_17" data-name="Lager 17"><path class="cls-4" d="M394.63,1140.84c-8.68,7.17-10.63,23.61-5.85,34.87,3.32,7.87,9.85,13.15,14.63,16.94,9.66,7.77,13.07,5.78,16.59,11,7.32,10.76-4.39,23.61,1.95,31.88,5.95,7.77,25,7.87,32.2-2,6.93-9.57,0-24.71-1-26.9-3.41-7.37-6.44-7.27-7.8-12.95-2.73-11,7.22-16.94,6.83-25.91-.68-17.64-40.78-40.65-57.56-26.9Z" transform="translate(1.5 1.5)"/></g><g id="Lager_15" data-name="Lager 15"><ellipse class="cls-5" cx="489.79" cy="1331.65" rx="50.73" ry="51.81"/></g><g id="Lager_16" data-name="Lager 16"><path class="cls-6" d="M562.44,1322.18c-5.27,10,1.46,23.91,2.93,26.9,4,8.17,7.8,9,9.76,16.94.49,1.89,2.93,11.56-2,18.93-4.39,6.78-10.54,4.78-15.61,10-8.88,9.07-8.39,33.08,4.88,43.84,9.17,7.37,25,9,34.15,3,2.73-1.79,6-5,9.76-4s3.9,5.28,7.8,7c4.78,2.09,13.27-.5,15.61-7s-2.83-13.55-7.8-15.94c-5.56-2.69-10.05.9-12.68-2-3.12-3.49,2.63-9.86,0-15.94-2.93-7-12.68-3.79-17.56-10-6.05-7.67,3-19.73,7.8-47.83,2.83-16.64,4.2-25.61-1-30.89-8.1-8.27-29.76-4.88-36.1,7Z" transform="translate(1.5 1.5)"/></g><g id="Lager_13" data-name="Lager 13"><path class="cls-7" d="M672.2,1290.89c9.95,9.66,20.29,19.83,25.56,33a41.83,41.83,0,0,1,3.12,19.83c-.68,6.78-3.32,13.55-6.63,19.63-6.73,12.26-16.49,22.52-23.22,34.77a103.33,103.33,0,0,0-11.61,37.46,139,139,0,0,0,2.34,44.44c.39,1.89,3.22,1.1,2.83-.8-5.37-25.91-4.29-54.4,8.2-78.12,6.63-12.55,16.39-22.82,23.41-35.07a59.46,59.46,0,0,0,7.32-19.33,42.24,42.24,0,0,0-1.66-20.33c-5-15.24-16.39-26.7-27.51-37.56-1.46-1.39-3.51.8-2.15,2.09h0Z" transform="translate(1.5 1.5)"/><path class="cls-8" d="M651.22,1208.79c-7.51,2-13.66,7.17-18.73,13-5.66,6.68-10.44,14.15-15.32,21.32-3.22,4.78-6.54,9.57-9.76,14.25-1.07,1.59,1.46,3.09,2.54,1.49,5.56-8.07,11-16.14,16.59-24.21,4.29-6.28,8.78-12.55,14.73-17.44a30,30,0,0,1,10.83-5.68c1.66-.4.88-3.29-.88-2.79h0Z" transform="translate(1.5 1.5)"/><path class="cls-9" d="M589.56,663.08A48.48,48.48,0,0,1,577.07,631a47.14,47.14,0,0,1,24.1-41.45c4.79-2.69,9.66-4.68,14.34-7.17s9-5.28,12.29-9.27A32.85,32.85,0,0,0,634,560.56c2.54-9.37,2.34-19.43,5.76-28.6,1.56-4.18,4.29-8.27,8.1-10.66a17.2,17.2,0,0,1,12.49-2,19.45,19.45,0,0,1,10.93,6.08c3.71,4.18,4.68,10.16,3.9,15.74-1.85,12.75-10.93,22.62-15.12,34.57-7.61,21.42,8.39,39.36,13.76,59A35.47,35.47,0,0,1,675,649.33c-.88,5.28-3.22,10.06-5.85,14.65-5.27,9.07-11.9,18.23-11.22,29.29.68,12,8.39,21.92,15.61,30.69,7.51,9.07,16.49,19.63,16.29,32.18-.2,11.26-8.68,19.93-11.71,30.39-3.41,11.66,2.63,22.22,10.93,29.89,4.78,4.38,10.15,8.07,14.93,12.55a47.57,47.57,0,0,1,10,12.95c5,9.47,6.63,21.52-.78,30.19s-19.41,11.26-29.85,13.75A336.29,336.29,0,0,1,642.26,893c-6.63.7-13.37,1.3-20.1,1.59-1.85.1-1.85,3.09,0,3a333.36,333.36,0,0,0,42.15-4.78c7.12-1.3,14.15-2.69,21.17-4.38a107,107,0,0,0,16.68-5.08c9.76-4.18,18-11.76,18.93-23.12,1-11-4.59-21.82-11.61-29.79-8.39-9.47-20.88-15.14-26.93-26.8a21.91,21.91,0,0,1-1.27-17.34c1.76-5.38,4.88-10.16,7.32-15.14s4.39-10.46,4.2-16.24c-.2-6.08-2.44-12-5.37-17.14-6.24-11-15.9-19.33-21.95-30.29-3-5.48-5.07-11.46-4.49-17.84.49-5.68,2.93-10.86,5.66-15.64,5.27-9.27,11.71-18.13,11.71-29.39,0-10.56-4.78-20.33-9.07-29.69s-9-19.53-8.1-30.19c1.17-13.15,10.83-23.41,15.12-35.37,3.71-10.36,3.22-22.52-6.44-29.29-7-4.88-17.37-5.68-24.49-.5-8,5.88-10,16.14-11.32,25.51-1.46,10.06-2.63,20.92-10.34,28.2s-19.41,10.16-28.29,16.44a52,52,0,0,0-19.22,26.9c-3.32,10.86-2.44,23.41,2,34.18a49.36,49.36,0,0,0,9.27,14.35c1.27,1.49,3.32-.7,2.05-2.09h0Z" transform="translate(1.5 1.5)"/></g><g id="Lager_14" data-name="Lager 14"><path class="cls-10" d="M736.1,971.46c-11.22-1.1-23.41,6-23.41,6h0s-9.17-2.69-14.63-3c-6.83-.4-17.37,2.29-23.41,11-7,10.06-5.46,24.41,1,31.88,5,5.78,9,3,15.61,9,9.76,8.77,5,18.23,13.66,26.9,6.54,6.48,18.05,10,28.29,6,9.27-3.59,16.49-13.05,16.59-21.92.1-6.78-3.9-7.47-3.9-15,0-8,4.59-9.27,7.8-20.92,1.85-6.68,3.41-12.35,1-17.93-3.22-7.47-12-11.26-18.54-12Z" transform="translate(1.5 1.5)"/><ellipse class="cls-11" cx="742.77" cy="935.59" rx="28.78" ry="29.39"/></g><g id="Lager_12" data-name="Lager 12"><path class="cls-12" d="M338.15,1103.28c-9.17,19.93-13.66,42.64-9.27,64.37,3.71,18.23,14.44,35.07,29.85,45a56.55,56.55,0,0,0,25.66,8.77c10.73.9,21.76-.4,32.2,2.69,15.9,4.78,23.71,20.53,32,33.78,4,6.48,8.39,13,14.24,17.84,6.63,5.58,14.44,8.07,22.93,8.87,9.07.9,18.63.2,27.32,3.29a22.69,22.69,0,0,1,10.73,7.77,31.61,31.61,0,0,1,5.37,12.65c2.34,11,.2,22.12-.49,33.18-.59,10.26.68,20.13,5.46,29.29,8.29,15.84,24.88,27,42.63,26.9a50.2,50.2,0,0,0,43.32-26.4c8.29-15.94,6.73-36.27-3-51.21a50.91,50.91,0,0,0-8.49-9.86c-1.46-1.2-3.51.9-2.05,2.09,13.17,11.46,18.93,30.69,14.73,47.83S602,1390.46,585,1393.85c-17.37,3.39-34.93-4.78-45.07-19.33a47.43,47.43,0,0,1-8.49-25.71c-.29-11.36,2.34-22.62,1.56-33.88-.59-9-3.22-18.43-10.05-24.51s-15.8-7.37-24.49-8-18.15-.2-26.34-4.09c-6.54-3.09-11.71-8.37-16-14.25-8.88-12.16-14.83-27.1-26.83-36.57-7.41-5.88-16.39-7.87-25.66-8.37-10.15-.6-20.49.2-30.34-2.79-16.88-5.18-30.24-19-37.27-35.17-8.49-19.33-7.41-41.75-1.27-61.58a113.17,113.17,0,0,1,5.76-14.85c1-1.79-1.56-3.29-2.34-1.49h0Z" transform="translate(1.5 1.5)"/><path class="cls-13" d="M473.17,772c-5.85,3.29-13.07,2.59-18.44,7.07-6.15,5.28-6.15,14.15-5.85,21.62.1,1.89,3,1.89,2.93,0-.29-6.78-.59-15.54,5.56-19.93,5.07-3.59,11.8-3.19,17.27-6.18,1.66-.9.2-3.49-1.46-2.59h0Z" transform="translate(1.5 1.5)"/><path class="cls-14" d="M437.76,862.65a51.19,51.19,0,0,0-20.1,41.65A52.39,52.39,0,0,0,420,918.85c.59,1.79,3.41,1,2.83-.8a48.87,48.87,0,0,1,7.8-44.24,50.48,50.48,0,0,1,8.59-8.57c1.56-1.2.1-3.79-1.46-2.59Z" transform="translate(1.5 1.5)"/></g><g id="Lager_11" data-name="Lager 11"><path class="cls-15" d="M464.88,928.61c9.27,13.35,7.71,29,6.83,37.86-1.76,17.64-7.9,18.43-7.8,28.89.29,23.71,32,28,42.93,56.79,7.71,20.23,3.41,48.12-11.71,60.78-27.61,23.12-89.46-5.68-95.61-35.87-3.71-18.33,15-28,8.78-50.81-4-14.45-18.05-34.37-20.49-37.86-3.51-5.08-6.44-8.47-8.78-14.95-4.2-11.46-1.07-17-5.85-21.92-5.37-5.48-11.61-.7-18.54-6-7.51-5.68-11.12-19.43-5.85-25.91,5.37-6.68,19.8-5.38,27.32,1,4.59,3.89,6.05,9.37,13.66,13,1.37.6,5.27,2.49,6.83,1s-.78-4.88-1-9c-.39-7.87,7.32-15.94,14.63-18.93s14.05-.8,24.39,3c12.59,4.58,22.93,8.27,30.24,18.93Z" transform="translate(1.5 1.5)"/></g><g id="Lager_10" data-name="Lager 10"><ellipse class="cls-16" cx="661.01" cy="1529.43" rx="61.46" ry="62.77"/><ellipse class="cls-17" cx="785.4" cy="1571.78" rx="103.41" ry="105.61"/><ellipse class="cls-18" cx="257.11" cy="1276.35" rx="62.93" ry="64.27"/></g><g id="Lager_9" data-name="Lager 9"><path class="cls-19" d="M672.68,1194.64c-4.39,11.06-6.54,13.55-4.88,20.92.88,3.79.39,7,4.88,12,17.56,19.73,12.68,15.74,15.61,19.93,8,11.36-.2,34.28-12.68,41-10.54,5.78-21.46,8.77-43.9-5-15-9.17-25.76,4.18-28.29,0-2.24-3.79,2.54-10.26,20.49-35,15.8-21.62,23.71-32.68,23.41-39-.68-15.64-17.37-17.64-21.46-37-3.32-15.74,3-36.77,15.61-40.95,14.93-4.88,39.22,18,40,34.87.2,5.48-2.73,13-8.78,28.1h0Z" transform="translate(1.5 1.5)"/></g><g id="Lager_2" data-name="Lager 2"><ellipse class="cls-20" cx="637.6" cy="626.72" rx="21.95" ry="22.42"/><ellipse class="cls-21" cx="585.89" cy="468.3" rx="62.93" ry="64.27"/><ellipse class="cls-22" cx="388.33" cy="446.88" rx="103.41" ry="105.61"/><ellipse class="cls-23" cx="747.84" cy="682.52" rx="55.12" ry="56.29"/></g><g id="Lager_4" data-name="Lager 4"><path class="cls-24" d="M585.85,659.6c-17.27,7-21.56,26-22.44,29.89-1.07,4.78-.39,5.48-1,13-.39,5.48-2.24,29.39-12.68,43.84-8.39,11.66-16.68,9.37-32.2,18.93-22.34,13.85-37.37,38.86-41.95,59.78-5.27,24,6.83,26.4,11.71,74.73,3.12,30.79,5.37,53.11-6.83,73.73-10.83,18.33-20.88,14.85-32.2,34.87-3,5.28-20,35.17-5.85,63.77,11.41,23,35,29.19,38.05,29.89,16.88,4.09,38.15,1.1,50.73-12,10.34-10.76,6.83-20,19.51-30.89,2.63-2.19,16-13.75,28.29-10,10.44,3.19,8.88,14.15,24.39,29.89,6.63,6.68,14.44,14.65,26.34,16.94,11.22,2.19,27.8-.4,38-14,9.56-12.65,10.73-31.29,2.93-41.85-6.15-8.27-13.76-6.08-43.9-20.92-10.34-5.08-12.39-6.78-13.66-8-10.73-9.86-15.41-26.6-13.66-40.85,1.37-11.46,12.29-25.41,34.15-52.81,13.76-17.34,16.59-19.53,20.49-27.9,8.68-18.63,8.1-36.07,7.8-43.84-.29-7.57-2.83-48.72-30.24-71.74-6.05-5.08-10.24-6.78-12.68-12.95-4.88-12.45,3.22-29.29,9.76-42.84,3.41-7.07,3.8-6.58,4.88-10,3.32-10.76,3-28.7-9.76-40.85-9.85-9.37-24.88-13.25-38-8Z" transform="translate(1.5 1.5)"/></g><g id="Lager_6" data-name="Lager 6"><path class="cls-25" d="M486.34,708.42c-14.44.8-24.29,18.23-22.44,29.89,1,6,4.2,5.88,6.83,13,5.07,13.75-1.17,31-10.73,40.85-7.12,7.37-10.34,4.58-17.56,11-13.66,12.06-19.41,37.56-11.71,55.8,6.93,16.54,18.93,13,34.15,33.88,4.1,5.58,15.71,21.52,16.59,43.84,1,25.21-12.39,50.12-31.22,62.77-12.49,8.37-27.41,11.36-40,13.95-12.1,2.49-14.44,1.49-21.46,3-19,4.18-40.78,20-49.76,42.84-14.93,38,9.27,84.39,35.12,92.66,11.41,3.59,20-1.2,42,6,9,2.89,16.68,5.38,24.39,12,15.71,13.25,9.66,24.71,23.41,35.87,14.63,11.86,36.39,11.16,41,11,11.61-.4,13.56-3.39,19.51-1,13.07,5.28,18.83,26.1,18.54,41.85-.29,15.34-6.15,16.24-5.85,28.89.39,15,9.27,35.77,29.27,43.84,17.66,7.07,38.34,1.89,49.76-11,9.95-11.16,10.34-25.21,10.73-38.86.78-25.11-7.32-27.3-7.8-46.83-.78-36.07,25.85-74.73,42.93-92.66,3.32-3.49,8.1-8.07,10.73-15.94,4.1-12.06,1.66-26.8-9.76-46.83-25.85-45.63-53.27-40.15-61.46-68.75-7.8-27.5,15.51-39.85,4.88-76.72-1.17-4.09-8.1-28.3-22.44-30.89-6.54-1.2-8.78,3.19-17.56,3-11.71-.2-24.88-8.27-29.27-18.93-6-14.25,8.49-21.22,7.8-40.85-.78-22.22-19.71-22.22-34.15-59.78-6.63-17.24-12-31.29-6.83-45.83,2.15-6.08,5.56-10.76,3.9-16.94-2.24-8.17-12.2-14.45-21.46-14Z" transform="translate(1.5 1.5)"/></g><g id="Lager_3" data-name="Lager 3"><path class="cls-26" d="M571.22,1154.79c-11.22,1.2-16.59,5.38-19.51,9-5.37,6.68-2.73,12.35-8.78,18.93-3.32,3.69-5.27,3.09-17.56,9-10.15,4.88-15.22,7.27-17.56,10-7.71,8.67-9.27,25.91-1.95,34.87,6.83,8.37,16.2,3,26.34,13,6.63,6.58,4.2,10.36,10.73,17.93,1.46,1.69,15,16.84,33.17,13,13.46-2.89,24.49-15.14,25.37-26.9.78-10.76-7.61-13.55-7.8-29.89a62.46,62.46,0,0,1,2.93-18.93c3.12-9.86,5.66-9.86,6.83-15.94,2-10.56-3.32-24.61-14.63-30.89a28.15,28.15,0,0,0-17.56-3Z" transform="translate(1.5 1.5)"/></g></g></g><g id="Content"><rect class="cls-27" x="38.62" y="278.5" width="695.15" height="597.19" rx="22.02"/><g id="Tåg_och_buss" data-name="Tåg och buss"><g id="TågTrafik"><g id="Tåg_6" data-name="Tåg 6"><path id="Bakgrund-3" data-name="Bakgrund" class="cls-28" d="M325.52,774.5H709.93c6.11,0,11.06,5.37,11.06,12v51c0,6.63-5,12-11.06,12H325.52c-6.11,0-11.06-5.37-11.06-12v-51C314.46,779.87,319.41,774.5,325.52,774.5Z" transform="translate(1.5 1.5)"/><text class="cls-29" transform="translate(387.5 822.83)">Malmö</text><text class="cls-30" transform="translate(637.08 821.5)">5 min</text><path id="Ruta" class="cls-31" d="M325.11,774h386c6.13,0,11.11,5.37,11.11,12v51c0,6.63-5,12-11.11,12h-386C319,849,314,843.63,314,837V786C314,779.37,319,774,325.11,774Z" transform="translate(1.5 1.5)"/><path class="cls-32" d="M376.13,828.53h-51.8a4.52,4.52,0,0,1-4.31-4.69V794.23a4.53,4.53,0,0,1,4.31-4.7h39.29c7.77,0,16.4,28.2,16.4,34.31v.46C380,826.9,378.52,828.53,376.13,828.53Z" transform="translate(1.5 1.5)"/><path id="Tåg" class="cls-33" d="M353.65,822.3h-.25c-.54.07-1.09.11-1.65.13h-8.7c-.55,0-1.11-.06-1.65-.13h-.27l0,0a12.27,12.27,0,0,1-3.29-.81,1.48,1.48,0,0,0-.25.25l-2.05,2.61c-.29.37-.21.68.19.68h2.79c.39,0,.7-.3,1-.68l.15-.18h15.4l.15.18a1.36,1.36,0,0,0,1,.68H359c.4,0,.49-.31.19-.68l-2-2.61a1.36,1.36,0,0,0-.24-.24,13.18,13.18,0,0,1-3.29.81l0,0Zm3.51-19.57c0-.64-.15-3.21-2.14-4.52-1-.67-2-.71-4-.79h-.25a3.58,3.58,0,0,0-6.78,0h-.18c-2,.08-3,.12-4,.79-2,1.31-2.11,3.88-2.14,4.52s-1.21,14.08-1.21,14.08a4.28,4.28,0,0,0,2.08,3.44,11.5,11.5,0,0,0,5.08,1.13h7.63a11.5,11.5,0,0,0,5.08-1.13,4.28,4.28,0,0,0,2.08-3.44s-1.18-13.43-1.21-14.08Zm-9.8-5.89a1.89,1.89,0,1,1-1.83,1.89A1.87,1.87,0,0,1,347.36,796.84ZM340,818.35a1.89,1.89,0,1,1,1.83-1.88A1.86,1.86,0,0,1,340,818.35Zm12.83-12.44c0,.37-.64,4.84-.64,4.84a2.3,2.3,0,0,1-1.19,1.86,6.41,6.41,0,0,1-2.86.58h-1.57a6.33,6.33,0,0,1-2.85-.58,2.31,2.31,0,0,1-1.2-1.86s-.64-4.47-.64-4.84a2.5,2.5,0,0,1,.94-2.6,4.28,4.28,0,0,1,2.31-.46h4.44a4.29,4.29,0,0,1,2.32.46A2.5,2.5,0,0,1,352.82,805.91Zm1.84,12.44a1.89,1.89,0,1,1,1.84-1.88A1.85,1.85,0,0,1,354.66,818.35Z" transform="translate(1.5 1.5)"/></g><g id="Tåg_5" data-name="Tåg 5"><path id="Bakgrund-4" data-name="Bakgrund" class="cls-28" d="M325.52,685.5H709.93c6.11,0,11.06,5.37,11.06,12v51c0,6.63-5,12-11.06,12H325.52c-6.11,0-11.06-5.37-11.06-12v-51C314.46,690.87,319.41,685.5,325.52,685.5Z" transform="translate(1.5 1.5)"/><text class="cls-29" transform="translate(387.5 733.83)">Göteborg</text><text class="cls-30" transform="translate(637.08 732.5)">5 min</text><path id="Ruta-2" data-name="Ruta" class="cls-31" d="M325.11,685h386c6.13,0,11.11,5.37,11.11,12v51c0,6.63-5,12-11.11,12h-386C319,760,314,754.63,314,748V697C314,690.37,319,685,325.11,685Z" transform="translate(1.5 1.5)"/><path class="cls-32" d="M376.13,739.53h-51.8a4.52,4.52,0,0,1-4.31-4.69V705.23a4.53,4.53,0,0,1,4.31-4.7h39.29c7.77,0,16.4,28.2,16.4,34.31v.46C380,737.9,378.52,739.53,376.13,739.53Z" transform="translate(1.5 1.5)"/><path id="Tåg-2" data-name="Tåg" class="cls-33" d="M353.65,733.3h-.25c-.54.07-1.09.11-1.65.13h-8.7c-.55,0-1.11-.06-1.65-.13h-.27l0,0a12.27,12.27,0,0,1-3.29-.81,1.48,1.48,0,0,0-.25.25l-2.05,2.61c-.29.37-.21.68.19.68h2.79c.39,0,.7-.3,1-.68l.15-.18h15.4l.15.18a1.36,1.36,0,0,0,1,.68H359c.4,0,.49-.31.19-.68l-2-2.61a1.36,1.36,0,0,0-.24-.24,13.18,13.18,0,0,1-3.29.81l0,0Zm3.51-19.57c0-.64-.15-3.21-2.14-4.52-1-.67-2-.71-4-.79h-.25a3.58,3.58,0,0,0-6.78,0h-.18c-2,.08-3,.12-4,.79-2,1.31-2.11,3.88-2.14,4.52s-1.21,14.08-1.21,14.08a4.28,4.28,0,0,0,2.08,3.44,11.5,11.5,0,0,0,5.08,1.13h7.63a11.5,11.5,0,0,0,5.08-1.13,4.28,4.28,0,0,0,2.08-3.44s-1.18-13.43-1.21-14.08Zm-9.8-5.89a1.89,1.89,0,1,1-1.83,1.89A1.87,1.87,0,0,1,347.36,707.84ZM340,729.35a1.89,1.89,0,1,1,1.83-1.88A1.86,1.86,0,0,1,340,729.35Zm12.83-12.44c0,.37-.64,4.84-.64,4.84a2.3,2.3,0,0,1-1.19,1.86,6.41,6.41,0,0,1-2.86.58h-1.57a6.33,6.33,0,0,1-2.85-.58,2.31,2.31,0,0,1-1.2-1.86s-.64-4.47-.64-4.84a2.5,2.5,0,0,1,.94-2.6,4.28,4.28,0,0,1,2.31-.46h4.44a4.29,4.29,0,0,1,2.32.46A2.5,2.5,0,0,1,352.82,716.91Zm1.84,12.44a1.89,1.89,0,1,1,1.84-1.88A1.85,1.85,0,0,1,354.66,729.35Z" transform="translate(1.5 1.5)"/></g><g id="Tåg_4" data-name="Tåg 4"><path id="Bakgrund-5" data-name="Bakgrund" class="cls-28" d="M325.52,596.5H709.93c6.11,0,11.06,5.37,11.06,12v51c0,6.63-5,12-11.06,12H325.52c-6.11,0-11.06-5.37-11.06-12v-51C314.46,601.87,319.41,596.5,325.52,596.5Z" transform="translate(1.5 1.5)"/><text class="cls-29" transform="translate(387.5 644.83)">Halmstad</text><text class="cls-30" transform="translate(637.08 643.5)">5 min</text><path id="Ruta-3" data-name="Ruta" class="cls-31" d="M325.11,596h386c6.13,0,11.11,5.37,11.11,12v51c0,6.63-5,12-11.11,12h-386C319,671,314,665.63,314,659V608C314,601.37,319,596,325.11,596Z" transform="translate(1.5 1.5)"/><path class="cls-34" d="M376.13,650.53h-51.8a4.52,4.52,0,0,1-4.31-4.69V616.23a4.53,4.53,0,0,1,4.31-4.7h39.29c7.77,0,16.4,28.2,16.4,34.31v.46C380,648.9,378.52,650.53,376.13,650.53Z" transform="translate(1.5 1.5)"/><path id="Tåg-3" data-name="Tåg" class="cls-33" d="M353.65,644.3h-.25c-.54.07-1.09.11-1.65.13h-8.7c-.55,0-1.11-.06-1.65-.13h-.27l0,0a12.27,12.27,0,0,1-3.29-.81,1.48,1.48,0,0,0-.25.25l-2.05,2.61c-.29.37-.21.68.19.68h2.79c.39,0,.7-.3,1-.68l.15-.18h15.4l.15.18a1.36,1.36,0,0,0,1,.68H359c.4,0,.49-.31.19-.68l-2-2.61a1.36,1.36,0,0,0-.24-.24,13.18,13.18,0,0,1-3.29.81l0,0Zm3.51-19.57c0-.64-.15-3.21-2.14-4.52-1-.67-2-.71-4-.79h-.25a3.58,3.58,0,0,0-6.78,0h-.18c-2,.08-3,.12-4,.79-2,1.31-2.11,3.88-2.14,4.52s-1.21,14.08-1.21,14.08a4.28,4.28,0,0,0,2.08,3.44,11.5,11.5,0,0,0,5.08,1.13h7.63a11.5,11.5,0,0,0,5.08-1.13,4.28,4.28,0,0,0,2.08-3.44s-1.18-13.43-1.21-14.08Zm-9.8-5.89a1.89,1.89,0,1,1-1.83,1.89A1.87,1.87,0,0,1,347.36,618.84ZM340,640.35a1.89,1.89,0,1,1,1.83-1.88A1.86,1.86,0,0,1,340,640.35Zm12.83-12.44c0,.37-.64,4.84-.64,4.84a2.3,2.3,0,0,1-1.19,1.86,6.41,6.41,0,0,1-2.86.58h-1.57a6.33,6.33,0,0,1-2.85-.58,2.31,2.31,0,0,1-1.2-1.86s-.64-4.47-.64-4.84a2.5,2.5,0,0,1,.94-2.6,4.28,4.28,0,0,1,2.31-.46h4.44a4.29,4.29,0,0,1,2.32.46A2.5,2.5,0,0,1,352.82,627.91Zm1.84,12.44a1.89,1.89,0,1,1,1.84-1.88A1.85,1.85,0,0,1,354.66,640.35Z" transform="translate(1.5 1.5)"/></g><g id="Tåg_3" data-name="Tåg 3"><path id="Bakgrund-6" data-name="Bakgrund" class="cls-28" d="M325.52,507.5H709.93c6.11,0,11.06,5.37,11.06,12v51c0,6.63-5,12-11.06,12H325.52c-6.11,0-11.06-5.37-11.06-12v-51C314.46,512.87,319.41,507.5,325.52,507.5Z" transform="translate(1.5 1.5)"/><text class="cls-29" transform="translate(387.5 555.83)">Landskrona</text><text class="cls-30" transform="translate(637.08 554.5)">5 min</text><path id="Ruta-4" data-name="Ruta" class="cls-31" d="M325.11,507h386c6.13,0,11.11,5.37,11.11,12v51c0,6.63-5,12-11.11,12h-386C319,582,314,576.63,314,570V519C314,512.37,319,507,325.11,507Z" transform="translate(1.5 1.5)"/><path class="cls-34" d="M376.13,561.53h-51.8a4.52,4.52,0,0,1-4.31-4.69V527.23a4.53,4.53,0,0,1,4.31-4.7h39.29c7.77,0,16.4,28.2,16.4,34.31v.46C380,559.9,378.52,561.53,376.13,561.53Z" transform="translate(1.5 1.5)"/><path id="Tåg-4" data-name="Tåg" class="cls-33" d="M353.65,555.3h-.25c-.54.07-1.09.11-1.65.13h-8.7c-.55,0-1.11-.06-1.65-.13h-.27l0,0a12.27,12.27,0,0,1-3.29-.81,1.48,1.48,0,0,0-.25.25l-2.05,2.61c-.29.37-.21.68.19.68h2.79c.39,0,.7-.3,1-.68l.15-.18h15.4l.15.18a1.36,1.36,0,0,0,1,.68H359c.4,0,.49-.31.19-.68l-2-2.61a1.36,1.36,0,0,0-.24-.24,13.18,13.18,0,0,1-3.29.81l0,0Zm3.51-19.57c0-.64-.15-3.21-2.14-4.52-1-.67-2-.71-4-.79h-.25a3.58,3.58,0,0,0-6.78,0h-.18c-2,.08-3,.12-4,.79-2,1.31-2.11,3.88-2.14,4.52s-1.21,14.08-1.21,14.08a4.28,4.28,0,0,0,2.08,3.44,11.5,11.5,0,0,0,5.08,1.13h7.63a11.5,11.5,0,0,0,5.08-1.13,4.28,4.28,0,0,0,2.08-3.44s-1.18-13.43-1.21-14.08Zm-9.8-5.89a1.89,1.89,0,1,1-1.83,1.89A1.87,1.87,0,0,1,347.36,529.84ZM340,551.35a1.89,1.89,0,1,1,1.83-1.88A1.86,1.86,0,0,1,340,551.35Zm12.83-12.44c0,.37-.64,4.84-.64,4.84a2.3,2.3,0,0,1-1.19,1.86,6.41,6.41,0,0,1-2.86.58h-1.57a6.33,6.33,0,0,1-2.85-.58,2.31,2.31,0,0,1-1.2-1.86s-.64-4.47-.64-4.84a2.5,2.5,0,0,1,.94-2.6,4.28,4.28,0,0,1,2.31-.46h4.44a4.29,4.29,0,0,1,2.32.46A2.5,2.5,0,0,1,352.82,538.91Zm1.84,12.44a1.89,1.89,0,1,1,1.84-1.88A1.85,1.85,0,0,1,354.66,551.35Z" transform="translate(1.5 1.5)"/></g><g id="Tåg2"><path id="Bakgrund-7" data-name="Bakgrund" class="cls-28" d="M325.89,419h384.4c6.11,0,11.07,5.37,11.07,12v51c0,6.63-5,12-11.07,12H325.89c-6.11,0-11.06-5.37-11.06-12V431C314.83,424.37,319.78,419,325.89,419Z" transform="translate(1.5 1.5)"/><text class="cls-29" transform="translate(387.5 467.83)">Bjuv</text><text class="cls-30" transform="translate(637.08 466.5)">5 min</text><path id="Ruta-5" data-name="Ruta" class="cls-31" d="M325.48,418.5h386c6.13,0,11.11,5.37,11.11,12v51c0,6.63-5,12-11.11,12h-386c-6.14,0-11.11-5.37-11.11-12v-51C314.37,423.87,319.34,418.5,325.48,418.5Z" transform="translate(1.5 1.5)"/><path class="cls-34" d="M376.5,473.87H324.7a4.53,4.53,0,0,1-4.31-4.7V439.56a4.51,4.51,0,0,1,4.31-4.69H364c7.77,0,16.4,28.19,16.4,34.3v.47C380.39,472.24,378.89,473.87,376.5,473.87Z" transform="translate(1.5 1.5)"/><path id="Tåg-5" data-name="Tåg" class="cls-33" d="M353.65,466.3h-.25c-.54.07-1.09.11-1.65.13h-8.7c-.55,0-1.11-.06-1.65-.13h-.27l0,0a12.27,12.27,0,0,1-3.29-.81,1.48,1.48,0,0,0-.25.25l-2.05,2.61c-.29.37-.21.68.19.68h2.79c.39,0,.7-.3,1-.68l.15-.18h15.4l.15.18a1.36,1.36,0,0,0,1,.68H359c.4,0,.49-.31.19-.68l-2-2.61a1.36,1.36,0,0,0-.24-.24,13.18,13.18,0,0,1-3.29.81l0,0Zm3.51-19.57c0-.64-.15-3.21-2.14-4.52-1-.67-2-.71-4-.79h-.25a3.58,3.58,0,0,0-6.78,0h-.18c-2,.08-3,.12-4,.79-2,1.31-2.11,3.88-2.14,4.52s-1.21,14.08-1.21,14.08a4.28,4.28,0,0,0,2.08,3.44,11.5,11.5,0,0,0,5.08,1.13h7.63a11.5,11.5,0,0,0,5.08-1.13,4.28,4.28,0,0,0,2.08-3.44s-1.18-13.43-1.21-14.08Zm-9.8-5.89a1.89,1.89,0,1,1-1.83,1.89A1.87,1.87,0,0,1,347.36,440.84ZM340,462.35a1.89,1.89,0,1,1,1.83-1.88A1.86,1.86,0,0,1,340,462.35Zm12.83-12.44c0,.37-.64,4.84-.64,4.84a2.3,2.3,0,0,1-1.19,1.86,6.41,6.41,0,0,1-2.86.58h-1.57a6.33,6.33,0,0,1-2.85-.58,2.31,2.31,0,0,1-1.2-1.86s-.64-4.47-.64-4.84a2.5,2.5,0,0,1,.94-2.6,4.28,4.28,0,0,1,2.31-.46h4.44a4.29,4.29,0,0,1,2.32.46A2.5,2.5,0,0,1,352.82,449.91Zm1.84,12.44a1.89,1.89,0,1,1,1.84-1.88A1.85,1.85,0,0,1,354.66,462.35Z" transform="translate(1.5 1.5)"/></g><g id="Tåg1"><path id="Bakgrund-8" data-name="Bakgrund" class="cls-28" d="M325.89,330h384.4c6.11,0,11.07,5.37,11.07,12v51c0,6.63-5,12-11.07,12H325.89c-6.11,0-11.06-5.37-11.06-12V342C314.83,335.37,319.78,330,325.89,330Z" transform="translate(1.5 1.5)"/><text class="cls-29" transform="translate(387.5 377.83)"><tspan class="cls-35">T</tspan><tspan x="17.5" y="0">eckomatorp</tspan></text><text class="cls-30" transform="translate(637.08 376.5)">5 min</text><path id="Ruta-6" data-name="Ruta" class="cls-31" d="M325.48,329.5h386c6.13,0,11.11,5.37,11.11,12v51c0,6.63-5,12-11.11,12h-386c-6.14,0-11.11-5.37-11.11-12v-51C314.37,334.87,319.34,329.5,325.48,329.5Z" transform="translate(1.5 1.5)"/><path class="cls-34" d="M376.13,384h-51.8a4.52,4.52,0,0,1-4.31-4.69V349.73a4.53,4.53,0,0,1,4.31-4.7h39.29c7.77,0,16.4,28.2,16.4,34.31v.46C380,382.4,378.52,384,376.13,384Z" transform="translate(1.5 1.5)"/><path id="Tåg-6" data-name="Tåg" class="cls-33" d="M353.65,377.3h-.25c-.54.07-1.09.11-1.65.13h-8.7c-.55,0-1.11-.06-1.65-.13h-.27l0,0a12.27,12.27,0,0,1-3.29-.81,1.48,1.48,0,0,0-.25.25l-2.05,2.61c-.29.37-.21.68.19.68h2.79c.39,0,.7-.3,1-.68l.15-.18h15.4l.15.18a1.36,1.36,0,0,0,1,.68H359c.4,0,.49-.31.19-.68l-2-2.61a1.36,1.36,0,0,0-.24-.24,13.18,13.18,0,0,1-3.29.81l0,0Zm3.51-19.57c0-.64-.15-3.21-2.14-4.52-1-.67-2-.71-4-.79h-.25a3.58,3.58,0,0,0-6.78,0h-.18c-2,.08-3,.12-4,.79-2,1.31-2.11,3.88-2.14,4.52s-1.21,14.08-1.21,14.08a4.28,4.28,0,0,0,2.08,3.44,11.5,11.5,0,0,0,5.08,1.13h7.63a11.5,11.5,0,0,0,5.08-1.13,4.28,4.28,0,0,0,2.08-3.44s-1.18-13.43-1.21-14.08Zm-9.8-5.89a1.89,1.89,0,1,1-1.83,1.89A1.87,1.87,0,0,1,347.36,351.84ZM340,373.35a1.89,1.89,0,1,1,1.83-1.88A1.86,1.86,0,0,1,340,373.35Zm12.83-12.44c0,.37-.64,4.84-.64,4.84a2.3,2.3,0,0,1-1.19,1.86,6.41,6.41,0,0,1-2.86.58h-1.57a6.33,6.33,0,0,1-2.85-.58,2.31,2.31,0,0,1-1.2-1.86s-.64-4.47-.64-4.84a2.5,2.5,0,0,1,.94-2.6,4.28,4.28,0,0,1,2.31-.46h4.44a4.29,4.29,0,0,1,2.32.46A2.5,2.5,0,0,1,352.82,360.91Zm1.84,12.44a1.89,1.89,0,1,1,1.84-1.88A1.85,1.85,0,0,1,354.66,373.35Z" transform="translate(1.5 1.5)"/></g></g><g id="Buss_kolum_1" data-name="Buss kolum 1"><g id="Buss6"><path id="Bakgrund-9" data-name="Bakgrund" class="cls-28" d="M62.16,774.5H293.57c3.67,0,6.66,5.37,6.66,12v51c0,6.63-3,12-6.66,12H62.16c-3.68,0-6.66-5.37-6.66-12v-51C55.5,779.87,58.48,774.5,62.16,774.5Z" transform="translate(1.5 1.5)"/><text class="cls-29" transform="translate(127.5 822.84)">236</text><text class="cls-30" transform="translate(214.5 821.5)">5 min</text><path id="Ruta-7" data-name="Ruta" class="cls-36" d="M61.67,774H293.55c3.69,0,6.68,5.37,6.68,12v51c0,6.63-3,12-6.68,12H61.67C58,849,55,843.63,55,837V786C55,779.37,58,774,61.67,774Z" transform="translate(1.5 1.5)"/><path class="cls-37" d="M117.13,828.53H65.33A4.52,4.52,0,0,1,61,823.84V794.23a4.53,4.53,0,0,1,4.31-4.7h39.29c7.77,0,16.4,28.2,16.4,34.31v.46C121,826.9,119.52,828.53,117.13,828.53Z" transform="translate(1.5 1.5)"/><path id="Buss" class="cls-33" d="M97.74,803.52h-.53l-.27-3.74a4.75,4.75,0,0,0-2.29-3.61c-1.07-.7-3.7-1.08-5.77-1.17H84.36a10.38,10.38,0,0,0-4.93,1.17,4.92,4.92,0,0,0-2.36,3.61l-.25,3.74h-.55A1.3,1.3,0,0,0,75,804.85v3.77a3.15,3.15,0,0,0,1.34,2.08q-.23,3.28-.42,6.57c0,.66-.56,3.1,1.54,4.63v2.44a.65.65,0,0,0,.63.66h1.79a.66.66,0,0,0,.64-.66v-1.55l1.26.06H92.11l1.19-.06v1.55a.65.65,0,0,0,.63.66h1.79a.65.65,0,0,0,.63-.66v-2.48c2.05-1.54,1.63-3.93,1.62-4.59,0-.46,0-1.77-.3-6.58A3.12,3.12,0,0,0,99,808.62v-3.77A1.3,1.3,0,0,0,97.74,803.52Zm-15-5.41a.65.65,0,0,1,.63-.66h7.06a.65.65,0,0,1,.63.66v.55a.64.64,0,0,1-.63.66H83.39a.64.64,0,0,1-.63-.66v-.55Zm-3.05,21.53a1.93,1.93,0,1,1,1.85-1.93A1.89,1.89,0,0,1,79.71,819.64Zm11.23-6.23a7.14,7.14,0,0,1-3.2.66H86a7.27,7.27,0,0,1-3.19-.66,2.61,2.61,0,0,1-1.33-2.12s-.71-5.06-.72-5.49a2.88,2.88,0,0,1,1-2.95,4.7,4.7,0,0,1,2.59-.51h5a4.66,4.66,0,0,1,2.58.51A2.87,2.87,0,0,1,93,805.8c0,.43-.72,5.49-.72,5.49A2.61,2.61,0,0,1,90.94,813.41Zm1.39,4.3a1.85,1.85,0,1,1,1.84,1.93A1.88,1.88,0,0,1,92.33,817.71Z" transform="translate(1.5 1.5)"/></g><g id="Buss5"><path id="Bakgrund-10" data-name="Bakgrund" class="cls-28" d="M62.16,685.5H293.57c3.67,0,6.66,5.37,6.66,12v51c0,6.63-3,12-6.66,12H62.16c-3.68,0-6.66-5.37-6.66-12v-51C55.5,690.87,58.48,685.5,62.16,685.5Z" transform="translate(1.5 1.5)"/><path id="Ruta-8" data-name="Ruta" class="cls-36" d="M61.67,685H293.55c3.69,0,6.68,5.37,6.68,12v51c0,6.63-3,12-6.68,12H61.67C58,760,55,754.63,55,748V697C55,690.37,58,685,61.67,685Z" transform="translate(1.5 1.5)"/><text class="cls-30" transform="translate(214.5 732.5)">5 min</text><text class="cls-29" transform="translate(127.5 733.84)">15</text><path class="cls-38" d="M117.13,739.53H65.33A4.52,4.52,0,0,1,61,734.84V705.23a4.53,4.53,0,0,1,4.31-4.7h39.29c7.77,0,16.4,28.2,16.4,34.31v.46C121,737.9,119.52,739.53,117.13,739.53Z" transform="translate(1.5 1.5)"/><path id="Buss-2" data-name="Buss" class="cls-33" d="M97.74,714.52h-.53l-.27-3.74a4.75,4.75,0,0,0-2.29-3.61c-1.07-.7-3.7-1.08-5.77-1.17H84.36a10.38,10.38,0,0,0-4.93,1.17,4.92,4.92,0,0,0-2.36,3.61l-.25,3.74h-.55A1.3,1.3,0,0,0,75,715.85v3.77a3.15,3.15,0,0,0,1.34,2.08q-.23,3.28-.42,6.57c0,.66-.56,3.1,1.54,4.63v2.44a.65.65,0,0,0,.63.66h1.79a.66.66,0,0,0,.64-.66v-1.55l1.26.06H92.11l1.19-.06v1.55a.65.65,0,0,0,.63.66h1.79a.65.65,0,0,0,.63-.66v-2.48c2.05-1.54,1.63-3.93,1.62-4.59,0-.46,0-1.77-.3-6.58A3.12,3.12,0,0,0,99,719.62v-3.77A1.3,1.3,0,0,0,97.74,714.52Zm-15-5.41a.65.65,0,0,1,.63-.66h7.06a.65.65,0,0,1,.63.66v.55a.64.64,0,0,1-.63.66H83.39a.64.64,0,0,1-.63-.66v-.55Zm-3.05,21.53a1.93,1.93,0,1,1,1.85-1.93A1.89,1.89,0,0,1,79.71,730.64Zm11.23-6.23a7.14,7.14,0,0,1-3.2.66H86a7.27,7.27,0,0,1-3.19-.66,2.61,2.61,0,0,1-1.33-2.12s-.71-5.06-.72-5.49a2.88,2.88,0,0,1,1-2.95,4.7,4.7,0,0,1,2.59-.51h5a4.66,4.66,0,0,1,2.58.51A2.87,2.87,0,0,1,93,716.8c0,.43-.72,5.49-.72,5.49A2.61,2.61,0,0,1,90.94,724.41Zm1.39,4.3a1.85,1.85,0,1,1,1.84,1.93A1.88,1.88,0,0,1,92.33,728.71Z" transform="translate(1.5 1.5)"/></g><g id="Buss4"><path id="Bakgrund-11" data-name="Bakgrund" class="cls-28" d="M62.16,596.5H293.57c3.67,0,6.66,5.37,6.66,12v51c0,6.63-3,12-6.66,12H62.16c-3.68,0-6.66-5.37-6.66-12v-51C55.5,601.87,58.48,596.5,62.16,596.5Z" transform="translate(1.5 1.5)"/><text class="cls-29" transform="translate(127.5 644.84)">1</text><text class="cls-30" transform="translate(214.5 643.5)">5 min</text><path id="Ruta-9" data-name="Ruta" class="cls-36" d="M61.67,596H293.55c3.69,0,6.68,5.37,6.68,12v51c0,6.63-3,12-6.68,12H61.67C58,671,55,665.63,55,659V608C55,601.37,58,596,61.67,596Z" transform="translate(1.5 1.5)"/><path class="cls-38" d="M117.13,650.53H65.33A4.52,4.52,0,0,1,61,645.84V616.23a4.53,4.53,0,0,1,4.31-4.7h39.29c7.77,0,16.4,28.2,16.4,34.31v.46C121,648.9,119.52,650.53,117.13,650.53Z" transform="translate(1.5 1.5)"/><path id="Buss-3" data-name="Buss" class="cls-33" d="M97.74,625.52h-.53l-.27-3.74a4.75,4.75,0,0,0-2.29-3.61c-1.07-.7-3.7-1.08-5.77-1.17H84.36a10.38,10.38,0,0,0-4.93,1.17,4.92,4.92,0,0,0-2.36,3.61l-.25,3.74h-.55A1.3,1.3,0,0,0,75,626.85v3.77a3.15,3.15,0,0,0,1.34,2.08q-.23,3.28-.42,6.57c0,.66-.56,3.1,1.54,4.63v2.44a.65.65,0,0,0,.63.66h1.79a.66.66,0,0,0,.64-.66v-1.55l1.26.06H92.11l1.19-.06v1.55a.65.65,0,0,0,.63.66h1.79a.65.65,0,0,0,.63-.66v-2.48c2.05-1.54,1.63-3.93,1.62-4.59,0-.46,0-1.77-.3-6.58A3.12,3.12,0,0,0,99,630.62v-3.77A1.3,1.3,0,0,0,97.74,625.52Zm-15-5.41a.65.65,0,0,1,.63-.66h7.06a.65.65,0,0,1,.63.66v.55a.64.64,0,0,1-.63.66H83.39a.64.64,0,0,1-.63-.66v-.55Zm-3.05,21.53a1.93,1.93,0,1,1,1.85-1.93A1.89,1.89,0,0,1,79.71,641.64Zm11.23-6.23a7.14,7.14,0,0,1-3.2.66H86a7.27,7.27,0,0,1-3.19-.66,2.61,2.61,0,0,1-1.33-2.12s-.71-5.06-.72-5.49a2.88,2.88,0,0,1,1-2.95,4.7,4.7,0,0,1,2.59-.51h5a4.66,4.66,0,0,1,2.58.51A2.87,2.87,0,0,1,93,627.8c0,.43-.72,5.49-.72,5.49A2.61,2.61,0,0,1,90.94,635.41Zm1.39,4.3a1.85,1.85,0,1,1,1.84,1.93A1.88,1.88,0,0,1,92.33,639.71Z" transform="translate(1.5 1.5)"/></g><g id="Buss3"><path id="Bakgrund-12" data-name="Bakgrund" class="cls-28" d="M62.16,507.5H293.57c3.67,0,6.66,5.37,6.66,12v51c0,6.63-3,12-6.66,12H62.16c-3.68,0-6.66-5.37-6.66-12v-51C55.5,512.87,58.48,507.5,62.16,507.5Z" transform="translate(1.5 1.5)"/><path id="Ruta-10" data-name="Ruta" class="cls-36" d="M61.67,507H293.55c3.69,0,6.68,5.37,6.68,12v51c0,6.63-3,12-6.68,12H61.67C58,582,55,576.63,55,570V519C55,512.37,58,507,61.67,507Z" transform="translate(1.5 1.5)"/><text class="cls-30" transform="translate(214.5 554.5)">5 min</text><text class="cls-29" transform="translate(127.5 555.84)">15</text><path class="cls-38" d="M117.13,561.53H65.33A4.52,4.52,0,0,1,61,556.84V527.23a4.53,4.53,0,0,1,4.31-4.7h39.29c7.77,0,16.4,28.2,16.4,34.31v.46C121,559.9,119.52,561.53,117.13,561.53Z" transform="translate(1.5 1.5)"/><path id="Buss-4" data-name="Buss" class="cls-33" d="M97.74,536.52h-.53l-.27-3.74a4.75,4.75,0,0,0-2.29-3.61c-1.07-.7-3.7-1.08-5.77-1.17H84.36a10.38,10.38,0,0,0-4.93,1.17,4.92,4.92,0,0,0-2.36,3.61l-.25,3.74h-.55A1.3,1.3,0,0,0,75,537.85v3.77a3.15,3.15,0,0,0,1.34,2.08q-.23,3.28-.42,6.57c0,.66-.56,3.1,1.54,4.63v2.44a.65.65,0,0,0,.63.66h1.79a.66.66,0,0,0,.64-.66v-1.55l1.26.06H92.11l1.19-.06v1.55a.65.65,0,0,0,.63.66h1.79a.65.65,0,0,0,.63-.66v-2.48c2.05-1.54,1.63-3.93,1.62-4.59,0-.46,0-1.77-.3-6.58A3.12,3.12,0,0,0,99,541.62v-3.77A1.3,1.3,0,0,0,97.74,536.52Zm-15-5.41a.65.65,0,0,1,.63-.66h7.06a.65.65,0,0,1,.63.66v.55a.64.64,0,0,1-.63.66H83.39a.64.64,0,0,1-.63-.66v-.55Zm-3.05,21.53a1.93,1.93,0,1,1,1.85-1.93A1.89,1.89,0,0,1,79.71,552.64Zm11.23-6.23a7.14,7.14,0,0,1-3.2.66H86a7.27,7.27,0,0,1-3.19-.66,2.61,2.61,0,0,1-1.33-2.12s-.71-5.06-.72-5.49a2.88,2.88,0,0,1,1-2.95,4.7,4.7,0,0,1,2.59-.51h5a4.66,4.66,0,0,1,2.58.51A2.87,2.87,0,0,1,93,538.8c0,.43-.72,5.49-.72,5.49A2.61,2.61,0,0,1,90.94,546.41Zm1.39,4.3a1.85,1.85,0,1,1,1.84,1.93A1.88,1.88,0,0,1,92.33,550.71Z" transform="translate(1.5 1.5)"/></g><g id="Buss2"><path id="Bakgrund-13" data-name="Bakgrund" class="cls-28" d="M61.91,419H293.32c3.67,0,6.66,5.37,6.66,12v51c0,6.63-3,12-6.66,12H61.91c-3.68,0-6.66-5.37-6.66-12V431C55.25,424.37,58.23,419,61.91,419Z" transform="translate(1.5 1.5)"/><text class="cls-29" transform="translate(127.5 467.84)">2</text><text class="cls-30" transform="translate(214.5 466.5)">5 min</text><path id="Ruta-11" data-name="Ruta" class="cls-36" d="M61.42,418.5H293.3c3.69,0,6.68,5.37,6.68,12v51c0,6.63-3,12-6.68,12H61.42c-3.68,0-6.67-5.37-6.67-12v-51C54.75,423.87,57.74,418.5,61.42,418.5Z" transform="translate(1.5 1.5)"/><path class="cls-38" d="M116.88,473H65.08a4.52,4.52,0,0,1-4.31-4.69V438.73a4.53,4.53,0,0,1,4.31-4.7h39.29c7.77,0,16.4,28.2,16.4,34.31v.46C120.77,471.4,119.27,473,116.88,473Z" transform="translate(1.5 1.5)"/><path id="Buss-5" data-name="Buss" class="cls-33" d="M96.74,447.52h-.53l-.27-3.74a4.75,4.75,0,0,0-2.29-3.61c-1.07-.7-3.7-1.08-5.77-1.17H83.36a10.38,10.38,0,0,0-4.93,1.17,4.92,4.92,0,0,0-2.36,3.61l-.25,3.74h-.55A1.3,1.3,0,0,0,74,448.85v3.77a3.15,3.15,0,0,0,1.34,2.08q-.23,3.29-.42,6.57c0,.66-.56,3.1,1.54,4.63v2.44a.65.65,0,0,0,.63.66h1.79a.66.66,0,0,0,.64-.66v-1.55l1.26.06H91.11l1.19-.06v1.55a.65.65,0,0,0,.63.66h1.79a.65.65,0,0,0,.63-.66v-2.48c2.05-1.54,1.63-3.93,1.62-4.59,0-.46,0-1.77-.3-6.58A3.12,3.12,0,0,0,98,452.62v-3.77A1.3,1.3,0,0,0,96.74,447.52Zm-15-5.41a.65.65,0,0,1,.63-.66h7.06a.65.65,0,0,1,.63.66v.55a.64.64,0,0,1-.63.66H82.39a.64.64,0,0,1-.63-.66v-.55Zm-3.05,21.53a1.93,1.93,0,1,1,1.85-1.93A1.89,1.89,0,0,1,78.71,463.64Zm11.23-6.23a7.14,7.14,0,0,1-3.2.66H85a7.27,7.27,0,0,1-3.19-.66,2.61,2.61,0,0,1-1.33-2.12s-.71-5.06-.72-5.49a2.88,2.88,0,0,1,1-2.95,4.7,4.7,0,0,1,2.59-.51h5a4.66,4.66,0,0,1,2.58.51A2.87,2.87,0,0,1,92,449.8c0,.43-.72,5.49-.72,5.49A2.61,2.61,0,0,1,89.94,457.41Zm1.39,4.3a1.85,1.85,0,1,1,1.84,1.93A1.88,1.88,0,0,1,91.33,461.71Z" transform="translate(1.5 1.5)"/></g><g id="Buss1"><path id="Bakgrund-14" data-name="Bakgrund" class="cls-28" d="M61.91,330H293.32c3.67,0,6.66,5.37,6.66,12v51c0,6.63-3,12-6.66,12H61.91c-3.68,0-6.66-5.37-6.66-12V342C55.25,335.37,58.23,330,61.91,330Z" transform="translate(1.5 1.5)"/><path id="Ruta-12" data-name="Ruta" class="cls-36" d="M61.42,329.5H293.3c3.69,0,6.68,5.37,6.68,12v51c0,6.63-3,12-6.68,12H61.42c-3.68,0-6.67-5.37-6.67-12v-51C54.75,334.87,57.74,329.5,61.42,329.5Z" transform="translate(1.5 1.5)"/><text class="cls-30" transform="translate(214.5 376.5)">5 min</text><text class="cls-29" transform="translate(127.5 377.84)">2</text><path class="cls-38" d="M116.88,384H65.08a4.52,4.52,0,0,1-4.31-4.69V349.73a4.53,4.53,0,0,1,4.31-4.7h39.29c7.77,0,16.4,28.2,16.4,34.31v.46C120.77,382.4,119.27,384,116.88,384Z" transform="translate(1.5 1.5)"/><path id="Buss-6" data-name="Buss" class="cls-33" d="M96.74,358.52h-.53l-.27-3.74a4.75,4.75,0,0,0-2.29-3.61c-1.07-.7-3.7-1.08-5.77-1.17H83.36a10.38,10.38,0,0,0-4.93,1.17,4.92,4.92,0,0,0-2.36,3.61l-.25,3.74h-.55A1.3,1.3,0,0,0,74,359.85v3.77a3.15,3.15,0,0,0,1.34,2.08q-.23,3.29-.42,6.57c0,.66-.56,3.1,1.54,4.63v2.44a.65.65,0,0,0,.63.66h1.79a.66.66,0,0,0,.64-.66v-1.55l1.26.06H91.11l1.19-.06v1.55a.65.65,0,0,0,.63.66h1.79a.65.65,0,0,0,.63-.66v-2.48c2.05-1.54,1.63-3.93,1.62-4.59,0-.46,0-1.77-.3-6.58A3.12,3.12,0,0,0,98,363.62v-3.77A1.3,1.3,0,0,0,96.74,358.52Zm-15-5.41a.65.65,0,0,1,.63-.66h7.06a.65.65,0,0,1,.63.66v.55a.64.64,0,0,1-.63.66H82.39a.64.64,0,0,1-.63-.66v-.55Zm-3.05,21.53a1.93,1.93,0,1,1,1.85-1.93A1.89,1.89,0,0,1,78.71,374.64Zm11.23-6.23a7.14,7.14,0,0,1-3.2.66H85a7.27,7.27,0,0,1-3.19-.66,2.61,2.61,0,0,1-1.33-2.12s-.71-5.06-.72-5.49a2.88,2.88,0,0,1,1-2.95,4.7,4.7,0,0,1,2.59-.51h5a4.66,4.66,0,0,1,2.58.51A2.87,2.87,0,0,1,92,360.8c0,.43-.72,5.49-.72,5.49A2.61,2.61,0,0,1,89.94,368.41Zm1.39,4.3a1.85,1.85,0,1,1,1.84,1.93A1.88,1.88,0,0,1,91.33,372.71Z" transform="translate(1.5 1.5)"/><text class="cls-39" transform="translate(127.5 392.99)"><tspan class="cls-40">Ö</tspan><tspan x="9.7" y="0">då</tspan><tspan class="cls-41" x="24.35" y="0">k</tspan><tspan class="cls-42" x="31.15" y="0">r</tspan><tspan class="cls-43" x="35.66" y="0">a </tspan><tspan class="cls-44" x="45.37" y="0">S</tspan><tspan x="52.23" y="0">t</tspan><tspan class="cls-45" x="56.87" y="0">a</tspan><tspan x="63.56" y="0">tion</tspan></text><text class="cls-39" transform="translate(127.5 484.41)"><tspan class="cls-40">Ö</tspan><tspan x="9.7" y="0">då</tspan><tspan class="cls-41" x="24.35" y="0">k</tspan><tspan class="cls-42" x="31.15" y="0">r</tspan><tspan class="cls-43" x="35.66" y="0">a </tspan><tspan class="cls-44" x="45.37" y="0">S</tspan><tspan x="52.23" y="0">t</tspan><tspan class="cls-45" x="56.87" y="0">a</tspan><tspan x="63.56" y="0">tion</tspan></text></g></g></g><text class="cls-29" transform="translate(278.61 311.4)">Helsingborg C</text></g><g id="Footer_group" data-name="Footer group"><rect id="Footer" class="cls-46" x="3.5" y="1715" width="1078" height="206.5"/></g><g id="Header_group" data-name="Header group"><rect id="Bakgrund-15" data-name="Bakgrund" class="cls-46" x="1.5" y="1.5" width="1080" height="277"/><g id="LOGO"><polygon id="I" class="cls-47" points="238.92 166.77 251.08 166.77 251.08 105.88 238.92 105.88 238.92 166.77"/><polyline id="T" class="cls-47" points="199.37 166.77 199.37 117.95 184.15 117.95 184.15 105.88 226.76 105.88 226.76 117.95 211.53 117.95 211.53 166.77 199.37 166.77"/><polyline id="N" class="cls-47" points="138.31 162.43 126.32 162.43 126.32 102.82 129.55 102.82 159.83 137.09 159.83 104.18 171.99 104.18 171.99 163.71 168.76 163.71 138.31 130.71 138.31 162.43"/><path id="Båge" class="cls-47" d="M143.1,76.74V64.83H79.15v66.93c0,45.58,22.88,60.21,60.3,80.28l3.66,2V200.48l-.43-.26c-33.93-18.28-51.62-29.6-51.62-68.46v-55h52.05" transform="translate(1.5 1.5)"/><g id="TE4_text" data-name="TE4 text"><path class="cls-48" d="M198.13,172.84l-.68,5.87H188.1v34.7h-5.7v-34.7h-10l.6-5.87Z" transform="translate(1.5 1.5)"/><path class="cls-48" d="M223.64,172.84l-.68,5.7H208.42v11.23H222.2l-.68,5.7h-13.1v12.16h15.22l-.68,5.7H202.72V172.85h20.92Z" transform="translate(1.5 1.5)"/><path class="cls-48" d="M233.42,200.14h8.25V189.93l5.27-1.19v11.31h3.57l-.68,5.44h-2.89v7.82h-5.27v-7.82h-14v-4.76l12-26.36h5.53l-11.74,25.77Z" transform="translate(1.5 1.5)"/></g></g></g></svg>