<?xml version="1.0" encoding="UTF-8"?>
<svg id="Layer_1" data-name="Layer 1" xmlns="http://www.w3.org/2000/svg" viewBox="0 0 84.08 108.92">
  <defs>
    <style>
      .cls-1 {
        fill: rgba(4, 4, 4, .7);
      }
    </style>
  </defs>
  <path class="cls-1" d="M63.98,99.14h-.86c-1.9,.22-3.84,.39-5.79,.47H26.86c-1.94-.08-3.89-.24-5.8-.47h-.96l.09-.12c-4.44-.59-8.53-1.58-11.53-2.96-.32,.28-.62,.59-.88,.92L.61,106.44c-1.03,1.36-.73,2.47,.67,2.48H11.03c1.4,0,2.48-1.1,3.52-2.46l.52-.65h53.95l.52,.65c1.03,1.36,2.12,2.47,3.52,2.47h9.74c1.39,0,1.69-1.12,.67-2.48l-7.18-9.46c-.25-.33-.53-.62-.85-.88-3,1.37-7.11,2.36-11.54,2.94l.07,.1h0Zm12.3-71.08c-.11-2.33-.53-11.66-7.51-16.39-3.62-2.46-7.04-2.59-14.07-2.88h-.86c-1.82-5.13-6.44-8.79-11.88-8.79s-10.07,3.66-11.87,8.79h-.64c-7.04,.3-10.46,.43-14.08,2.87-6.98,4.73-7.4,14.07-7.51,16.39-.11,2.36-4.24,51.14-4.24,51.14,.29,2.52,.82,8.14,7.3,12.48,3.63,2.43,10.77,3.81,17.79,4.11h26.73c7.01-.3,14.16-1.68,17.79-4.11,6.48-4.34,7.02-9.96,7.3-12.48,0,0-4.12-48.78-4.24-51.13h0ZM41.96,6.69c3.55,0,6.43,3.07,6.43,6.85s-2.87,6.86-6.43,6.86-6.43-3.07-6.43-6.86,2.87-6.85,6.43-6.85ZM16.12,84.79c-3.55,0-6.43-3.07-6.43-6.85s2.87-6.86,6.43-6.86,6.43,3.07,6.43,6.86-2.87,6.85-6.43,6.85ZM61.09,39.6c-.03,1.36-2.25,17.57-2.25,17.57-.17,1.45-.43,4.27-4.17,6.76-2.1,1.4-6,1.94-10.03,2.12h-5.49c-4.04-.18-7.92-.72-10-2.12-3.73-2.49-4.03-5.31-4.19-6.76,0,0-2.23-16.21-2.25-17.57-.02-1.35-1.16-6.41,3.3-9.44,2.11-1.37,4.06-1.48,8.11-1.65h15.55c4.05,.17,6,.28,8.11,1.65,4.47,3.03,3.32,8.09,3.3,9.44Zm6.45,45.18c-3.55,0-6.43-3.07-6.43-6.85s2.88-6.86,6.43-6.86,6.43,3.07,6.43,6.86-2.87,6.85-6.43,6.85Z"/>
</svg>