<?xml version="1.0" encoding="UTF-8"?>
<svg id="Layer_1" data-name="Layer 1" xmlns="http://www.w3.org/2000/svg" viewBox="0 0 60 39">
  <defs>
    <style>
      .cls-1 {
        fill: #fdce1d;
      }

      .cls-2 {
        fill: rgba(4, 5, 5, .7);
      }

      .cls-3 {
        fill: #70b544;
      }
    </style>
  </defs>
  <path class="cls-3" d="M56.09,39.05H4.29c-2.38,0-4.31-2.11-4.31-4.7V4.75C-.02,2.16,1.91,.06,4.29,.05H43.58c7.77,0,16.4,28.2,16.4,34.3v.47c0,2.6-1.5,4.23-3.89,4.23Z"/>
  <path class="cls-1" d="M56.11,39.05H4.31C1.93,39.05,0,36.94,0,34.35V4.75C0,2.16,1.93,.06,4.31,.05H43.6c7.77,0,16.4,28.2,16.4,34.3v.47c0,2.6-1.5,4.23-3.89,4.23Z"/>
  <path id="Buss" class="cls-2" d="M39.04,13.53h-.53l-.26-3.74c-.09-.73-.37-2.36-2.29-3.62-1.07-.7-3.71-1.08-5.78-1.17h-4.52c-2.07,.09-3.86,.47-4.93,1.17-1.92,1.26-2.27,2.88-2.35,3.62l-.25,3.74h-.55c-.7,0-1.27,.59-1.27,1.32v3.77c0,.61,.7,1.72,1.34,2.08-.15,2.19-.29,4.38-.42,6.57-.01,.66-.56,3.1,1.54,4.63v2.44c0,.37,.28,.66,.63,.66h1.79c.35,0,.63-.3,.63-.66v-1.55c.37,.03,.79,.04,1.26,.06h10.33c.45-.02,.83-.04,1.19-.06v1.55c0,.36,.28,.66,.63,.66h1.79c.35,0,.63-.3,.63-.66v-2.48c2.05-1.53,1.63-3.93,1.62-4.59-.01-.46-.01-1.77-.3-6.57,.63-.36,1.33-1.47,1.33-2.07v-3.77c0-.73-.57-1.32-1.26-1.32Zm-14.98-5.41c0-.36,.28-.66,.63-.66h7.06c.35,0,.63,.3,.63,.66v.55c0,.36-.28,.66-.63,.66h-7.06c-.35,0-.63-.3-.63-.66v-.55h0Zm-3.04,21.53c-1.02,0-1.84-.86-1.84-1.93s.83-1.93,1.84-1.93,1.85,.86,1.85,1.93-.83,1.93-1.85,1.93Zm11.23-6.24c-.67,.44-1.91,.6-3.2,.66h-1.75c-1.29-.05-2.53-.22-3.19-.66-1.19-.78-1.28-1.66-1.33-2.11,0,0-.71-5.07-.72-5.49,0-.42-.37-2,1.06-2.95,.67-.43,1.29-.46,2.58-.52h4.96c1.29,.05,1.92,.09,2.59,.52,1.43,.95,1.06,2.53,1.06,2.95s-.72,5.49-.72,5.49c-.05,.45-.14,1.33-1.33,2.11Zm1.39,4.31c0-1.06,.83-1.93,1.84-1.93s1.85,.86,1.85,1.93-.83,1.93-1.85,1.93-1.84-.86-1.84-1.93Z"/>
</svg>